<ttFont>
<head>
    <!-- Most of this table will be recalculated by the compiler -->
    <tableVersion value="1.0"/>
    <fontRevision value="2.0"/>
    <checkSumAdjustment value="0xaa4f40c8"/>
    <magicNumber value="0x5f0f3cf5"/>
    <flags value="00000000 00000011"/>
    <unitsPerEm value="2048"/>
    <created value="Mon Jun 17 14:27:21 2019"/>
    <modified value="Thu Jun 20 18:52:33 2019"/>
    <xMin value="-853"/>
    <yMin value="-1618"/>
    <xMax value="5190"/>
    <yMax value="3439"/>
    <macStyle value="00000000 00000000"/>
    <lowestRecPPEM value="6"/>
    <fontDirectionHint value="2"/>
    <indexToLocFormat value="1"/>
    <glyphDataFormat value="0"/>
  </head>
    <TTGlyph name=".notdef" xMin="115" yMin="0" xMax="1380" yMax="1587">
      <contour>
        <pt x="115" y="1587" on="1"/>
        <pt x="1380" y="1587" on="1"/>
        <pt x="1380" y="0" on="1"/>
        <pt x="115" y="0" on="1"/>
      </contour>
      <contour>
        <pt x="172" y="57" on="1"/>
        <pt x="1322" y="57" on="1"/>
        <pt x="1322" y="1529" on="1"/>
        <pt x="172" y="1529" on="1"/>
      </contour>
      <contour>
        <pt x="917" y="768" on="1"/>
        <pt x="917" y="764" on="0"/>
        <pt x="876" y="721" on="0"/>
        <pt x="833" y="681" on="0"/>
        <pt x="829" y="681" on="1"/>
        <pt x="778" y="707" on="0"/>
        <pt x="744" y="756" on="1"/>
        <pt x="734" y="744" on="0"/>
        <pt x="698" y="708" on="0"/>
        <pt x="667" y="680" on="0"/>
        <pt x="664" y="680" on="1"/>
        <pt x="634" y="695" on="0"/>
        <pt x="589" y="738" on="0"/>
        <pt x="572" y="765" on="1"/>
        <pt x="572" y="770" on="0"/>
        <pt x="614" y="814" on="0"/>
        <pt x="659" y="856" on="0"/>
        <pt x="664" y="856" on="1"/>
        <pt x="697" y="805" on="0"/>
        <pt x="741" y="773" on="1"/>
        <pt x="750" y="785" on="0"/>
        <pt x="789" y="825" on="0"/>
        <pt x="825" y="857" on="0"/>
        <pt x="829" y="857" on="1"/>
        <pt x="864" y="802" on="0"/>
      </contour>
      <contour>
        <pt x="319" y="705" on="1"/>
        <pt x="321" y="712" on="0"/>
        <pt x="341" y="695" on="0"/>
        <pt x="339" y="688" on="1"/>
        <pt x="327" y="624" on="0"/>
        <pt x="392" y="554" on="0"/>
        <pt x="509" y="523" on="0"/>
        <pt x="642" y="517" on="0"/>
        <pt x="698" y="517" on="1"/>
        <pt x="899" y="517" on="0"/>
        <pt x="1166" y="600" on="0"/>
        <pt x="1218" y="729" on="1"/>
        <pt x="1220" y="736" on="0"/>
        <pt x="1239" y="719" on="0"/>
        <pt x="1237" y="712" on="1"/>
        <pt x="1214" y="591" on="0"/>
        <pt x="1087" y="444" on="0"/>
        <pt x="838" y="378" on="0"/>
        <pt x="631" y="378" on="1"/>
        <pt x="450" y="378" on="0"/>
        <pt x="295" y="455" on="0"/>
        <pt x="285" y="601" on="0"/>
      </contour>
    </TTGlyph>
    <TTGlyph name="A" xMin="15" yMin="-3" xMax="1457" yMax="1389">
      <contour>
        <pt x="1457" y="-3" on="1"/>
        <pt x="922" y="0" on="1"/>
        <pt x="922" y="38" on="1"/>
        <pt x="993" y="39" on="0"/>
        <pt x="1055" y="78" on="0"/>
        <pt x="1062" y="141" on="0"/>
        <pt x="1037" y="219" on="0"/>
        <pt x="1020" y="260" on="1"/>
        <pt x="938" y="455" on="1"/>
        <pt x="412" y="455" on="1"/>
        <pt x="320" y="239" on="1"/>
        <pt x="295" y="178" on="0"/>
        <pt x="282" y="94" on="0"/>
        <pt x="350" y="46" on="0"/>
        <pt x="444" y="38" on="1"/>
        <pt x="444" y="0" on="1"/>
        <pt x="15" y="0" on="1"/>
        <pt x="15" y="38" on="1"/>
        <pt x="102" y="44" on="0"/>
        <pt x="192" y="159" on="0"/>
        <pt x="241" y="270" on="1"/>
        <pt x="718" y="1389" on="1"/>
        <pt x="753" y="1389" on="1"/>
        <pt x="1225" y="260" on="1"/>
        <pt x="1266" y="165" on="0"/>
        <pt x="1327" y="73" on="0"/>
        <pt x="1400" y="42" on="0"/>
        <pt x="1457" y="38" on="1"/>
      </contour>
      <contour>
        <pt x="911" y="528" on="1"/>
        <pt x="681" y="1079" on="1"/>
        <pt x="444" y="528" on="1"/>
      </contour>
    </TTGlyph>
    <TTGlyph name="AE" xMin="-24" yMin="0" xMax="1765" yMax="1357">
      <contour>
        <pt x="1658" y="0" on="1"/>
        <pt x="639" y="0" on="1"/>
        <pt x="639" y="38" on="1"/>
        <pt x="689" y="38" on="1"/>
        <pt x="772" y="38" on="0"/>
        <pt x="812" y="87" on="1"/>
        <pt x="835" y="116" on="0"/>
        <pt x="835" y="241" on="1"/>
        <pt x="835" y="526" on="1"/>
        <pt x="440" y="526" on="1"/>
        <pt x="316" y="292" on="1"/>
        <pt x="260" y="189" on="0"/>
        <pt x="234" y="92" on="0"/>
        <pt x="274" y="67" on="1"/>
        <pt x="308" y="45" on="0"/>
        <pt x="402" y="38" on="1"/>
        <pt x="402" y="0" on="1"/>
        <pt x="-24" y="0" on="1"/>
        <pt x="-24" y="38" on="1"/>
        <pt x="24" y="38" on="0"/>
        <pt x="51" y="55" on="1"/>
        <pt x="80" y="73" on="0"/>
        <pt x="155" y="168" on="0"/>
        <pt x="213" y="274" on="1"/>
        <pt x="627" y="1044" on="1"/>
        <pt x="704" y="1189" on="0"/>
        <pt x="704" y="1239" on="1"/>
        <pt x="704" y="1272" on="0"/>
        <pt x="637" y="1315" on="0"/>
        <pt x="530" y="1320" on="1"/>
        <pt x="530" y="1357" on="1"/>
        <pt x="1643" y="1357" on="1"/>
        <pt x="1658" y="1061" on="1"/>
        <pt x="1626" y="1061" on="1"/>
        <pt x="1606" y="1153" on="0"/>
        <pt x="1561" y="1249" on="0"/>
        <pt x="1462" y="1283" on="0"/>
        <pt x="1360" y="1283" on="1"/>
        <pt x="1027" y="1283" on="1"/>
        <pt x="1027" y="747" on="1"/>
        <pt x="1286" y="747" on="1"/>
        <pt x="1403" y="747" on="0"/>
        <pt x="1493" y="834" on="0"/>
        <pt x="1503" y="943" on="1"/>
        <pt x="1538" y="943" on="1"/>
        <pt x="1538" y="474" on="1"/>
        <pt x="1503" y="474" on="1"/>
        <pt x="1493" y="553" on="0"/>
        <pt x="1457" y="639" on="0"/>
        <pt x="1372" y="673" on="0"/>
        <pt x="1286" y="673" on="1"/>
        <pt x="1027" y="673" on="1"/>
        <pt x="1027" y="222" on="1"/>
        <pt x="1027" y="182" on="0"/>
        <pt x="1028" y="125" on="0"/>
        <pt x="1035" y="115" on="1"/>
        <pt x="1043" y="102" on="0"/>
        <pt x="1085" y="74" on="0"/>
        <pt x="1143" y="74" on="1"/>
        <pt x="1325" y="74" on="1"/>
        <pt x="1438" y="74" on="0"/>
        <pt x="1582" y="129" on="0"/>
        <pt x="1682" y="247" on="0"/>
        <pt x="1728" y="343" on="1"/>
        <pt x="1765" y="343" on="1"/>
      </contour>
      <contour>
        <pt x="835" y="1283" on="1"/>
        <pt x="477" y="600" on="1"/>
        <pt x="835" y="600" on="1"/>
      </contour>
    </TTGlyph>
    <TTGlyph name="Aacute" xMin="15" yMin="-3" xMax="1457" yMax="1826">
      <component glyphName="A" x="0" y="0" flags="0x204"/>
      <component glyphName="acutecomb" x="1248" y="430" flags="0x4"/>
    </TTGlyph>
    <TTGlyph name="Acircumflex" xMin="15" yMin="-3" xMax="1457" yMax="1817">
      <component glyphName="A" x="0" y="0" flags="0x204"/>
      <component glyphName="uni0302" x="1241" y="430" flags="0x4"/>
    </TTGlyph>
    <TTGlyph name="Adieresis" xMin="15" yMin="-3" xMax="1457" yMax="1771">
      <component glyphName="A" x="0" y="0" flags="0x204"/>
      <component glyphName="uni0308" x="1250" y="440" flags="0x4"/>
    </TTGlyph>
    <TTGlyph name="Agrave" xMin="15" yMin="-3" xMax="1457" yMax="1831">
      <component glyphName="A" x="0" y="0" flags="0x204"/>
      <component glyphName="gravecomb" x="1250" y="435" flags="0x4"/>
    </TTGlyph>
    <TTGlyph name="Aring" xMin="15" yMin="-3" xMax="1457" yMax="1864">
      <component glyphName="A" x="0" y="0" flags="0x204"/>
      <component glyphName="uni030A" x="1243" y="438" flags="0x4"/>
    </TTGlyph>
    <TTGlyph name="Atilde" xMin="15" yMin="-3" xMax="1457" yMax="1784">
      <component glyphName="A" x="0" y="0" flags="0x204"/>
      <component glyphName="tildecomb" x="1245" y="440" flags="0x4"/>
    </TTGlyph>
    <TTGlyph name="B" xMin="36" yMin="0" xMax="1255" yMax="1357">
      <contour>
        <pt x="1255" y="371" on="1"/>
        <pt x="1255" y="299" on="0"/>
        <pt x="1183" y="151" on="0"/>
        <pt x="1118" y="98" on="1"/>
        <pt x="1052" y="49" on="0"/>
        <pt x="849" y="0" on="0"/>
        <pt x="674" y="0" on="1"/>
        <pt x="36" y="0" on="1"/>
        <pt x="36" y="38" on="1"/>
        <pt x="85" y="38" on="1"/>
        <pt x="170" y="38" on="0"/>
        <pt x="207" y="92" on="1"/>
        <pt x="217" y="109" on="0"/>
        <pt x="229" y="183" on="0"/>
        <pt x="229" y="241" on="1"/>
        <pt x="229" y="1118" on="1"/>
        <pt x="229" y="1244" on="0"/>
        <pt x="201" y="1278" on="1"/>
        <pt x="159" y="1320" on="0"/>
        <pt x="85" y="1320" on="1"/>
        <pt x="36" y="1320" on="1"/>
        <pt x="36" y="1357" on="1"/>
        <pt x="621" y="1357" on="1"/>
        <pt x="801" y="1357" on="0"/>
        <pt x="1026" y="1290" on="0"/>
        <pt x="1147" y="1182" on="0"/>
        <pt x="1193" y="1054" on="0"/>
        <pt x="1193" y="994" on="1"/>
        <pt x="1193" y="895" on="0"/>
        <pt x="1070" y="730" on="0"/>
        <pt x="946" y="695" on="1"/>
        <pt x="1107" y="665" on="0"/>
        <pt x="1255" y="487" on="0"/>
      </contour>
      <contour>
        <pt x="982" y="1004" on="1"/>
        <pt x="982" y="1120" on="0"/>
        <pt x="795" y="1289" on="0"/>
        <pt x="604" y="1289" on="1"/>
        <pt x="552" y="1289" on="0"/>
        <pt x="462" y="1281" on="0"/>
        <pt x="422" y="1270" on="1"/>
        <pt x="422" y="747" on="1"/>
        <pt x="461" y="738" on="0"/>
        <pt x="553" y="734" on="0"/>
        <pt x="613" y="734" on="1"/>
        <pt x="812" y="734" on="0"/>
        <pt x="982" y="875" on="0"/>
      </contour>
      <contour>
        <pt x="1023" y="355" on="1"/>
        <pt x="1023" y="490" on="0"/>
        <pt x="806" y="665" on="0"/>
        <pt x="600" y="665" on="1"/>
        <pt x="473" y="665" on="0"/>
        <pt x="422" y="654" on="1"/>
        <pt x="422" y="98" on="1"/>
        <pt x="481" y="85" on="0"/>
        <pt x="596" y="71" on="0"/>
        <pt x="653" y="71" on="1"/>
        <pt x="833" y="71" on="0"/>
        <pt x="1023" y="231" on="0"/>
      </contour>
    </TTGlyph>
    <TTGlyph name="C" xMin="74" yMin="-32" xMax="1296" yMax="1389">
      <contour>
        <pt x="1296" y="319" on="1"/>
        <pt x="1196" y="141" on="0"/>
        <pt x="925" y="-32" on="0"/>
        <pt x="734" y="-32" on="1"/>
        <pt x="577" y="-32" on="0"/>
        <pt x="332" y="78" on="0"/>
        <pt x="162" y="271" on="0"/>
        <pt x="74" y="520" on="0"/>
        <pt x="74" y="658" on="1"/>
        <pt x="74" y="806" on="0"/>
        <pt x="172" y="1070" on="0"/>
        <pt x="354" y="1273" on="0"/>
        <pt x="609" y="1389" on="0"/>
        <pt x="766" y="1389" on="1"/>
        <pt x="869" y="1389" on="0"/>
        <pt x="1009" y="1342" on="0"/>
        <pt x="1095" y="1294" on="0"/>
        <pt x="1115" y="1294" on="1"/>
        <pt x="1177" y="1294" on="0"/>
        <pt x="1198" y="1389" on="1"/>
        <pt x="1235" y="1389" on="1"/>
        <pt x="1266" y="927" on="1"/>
        <pt x="1235" y="927" on="1"/>
        <pt x="1173" y="1136" on="0"/>
        <pt x="939" y="1318" on="0"/>
        <pt x="781" y="1318" on="1"/>
        <pt x="642" y="1318" on="0"/>
        <pt x="425" y="1175" on="0"/>
        <pt x="301" y="882" on="0"/>
        <pt x="301" y="657" on="1"/>
        <pt x="301" y="365" on="0"/>
        <pt x="582" y="57" on="0"/>
        <pt x="811" y="57" on="1"/>
        <pt x="900" y="57" on="0"/>
        <pt x="1046" y="104" on="0"/>
        <pt x="1186" y="226" on="0"/>
        <pt x="1266" y="339" on="1"/>
      </contour>
    </TTGlyph>
    <TTGlyph name="Ccedilla" xMin="74" yMin="-443" xMax="1296" yMax="1389">
      <component glyphName="C" x="0" y="0" flags="0x204"/>
      <component glyphName="uni0327" x="1201" y="0" flags="0x4"/>
    </TTGlyph>
    <TTGlyph name="D" xMin="36" yMin="0" xMax="1402" yMax="1357">
      <contour>
        <pt x="1402" y="687" on="1"/>
        <pt x="1402" y="496" on="0"/>
        <pt x="1241" y="184" on="0"/>
        <pt x="905" y="0" on="0"/>
        <pt x="643" y="0" on="1"/>
        <pt x="36" y="0" on="1"/>
        <pt x="36" y="38" on="1"/>
        <pt x="87" y="38" on="1"/>
        <pt x="176" y="38" on="0"/>
        <pt x="207" y="92" on="1"/>
        <pt x="217" y="109" on="0"/>
        <pt x="229" y="183" on="0"/>
        <pt x="229" y="241" on="1"/>
        <pt x="229" y="1118" on="1"/>
        <pt x="229" y="1244" on="0"/>
        <pt x="204" y="1278" on="1"/>
        <pt x="159" y="1320" on="0"/>
        <pt x="87" y="1320" on="1"/>
        <pt x="36" y="1320" on="1"/>
        <pt x="36" y="1357" on="1"/>
        <pt x="588" y="1357" on="1"/>
        <pt x="813" y="1357" on="0"/>
        <pt x="1096" y="1281" on="0"/>
        <pt x="1193" y="1197" on="1"/>
        <pt x="1287" y="1113" on="0"/>
        <pt x="1402" y="845" on="0"/>
      </contour>
      <contour>
        <pt x="1175" y="676" on="1"/>
        <pt x="1175" y="865" on="0"/>
        <pt x="1035" y="1136" on="0"/>
        <pt x="788" y="1281" on="0"/>
        <pt x="627" y="1281" on="1"/>
        <pt x="582" y="1281" on="0"/>
        <pt x="481" y="1268" on="0"/>
        <pt x="422" y="1251" on="1"/>
        <pt x="422" y="98" on="1"/>
        <pt x="485" y="85" on="0"/>
        <pt x="591" y="69" on="0"/>
        <pt x="635" y="69" on="1"/>
        <pt x="789" y="68" on="0"/>
        <pt x="1033" y="214" on="0"/>
        <pt x="1175" y="487" on="0"/>
      </contour>
    </TTGlyph>
    <TTGlyph name="E" xMin="43" yMin="0" xMax="1206" yMax="1357">
      <contour>
        <pt x="1206" y="342" on="1"/>
        <pt x="1089" y="0" on="1"/>
        <pt x="43" y="0" on="1"/>
        <pt x="43" y="38" on="1"/>
        <pt x="90" y="38" on="1"/>
        <pt x="107" y="38" on="0"/>
        <pt x="178" y="51" on="0"/>
        <pt x="197" y="69" on="1"/>
        <pt x="217" y="87" on="0"/>
        <pt x="237" y="152" on="0"/>
        <pt x="237" y="241" on="1"/>
        <pt x="237" y="1121" on="1"/>
        <pt x="237" y="1188" on="0"/>
        <pt x="223" y="1266" on="0"/>
        <pt x="212" y="1280" on="1"/>
        <pt x="175" y="1320" on="0"/>
        <pt x="90" y="1320" on="1"/>
        <pt x="43" y="1320" on="1"/>
        <pt x="43" y="1357" on="1"/>
        <pt x="1089" y="1357" on="1"/>
        <pt x="1104" y="1061" on="1"/>
        <pt x="1065" y="1061" on="1"/>
        <pt x="1055" y="1105" on="0"/>
        <pt x="1035" y="1185" on="0"/>
        <pt x="990" y="1247" on="0"/>
        <pt x="893" y="1283" on="0"/>
        <pt x="804" y="1283" on="1"/>
        <pt x="427" y="1283" on="1"/>
        <pt x="427" y="747" on="1"/>
        <pt x="727" y="747" on="1"/>
        <pt x="819" y="747" on="0"/>
        <pt x="903" y="788" on="0"/>
        <pt x="932" y="875" on="0"/>
        <pt x="941" y="943" on="1"/>
        <pt x="979" y="943" on="1"/>
        <pt x="979" y="471" on="1"/>
        <pt x="941" y="471" on="1"/>
        <pt x="932" y="542" on="0"/>
        <pt x="902" y="631" on="0"/>
        <pt x="818" y="673" on="0"/>
        <pt x="727" y="673" on="1"/>
        <pt x="427" y="673" on="1"/>
        <pt x="427" y="164" on="1"/>
        <pt x="427" y="124" on="0"/>
        <pt x="471" y="74" on="0"/>
        <pt x="543" y="74" on="1"/>
        <pt x="772" y="74" on="1"/>
        <pt x="855" y="74" on="0"/>
        <pt x="964" y="95" on="0"/>
        <pt x="1044" y="151" on="0"/>
        <pt x="1118" y="257" on="0"/>
        <pt x="1166" y="342" on="1"/>
      </contour>
    </TTGlyph>
    <TTGlyph name="Eacute" xMin="43" yMin="0" xMax="1206" yMax="1826">
      <component glyphName="E" x="0" y="0" flags="0x204"/>
      <component glyphName="acutecomb" x="1130" y="430" flags="0x4"/>
    </TTGlyph>
    <TTGlyph name="Ecircumflex" xMin="43" yMin="0" xMax="1206" yMax="1817">
      <component glyphName="E" x="0" y="0" flags="0x204"/>
      <component glyphName="uni0302" x="1141" y="430" flags="0x4"/>
    </TTGlyph>
    <TTGlyph name="Edieresis" xMin="43" yMin="0" xMax="1206" yMax="1766">
      <component glyphName="E" x="0" y="0" flags="0x204"/>
      <component glyphName="uni0308" x="1137" y="435" flags="0x4"/>
    </TTGlyph>
    <TTGlyph name="Egrave" xMin="42" yMin="0" xMax="1205" yMax="1826">
      <component glyphName="E" x="-1" y="0" flags="0x4"/>
      <component glyphName="gravecomb" x="1141" y="430" flags="0x4"/>
    </TTGlyph>
    <TTGlyph name="Eth" xMin="36" yMin="0" xMax="1402" yMax="1357">
      <contour>
        <pt x="36" y="678" on="1"/>
        <pt x="36" y="792" on="1"/>
        <pt x="229" y="792" on="1"/>
        <pt x="229" y="1118" on="1"/>
        <pt x="229" y="1244" on="0"/>
        <pt x="204" y="1278" on="1"/>
        <pt x="159" y="1320" on="0"/>
        <pt x="87" y="1320" on="1"/>
        <pt x="36" y="1320" on="1"/>
        <pt x="36" y="1357" on="1"/>
        <pt x="588" y="1357" on="1"/>
        <pt x="813" y="1357" on="0"/>
        <pt x="1096" y="1283" on="0"/>
        <pt x="1193" y="1197" on="1"/>
        <pt x="1288" y="1114" on="0"/>
        <pt x="1402" y="846" on="0"/>
        <pt x="1402" y="687" on="1"/>
        <pt x="1402" y="496" on="0"/>
        <pt x="1241" y="184" on="0"/>
        <pt x="905" y="0" on="0"/>
        <pt x="643" y="0" on="1"/>
        <pt x="36" y="0" on="1"/>
        <pt x="36" y="38" on="1"/>
        <pt x="87" y="38" on="1"/>
        <pt x="175" y="38" on="0"/>
        <pt x="207" y="92" on="1"/>
        <pt x="229" y="128" on="0"/>
        <pt x="229" y="241" on="1"/>
        <pt x="229" y="678" on="1"/>
      </contour>
      <contour>
        <pt x="1175" y="676" on="1"/>
        <pt x="1175" y="864" on="0"/>
        <pt x="1035" y="1135" on="0"/>
        <pt x="788" y="1281" on="0"/>
        <pt x="627" y="1281" on="1"/>
        <pt x="582" y="1281" on="0"/>
        <pt x="481" y="1268" on="0"/>
        <pt x="422" y="1251" on="1"/>
        <pt x="422" y="792" on="1"/>
        <pt x="819" y="792" on="1"/>
        <pt x="819" y="678" on="1"/>
        <pt x="422" y="678" on="1"/>
        <pt x="422" y="98" on="1"/>
        <pt x="485" y="85" on="0"/>
        <pt x="591" y="69" on="0"/>
        <pt x="635" y="69" on="1"/>
        <pt x="789" y="68" on="0"/>
        <pt x="1033" y="214" on="0"/>
        <pt x="1175" y="487" on="0"/>
      </contour>
    </TTGlyph>
    <TTGlyph name="Euro" xMin="-59" yMin="-32" xMax="965" yMax="1389">
      <contour>
        <pt x="232" y="572" on="1"/>
        <pt x="248" y="322" on="0"/>
        <pt x="449" y="57" on="0"/>
        <pt x="606" y="57" on="1"/>
        <pt x="672" y="57" on="0"/>
        <pt x="780" y="104" on="0"/>
        <pt x="884" y="226" on="0"/>
        <pt x="943" y="339" on="1"/>
        <pt x="965" y="319" on="1"/>
        <pt x="890" y="140" on="0"/>
        <pt x="690" y="-32" on="0"/>
        <pt x="550" y="-32" on="1"/>
        <pt x="408" y="-32" on="0"/>
        <pt x="199" y="131" on="0"/>
        <pt x="77" y="406" on="0"/>
        <pt x="64" y="572" on="1"/>
        <pt x="-59" y="572" on="1"/>
        <pt x="-39" y="655" on="1"/>
        <pt x="61" y="655" on="1"/>
        <pt x="61" y="658" on="1"/>
        <pt x="61" y="675" on="0"/>
        <pt x="62" y="710" on="0"/>
        <pt x="63" y="727" on="1"/>
        <pt x="-59" y="727" on="1"/>
        <pt x="-39" y="812" on="1"/>
        <pt x="72" y="812" on="1"/>
        <pt x="95" y="974" on="0"/>
        <pt x="230" y="1236" on="0"/>
        <pt x="439" y="1389" on="0"/>
        <pt x="573" y="1389" on="1"/>
        <pt x="649" y="1389" on="0"/>
        <pt x="752" y="1342" on="0"/>
        <pt x="816" y="1294" on="0"/>
        <pt x="831" y="1294" on="1"/>
        <pt x="877" y="1294" on="0"/>
        <pt x="892" y="1389" on="1"/>
        <pt x="920" y="1389" on="1"/>
        <pt x="943" y="927" on="1"/>
        <pt x="920" y="927" on="1"/>
        <pt x="874" y="1135" on="0"/>
        <pt x="701" y="1318" on="0"/>
        <pt x="585" y="1318" on="1"/>
        <pt x="449" y="1318" on="0"/>
        <pt x="260" y="1071" on="0"/>
        <pt x="237" y="812" on="1"/>
        <pt x="779" y="812" on="1"/>
        <pt x="758" y="727" on="1"/>
        <pt x="231" y="727" on="1"/>
        <pt x="230" y="710" on="0"/>
        <pt x="230" y="675" on="0"/>
        <pt x="230" y="657" on="1"/>
        <pt x="230" y="655" on="1"/>
        <pt x="742" y="655" on="1"/>
        <pt x="722" y="572" on="1"/>
      </contour>
    </TTGlyph>
    <TTGlyph name="F" xMin="34" yMin="0" xMax="1058" yMax="1357">
      <contour>
        <pt x="1058" y="1061" on="1"/>
        <pt x="1021" y="1061" on="1"/>
        <pt x="999" y="1145" on="0"/>
        <pt x="934" y="1242" on="0"/>
        <pt x="819" y="1283" on="0"/>
        <pt x="720" y="1283" on="1"/>
        <pt x="420" y="1283" on="1"/>
        <pt x="420" y="751" on="1"/>
        <pt x="666" y="751" on="1"/>
        <pt x="755" y="751" on="0"/>
        <pt x="830" y="830" on="0"/>
        <pt x="844" y="935" on="1"/>
        <pt x="881" y="935" on="1"/>
        <pt x="881" y="475" on="1"/>
        <pt x="844" y="475" on="1"/>
        <pt x="844" y="573" on="0"/>
        <pt x="770" y="666" on="0"/>
        <pt x="666" y="666" on="1"/>
        <pt x="420" y="666" on="1"/>
        <pt x="420" y="241" on="1"/>
        <pt x="420" y="175" on="0"/>
        <pt x="427" y="103" on="0"/>
        <pt x="443" y="89" on="1"/>
        <pt x="462" y="63" on="0"/>
        <pt x="531" y="38" on="0"/>
        <pt x="566" y="38" on="1"/>
        <pt x="615" y="38" on="1"/>
        <pt x="615" y="0" on="1"/>
        <pt x="34" y="0" on="1"/>
        <pt x="34" y="38" on="1"/>
        <pt x="83" y="38" on="1"/>
        <pt x="164" y="38" on="0"/>
        <pt x="204" y="87" on="1"/>
        <pt x="227" y="121" on="0"/>
        <pt x="227" y="241" on="1"/>
        <pt x="227" y="1118" on="1"/>
        <pt x="227" y="1191" on="0"/>
        <pt x="214" y="1260" on="0"/>
        <pt x="199" y="1275" on="1"/>
        <pt x="178" y="1297" on="0"/>
        <pt x="115" y="1320" on="0"/>
        <pt x="83" y="1320" on="1"/>
        <pt x="34" y="1320" on="1"/>
        <pt x="34" y="1357" on="1"/>
        <pt x="1043" y="1357" on="1"/>
      </contour>
    </TTGlyph>
    <TTGlyph name="FontBslnSideBrngMrkrLft" xMin="52" yMin="-339" xMax="391" yMax="0">
      <contour>
        <pt x="346" y="-339" on="1"/>
        <pt x="346" y="-45" on="1"/>
        <pt x="52" y="-45" on="1"/>
        <pt x="52" y="0" on="1"/>
        <pt x="391" y="0" on="1"/>
        <pt x="391" y="-339" on="1"/>
      </contour>
    </TTGlyph>
    <TTGlyph name="FontBslnSideBrngMrkrRt" xMin="0" yMin="-339" xMax="339" yMax="0">
      <contour>
        <pt x="45" y="-45" on="1"/>
        <pt x="45" y="-339" on="1"/>
        <pt x="0" y="-339" on="1"/>
        <pt x="0" y="0" on="1"/>
        <pt x="339" y="0" on="1"/>
        <pt x="339" y="-45" on="1"/>
      </contour>
    </TTGlyph>
    <TTGlyph name="G" xMin="71" yMin="-32" xMax="1450" yMax="1389">
      <contour>
        <pt x="1450" y="704" on="1"/>
        <pt x="1427" y="704" on="1"/>
        <pt x="1350" y="704" on="0"/>
        <pt x="1320" y="651" on="1"/>
        <pt x="1299" y="614" on="0"/>
        <pt x="1299" y="504" on="1"/>
        <pt x="1299" y="90" on="1"/>
        <pt x="1187" y="25" on="0"/>
        <pt x="950" y="-32" on="0"/>
        <pt x="822" y="-32" on="1"/>
        <pt x="587" y="-32" on="0"/>
        <pt x="251" y="152" on="0"/>
        <pt x="71" y="465" on="0"/>
        <pt x="71" y="658" on="1"/>
        <pt x="71" y="783" on="0"/>
        <pt x="164" y="1040" on="0"/>
        <pt x="346" y="1256" on="0"/>
        <pt x="614" y="1389" on="0"/>
        <pt x="790" y="1389" on="1"/>
        <pt x="904" y="1389" on="0"/>
        <pt x="1056" y="1345" on="0"/>
        <pt x="1149" y="1302" on="0"/>
        <pt x="1174" y="1302" on="1"/>
        <pt x="1186" y="1302" on="0"/>
        <pt x="1218" y="1335" on="0"/>
        <pt x="1222" y="1389" on="1"/>
        <pt x="1260" y="1389" on="1"/>
        <pt x="1294" y="960" on="1"/>
        <pt x="1260" y="960" on="1"/>
        <pt x="1194" y="1155" on="0"/>
        <pt x="963" y="1319" on="0"/>
        <pt x="811" y="1319" on="1"/>
        <pt x="646" y="1319" on="0"/>
        <pt x="419" y="1156" on="0"/>
        <pt x="303" y="877" on="0"/>
        <pt x="301" y="703" on="1"/>
        <pt x="299" y="509" on="0"/>
        <pt x="437" y="208" on="0"/>
        <pt x="676" y="38" on="0"/>
        <pt x="825" y="38" on="1"/>
        <pt x="897" y="38" on="0"/>
        <pt x="1037" y="72" on="0"/>
        <pt x="1104" y="113" on="1"/>
        <pt x="1104" y="504" on="1"/>
        <pt x="1104" y="589" on="0"/>
        <pt x="1077" y="674" on="0"/>
        <pt x="1001" y="703" on="0"/>
        <pt x="927" y="704" on="1"/>
        <pt x="927" y="739" on="1"/>
        <pt x="1450" y="739" on="1"/>
      </contour>
    </TTGlyph>
    <TTGlyph name="H" xMin="36" yMin="0" xMax="1440" yMax="1357">
      <contour>
        <pt x="1440" y="0" on="1"/>
        <pt x="858" y="0" on="1"/>
        <pt x="858" y="38" on="1"/>
        <pt x="907" y="38" on="1"/>
        <pt x="990" y="38" on="0"/>
        <pt x="1027" y="87" on="1"/>
        <pt x="1038" y="102" on="0"/>
        <pt x="1053" y="178" on="0"/>
        <pt x="1053" y="241" on="1"/>
        <pt x="1053" y="654" on="1"/>
        <pt x="420" y="654" on="1"/>
        <pt x="420" y="241" on="1"/>
        <pt x="420" y="172" on="0"/>
        <pt x="432" y="102" on="0"/>
        <pt x="446" y="85" on="1"/>
        <pt x="463" y="64" on="0"/>
        <pt x="534" y="38" on="0"/>
        <pt x="568" y="38" on="1"/>
        <pt x="618" y="38" on="1"/>
        <pt x="618" y="0" on="1"/>
        <pt x="36" y="0" on="1"/>
        <pt x="36" y="38" on="1"/>
        <pt x="85" y="38" on="1"/>
        <pt x="166" y="38" on="0"/>
        <pt x="205" y="87" on="1"/>
        <pt x="229" y="120" on="0"/>
        <pt x="229" y="241" on="1"/>
        <pt x="229" y="1118" on="1"/>
        <pt x="229" y="1189" on="0"/>
        <pt x="218" y="1256" on="0"/>
        <pt x="201" y="1275" on="1"/>
        <pt x="188" y="1295" on="0"/>
        <pt x="115" y="1320" on="0"/>
        <pt x="85" y="1320" on="1"/>
        <pt x="36" y="1320" on="1"/>
        <pt x="36" y="1357" on="1"/>
        <pt x="618" y="1357" on="1"/>
        <pt x="618" y="1320" on="1"/>
        <pt x="568" y="1320" on="1"/>
        <pt x="535" y="1320" on="0"/>
        <pt x="473" y="1302" on="0"/>
        <pt x="451" y="1278" on="1"/>
        <pt x="437" y="1262" on="0"/>
        <pt x="420" y="1196" on="0"/>
        <pt x="420" y="1118" on="1"/>
        <pt x="420" y="728" on="1"/>
        <pt x="1053" y="728" on="1"/>
        <pt x="1053" y="1118" on="1"/>
        <pt x="1053" y="1191" on="0"/>
        <pt x="1037" y="1264" on="0"/>
        <pt x="1023" y="1278" on="1"/>
        <pt x="981" y="1320" on="0"/>
        <pt x="907" y="1320" on="1"/>
        <pt x="858" y="1320" on="1"/>
        <pt x="858" y="1357" on="1"/>
        <pt x="1440" y="1357" on="1"/>
        <pt x="1440" y="1320" on="1"/>
        <pt x="1390" y="1320" on="1"/>
        <pt x="1360" y="1320" on="0"/>
        <pt x="1295" y="1298" on="0"/>
        <pt x="1274" y="1278" on="1"/>
        <pt x="1252" y="1253" on="0"/>
        <pt x="1243" y="1198" on="0"/>
        <pt x="1243" y="1118" on="1"/>
        <pt x="1243" y="241" on="1"/>
        <pt x="1243" y="175" on="0"/>
        <pt x="1251" y="109" on="0"/>
        <pt x="1267" y="87" on="1"/>
        <pt x="1286" y="61" on="0"/>
        <pt x="1356" y="38" on="0"/>
        <pt x="1390" y="38" on="1"/>
        <pt x="1440" y="38" on="1"/>
      </contour>
    </TTGlyph>
    <TTGlyph name="I" xMin="51" yMin="0" xMax="632" yMax="1357">
      <contour>
        <pt x="632" y="0" on="1"/>
        <pt x="51" y="0" on="1"/>
        <pt x="51" y="38" on="1"/>
        <pt x="100" y="38" on="1"/>
        <pt x="182" y="38" on="0"/>
        <pt x="220" y="87" on="1"/>
        <pt x="244" y="116" on="0"/>
        <pt x="244" y="241" on="1"/>
        <pt x="244" y="1118" on="1"/>
        <pt x="244" y="1188" on="0"/>
        <pt x="238" y="1250" on="0"/>
        <pt x="222" y="1270" on="1"/>
        <pt x="204" y="1294" on="0"/>
        <pt x="135" y="1320" on="0"/>
        <pt x="100" y="1320" on="1"/>
        <pt x="51" y="1320" on="1"/>
        <pt x="51" y="1357" on="1"/>
        <pt x="632" y="1357" on="1"/>
        <pt x="632" y="1320" on="1"/>
        <pt x="583" y="1320" on="1"/>
        <pt x="504" y="1320" on="0"/>
        <pt x="463" y="1272" on="1"/>
        <pt x="452" y="1255" on="0"/>
        <pt x="438" y="1179" on="0"/>
        <pt x="438" y="1118" on="1"/>
        <pt x="438" y="241" on="1"/>
        <pt x="438" y="175" on="0"/>
        <pt x="450" y="103" on="0"/>
        <pt x="461" y="85" on="1"/>
        <pt x="471" y="69" on="0"/>
        <pt x="549" y="38" on="0"/>
        <pt x="583" y="38" on="1"/>
        <pt x="632" y="38" on="1"/>
      </contour>
    </TTGlyph>
    <TTGlyph name="Iacute" xMin="51" yMin="0" xMax="632" yMax="1826">
      <component glyphName="I" x="0" y="0" flags="0x204"/>
      <component glyphName="acutecomb" x="850" y="430" flags="0x4"/>
    </TTGlyph>
    <TTGlyph name="Icircumflex" xMin="19" yMin="0" xMax="663" yMax="1817">
      <component glyphName="I" x="-1" y="0" flags="0x4"/>
      <component glyphName="uni0302" x="853" y="430" flags="0x4"/>
    </TTGlyph>
    <TTGlyph name="Idieresis" xMin="34" yMin="0" xMax="648" yMax="1771">
      <component glyphName="I" x="-2" y="0" flags="0x4"/>
      <component glyphName="uni0308" x="853" y="440" flags="0x4"/>
    </TTGlyph>
    <TTGlyph name="Igrave" xMin="50" yMin="0" xMax="635" yMax="1827">
      <component glyphName="I" x="3" y="0" flags="0x4"/>
      <component glyphName="gravecomb" x="853" y="431" flags="0x4"/>
    </TTGlyph>
    <TTGlyph name="J" xMin="43" yMin="-32" xMax="784" yMax="1357">
      <contour>
        <pt x="784" y="1320" on="1"/>
        <pt x="735" y="1320" on="1"/>
        <pt x="657" y="1320" on="0"/>
        <pt x="615" y="1272" on="1"/>
        <pt x="591" y="1236" on="0"/>
        <pt x="591" y="1118" on="1"/>
        <pt x="591" y="453" on="1"/>
        <pt x="591" y="298" on="0"/>
        <pt x="519" y="106" on="0"/>
        <pt x="409" y="5" on="0"/>
        <pt x="291" y="-32" on="0"/>
        <pt x="244" y="-32" on="1"/>
        <pt x="145" y="-32" on="0"/>
        <pt x="43" y="64" on="0"/>
        <pt x="43" y="122" on="1"/>
        <pt x="43" y="177" on="0"/>
        <pt x="106" y="227" on="0"/>
        <pt x="144" y="227" on="1"/>
        <pt x="190" y="227" on="0"/>
        <pt x="236" y="170" on="0"/>
        <pt x="263" y="96" on="0"/>
        <pt x="295" y="39" on="0"/>
        <pt x="325" y="39" on="1"/>
        <pt x="351" y="39" on="0"/>
        <pt x="400" y="107" on="0"/>
        <pt x="400" y="192" on="1"/>
        <pt x="400" y="1118" on="1"/>
        <pt x="400" y="1178" on="0"/>
        <pt x="393" y="1247" on="0"/>
        <pt x="381" y="1266" on="1"/>
        <pt x="366" y="1288" on="0"/>
        <pt x="295" y="1320" on="0"/>
        <pt x="252" y="1320" on="1"/>
        <pt x="205" y="1320" on="1"/>
        <pt x="205" y="1357" on="1"/>
        <pt x="784" y="1357" on="1"/>
      </contour>
    </TTGlyph>
    <TTGlyph name="K" xMin="36" yMin="0" xMax="1497" yMax="1357">
      <contour>
        <pt x="1497" y="0" on="1"/>
        <pt x="852" y="0" on="1"/>
        <pt x="852" y="38" on="1"/>
        <pt x="911" y="38" on="0"/>
        <pt x="959" y="74" on="0"/>
        <pt x="961" y="100" on="1"/>
        <pt x="966" y="121" on="0"/>
        <pt x="931" y="169" on="0"/>
        <pt x="888" y="213" on="1"/>
        <pt x="480" y="620" on="1"/>
        <pt x="420" y="560" on="1"/>
        <pt x="420" y="241" on="1"/>
        <pt x="420" y="176" on="0"/>
        <pt x="428" y="108" on="0"/>
        <pt x="444" y="87" on="1"/>
        <pt x="461" y="63" on="0"/>
        <pt x="529" y="38" on="0"/>
        <pt x="566" y="38" on="1"/>
        <pt x="613" y="38" on="1"/>
        <pt x="613" y="0" on="1"/>
        <pt x="36" y="0" on="1"/>
        <pt x="36" y="38" on="1"/>
        <pt x="83" y="38" on="1"/>
        <pt x="166" y="38" on="0"/>
        <pt x="205" y="87" on="1"/>
        <pt x="227" y="115" on="0"/>
        <pt x="227" y="241" on="1"/>
        <pt x="227" y="1118" on="1"/>
        <pt x="227" y="1187" on="0"/>
        <pt x="214" y="1262" on="0"/>
        <pt x="201" y="1278" on="1"/>
        <pt x="190" y="1292" on="0"/>
        <pt x="115" y="1320" on="0"/>
        <pt x="83" y="1320" on="1"/>
        <pt x="36" y="1320" on="1"/>
        <pt x="36" y="1357" on="1"/>
        <pt x="613" y="1357" on="1"/>
        <pt x="613" y="1320" on="1"/>
        <pt x="566" y="1320" on="1"/>
        <pt x="536" y="1320" on="0"/>
        <pt x="474" y="1303" on="0"/>
        <pt x="453" y="1281" on="1"/>
        <pt x="437" y="1268" on="0"/>
        <pt x="420" y="1202" on="0"/>
        <pt x="420" y="1118" on="1"/>
        <pt x="420" y="692" on="1"/>
        <pt x="431" y="701" on="0"/>
        <pt x="498" y="764" on="0"/>
        <pt x="558" y="819" on="1"/>
        <pt x="707" y="957" on="0"/>
        <pt x="885" y="1148" on="0"/>
        <pt x="917" y="1193" on="1"/>
        <pt x="943" y="1231" on="0"/>
        <pt x="943" y="1265" on="1"/>
        <pt x="943" y="1285" on="0"/>
        <pt x="903" y="1320" on="0"/>
        <pt x="852" y="1320" on="1"/>
        <pt x="820" y="1320" on="1"/>
        <pt x="820" y="1357" on="1"/>
        <pt x="1320" y="1357" on="1"/>
        <pt x="1320" y="1320" on="1"/>
        <pt x="1277" y="1320" on="0"/>
        <pt x="1207" y="1300" on="0"/>
        <pt x="1151" y="1266" on="1"/>
        <pt x="1118" y="1245" on="0"/>
        <pt x="1077" y="1216" on="0"/>
        <pt x="1021" y="1164" on="0"/>
        <pt x="916" y="1058" on="0"/>
        <pt x="820" y="960" on="1"/>
        <pt x="613" y="753" on="1"/>
        <pt x="1113" y="254" on="1"/>
        <pt x="1237" y="131" on="0"/>
        <pt x="1325" y="87" on="1"/>
        <pt x="1368" y="64" on="0"/>
        <pt x="1454" y="43" on="0"/>
        <pt x="1497" y="38" on="1"/>
      </contour>
    </TTGlyph>
    <TTGlyph name="L" xMin="38" yMin="0" xMax="1211" yMax="1357">
      <contour>
        <pt x="1211" y="369" on="1"/>
        <pt x="1092" y="0" on="1"/>
        <pt x="38" y="0" on="1"/>
        <pt x="38" y="38" on="1"/>
        <pt x="97" y="38" on="0"/>
        <pt x="187" y="58" on="0"/>
        <pt x="237" y="130" on="0"/>
        <pt x="237" y="207" on="1"/>
        <pt x="237" y="1150" on="1"/>
        <pt x="237" y="1227" on="0"/>
        <pt x="187" y="1298" on="0"/>
        <pt x="97" y="1319" on="0"/>
        <pt x="38" y="1319" on="1"/>
        <pt x="38" y="1357" on="1"/>
        <pt x="627" y="1357" on="1"/>
        <pt x="627" y="1319" on="1"/>
        <pt x="568" y="1319" on="0"/>
        <pt x="478" y="1298" on="0"/>
        <pt x="427" y="1227" on="0"/>
        <pt x="427" y="1150" on="1"/>
        <pt x="427" y="256" on="1"/>
        <pt x="427" y="179" on="0"/>
        <pt x="463" y="107" on="0"/>
        <pt x="539" y="87" on="0"/>
        <pt x="598" y="87" on="1"/>
        <pt x="735" y="87" on="1"/>
        <pt x="857" y="87" on="0"/>
        <pt x="983" y="106" on="0"/>
        <pt x="1023" y="146" on="1"/>
        <pt x="1076" y="189" on="0"/>
        <pt x="1139" y="285" on="0"/>
        <pt x="1175" y="374" on="1"/>
      </contour>
    </TTGlyph>
    <TTGlyph name="M" xMin="36" yMin="0" xMax="1780" yMax="1357">
      <contour>
        <pt x="1780" y="0" on="1"/>
        <pt x="1203" y="0" on="1"/>
        <pt x="1203" y="38" on="1"/>
        <pt x="1250" y="38" on="1"/>
        <pt x="1339" y="38" on="0"/>
        <pt x="1374" y="90" on="1"/>
        <pt x="1396" y="121" on="0"/>
        <pt x="1396" y="237" on="1"/>
        <pt x="1396" y="1142" on="1"/>
        <pt x="872" y="0" on="1"/>
        <pt x="837" y="0" on="1"/>
        <pt x="314" y="1142" on="1"/>
        <pt x="314" y="237" on="1"/>
        <pt x="314" y="110" on="0"/>
        <pt x="343" y="79" on="1"/>
        <pt x="375" y="38" on="0"/>
        <pt x="459" y="38" on="1"/>
        <pt x="506" y="38" on="1"/>
        <pt x="506" y="0" on="1"/>
        <pt x="36" y="0" on="1"/>
        <pt x="36" y="38" on="1"/>
        <pt x="83" y="38" on="1"/>
        <pt x="166" y="38" on="0"/>
        <pt x="205" y="90" on="1"/>
        <pt x="214" y="106" on="0"/>
        <pt x="224" y="177" on="0"/>
        <pt x="224" y="237" on="1"/>
        <pt x="224" y="1121" on="1"/>
        <pt x="224" y="1186" on="0"/>
        <pt x="208" y="1264" on="0"/>
        <pt x="181" y="1283" on="1"/>
        <pt x="159" y="1301" on="0"/>
        <pt x="97" y="1320" on="0"/>
        <pt x="36" y="1320" on="1"/>
        <pt x="36" y="1357" on="1"/>
        <pt x="419" y="1357" on="1"/>
        <pt x="911" y="296" on="1"/>
        <pt x="1396" y="1357" on="1"/>
        <pt x="1780" y="1357" on="1"/>
        <pt x="1780" y="1320" on="1"/>
        <pt x="1733" y="1320" on="1"/>
        <pt x="1648" y="1320" on="0"/>
        <pt x="1609" y="1270" on="1"/>
        <pt x="1588" y="1235" on="0"/>
        <pt x="1588" y="1121" on="1"/>
        <pt x="1588" y="237" on="1"/>
        <pt x="1588" y="113" on="0"/>
        <pt x="1617" y="79" on="1"/>
        <pt x="1652" y="38" on="0"/>
        <pt x="1733" y="38" on="1"/>
        <pt x="1780" y="38" on="1"/>
      </contour>
    </TTGlyph>
    <TTGlyph name="ModMacron" xMin="0" yMin="1294" xMax="739" yMax="1421">
      <contour>
        <pt x="0" y="1294" on="1"/>
        <pt x="0" y="1421" on="1"/>
        <pt x="739" y="1421" on="1"/>
        <pt x="739" y="1294" on="1"/>
      </contour>
    </TTGlyph>
    <TTGlyph name="N" xMin="11" yMin="-22" xMax="1450" yMax="1357">
      <contour>
        <pt x="1450" y="1320" on="1"/>
        <pt x="1404" y="1320" on="1"/>
        <pt x="1314" y="1320" on="0"/>
        <pt x="1281" y="1270" on="1"/>
        <pt x="1260" y="1236" on="0"/>
        <pt x="1260" y="1121" on="1"/>
        <pt x="1260" y="-22" on="1"/>
        <pt x="1225" y="-22" on="1"/>
        <pt x="327" y="1071" on="1"/>
        <pt x="327" y="237" on="1"/>
        <pt x="327" y="111" on="0"/>
        <pt x="355" y="79" on="1"/>
        <pt x="393" y="38" on="0"/>
        <pt x="474" y="38" on="1"/>
        <pt x="521" y="38" on="1"/>
        <pt x="521" y="0" on="1"/>
        <pt x="47" y="0" on="1"/>
        <pt x="47" y="38" on="1"/>
        <pt x="94" y="38" on="1"/>
        <pt x="185" y="38" on="0"/>
        <pt x="217" y="90" on="1"/>
        <pt x="241" y="122" on="0"/>
        <pt x="241" y="237" on="1"/>
        <pt x="241" y="1180" on="1"/>
        <pt x="227" y="1194" on="0"/>
        <pt x="182" y="1262" on="0"/>
        <pt x="93" y="1320" on="0"/>
        <pt x="11" y="1320" on="1"/>
        <pt x="11" y="1357" on="1"/>
        <pt x="343" y="1357" on="1"/>
        <pt x="1172" y="339" on="1"/>
        <pt x="1172" y="1121" on="1"/>
        <pt x="1172" y="1249" on="0"/>
        <pt x="1143" y="1278" on="1"/>
        <pt x="1106" y="1320" on="0"/>
        <pt x="1026" y="1320" on="1"/>
        <pt x="981" y="1320" on="1"/>
        <pt x="981" y="1357" on="1"/>
        <pt x="1450" y="1357" on="1"/>
      </contour>
    </TTGlyph>
    <TTGlyph name="Ntilde" xMin="11" yMin="-22" xMax="1450" yMax="1780">
      <component glyphName="N" x="0" y="0" flags="0x204"/>
      <component glyphName="tildecomb" x="1241" y="436" flags="0x4"/>
    </TTGlyph>
    <TTGlyph name="O" xMin="71" yMin="-32" xMax="1400" yMax="1389">
      <contour>
        <pt x="1400" y="687" on="1"/>
        <pt x="1400" y="533" on="0"/>
        <pt x="1299" y="270" on="0"/>
        <pt x="1118" y="76" on="0"/>
        <pt x="875" y="-32" on="0"/>
        <pt x="734" y="-32" on="1"/>
        <pt x="596" y="-32" on="0"/>
        <pt x="355" y="70" on="0"/>
        <pt x="173" y="259" on="0"/>
        <pt x="71" y="522" on="0"/>
        <pt x="71" y="682" on="1"/>
        <pt x="71" y="835" on="0"/>
        <pt x="174" y="1093" on="0"/>
        <pt x="359" y="1284" on="0"/>
        <pt x="606" y="1389" on="0"/>
        <pt x="751" y="1389" on="1"/>
        <pt x="884" y="1389" on="0"/>
        <pt x="1119" y="1285" on="0"/>
        <pt x="1298" y="1095" on="0"/>
        <pt x="1400" y="839" on="0"/>
      </contour>
      <contour>
        <pt x="1174" y="660" on="1"/>
        <pt x="1174" y="970" on="0"/>
        <pt x="956" y="1316" on="0"/>
        <pt x="729" y="1318" on="1"/>
        <pt x="525" y="1318" on="0"/>
        <pt x="301" y="979" on="0"/>
        <pt x="301" y="689" on="1"/>
        <pt x="301" y="496" on="0"/>
        <pt x="400" y="204" on="0"/>
        <pt x="592" y="41" on="0"/>
        <pt x="731" y="39" on="1"/>
        <pt x="925" y="39" on="0"/>
        <pt x="1172" y="340" on="0"/>
      </contour>
    </TTGlyph>
    <TTGlyph name="OE" xMin="75" yMin="-15" xMax="1765" yMax="1370">
      <contour>
        <pt x="1656" y="0" on="1"/>
        <pt x="1002" y="0" on="1"/>
        <pt x="996" y="0" on="0"/>
        <pt x="915" y="-5" on="0"/>
        <pt x="807" y="-10" on="0"/>
        <pt x="711" y="-15" on="0"/>
        <pt x="689" y="-15" on="1"/>
        <pt x="507" y="-15" on="0"/>
        <pt x="230" y="170" on="0"/>
        <pt x="75" y="483" on="0"/>
        <pt x="75" y="676" on="1"/>
        <pt x="75" y="869" on="0"/>
        <pt x="225" y="1183" on="0"/>
        <pt x="508" y="1370" on="0"/>
        <pt x="710" y="1370" on="1"/>
        <pt x="723" y="1370" on="0"/>
        <pt x="818" y="1365" on="0"/>
        <pt x="905" y="1363" on="1"/>
        <pt x="973" y="1359" on="0"/>
        <pt x="1108" y="1357" on="0"/>
        <pt x="1172" y="1357" on="1"/>
        <pt x="1644" y="1357" on="1"/>
        <pt x="1656" y="1061" on="1"/>
        <pt x="1626" y="1061" on="1"/>
        <pt x="1613" y="1119" on="0"/>
        <pt x="1599" y="1194" on="0"/>
        <pt x="1584" y="1211" on="1"/>
        <pt x="1572" y="1224" on="0"/>
        <pt x="1544" y="1257" on="0"/>
        <pt x="1461" y="1283" on="0"/>
        <pt x="1363" y="1283" on="1"/>
        <pt x="1106" y="1283" on="1"/>
        <pt x="1106" y="750" on="1"/>
        <pt x="1288" y="750" on="1"/>
        <pt x="1407" y="750" on="0"/>
        <pt x="1450" y="797" on="1"/>
        <pt x="1476" y="820" on="0"/>
        <pt x="1497" y="892" on="0"/>
        <pt x="1497" y="943" on="1"/>
        <pt x="1538" y="943" on="1"/>
        <pt x="1538" y="471" on="1"/>
        <pt x="1497" y="471" on="1"/>
        <pt x="1491" y="592" on="0"/>
        <pt x="1447" y="632" on="1"/>
        <pt x="1404" y="673" on="0"/>
        <pt x="1288" y="673" on="1"/>
        <pt x="1106" y="673" on="1"/>
        <pt x="1106" y="224" on="1"/>
        <pt x="1106" y="157" on="0"/>
        <pt x="1123" y="93" on="0"/>
        <pt x="1175" y="75" on="0"/>
        <pt x="1225" y="75" on="1"/>
        <pt x="1331" y="75" on="1"/>
        <pt x="1420" y="75" on="0"/>
        <pt x="1544" y="99" on="0"/>
        <pt x="1596" y="148" on="1"/>
        <pt x="1632" y="183" on="0"/>
        <pt x="1698" y="279" on="0"/>
        <pt x="1726" y="342" on="1"/>
        <pt x="1765" y="342" on="1"/>
      </contour>
      <contour>
        <pt x="912" y="1043" on="1"/>
        <pt x="912" y="1174" on="0"/>
        <pt x="894" y="1216" on="1"/>
        <pt x="853" y="1305" on="0"/>
        <pt x="713" y="1305" on="1"/>
        <pt x="511" y="1305" on="0"/>
        <pt x="305" y="959" on="0"/>
        <pt x="305" y="668" on="1"/>
        <pt x="305" y="555" on="0"/>
        <pt x="348" y="337" on="0"/>
        <pt x="443" y="160" on="0"/>
        <pt x="598" y="55" on="0"/>
        <pt x="710" y="55" on="1"/>
        <pt x="860" y="55" on="0"/>
        <pt x="896" y="152" on="1"/>
        <pt x="912" y="197" on="0"/>
        <pt x="912" y="342" on="1"/>
      </contour>
    </TTGlyph>
    <TTGlyph name="Oacute" xMin="71" yMin="-32" xMax="1400" yMax="1827">
      <component glyphName="O" x="0" y="0" flags="0x204"/>
      <component glyphName="acutecomb" x="1250" y="431" flags="0x4"/>
    </TTGlyph>
    <TTGlyph name="ObjectReplChar" xMin="36" yMin="0" xMax="1142" yMax="1110">
      <contour>
        <pt x="971" y="1072" on="1"/>
        <pt x="971" y="1057" on="0"/>
        <pt x="948" y="1034" on="0"/>
        <pt x="933" y="1034" on="1"/>
        <pt x="919" y="1034" on="0"/>
        <pt x="897" y="1057" on="0"/>
        <pt x="897" y="1072" on="1"/>
        <pt x="897" y="1087" on="0"/>
        <pt x="919" y="1110" on="0"/>
        <pt x="933" y="1110" on="1"/>
        <pt x="948" y="1110" on="0"/>
        <pt x="971" y="1087" on="0"/>
      </contour>
      <contour>
        <pt x="798" y="1072" on="1"/>
        <pt x="798" y="1057" on="0"/>
        <pt x="777" y="1034" on="0"/>
        <pt x="761" y="1034" on="1"/>
        <pt x="747" y="1034" on="0"/>
        <pt x="726" y="1057" on="0"/>
        <pt x="726" y="1072" on="1"/>
        <pt x="726" y="1087" on="0"/>
        <pt x="747" y="1110" on="0"/>
        <pt x="761" y="1110" on="1"/>
        <pt x="777" y="1110" on="0"/>
        <pt x="798" y="1087" on="0"/>
      </contour>
      <contour>
        <pt x="1142" y="1072" on="1"/>
        <pt x="1142" y="1057" on="0"/>
        <pt x="1121" y="1034" on="0"/>
        <pt x="1107" y="1034" on="1"/>
        <pt x="1091" y="1034" on="0"/>
        <pt x="1069" y="1057" on="0"/>
        <pt x="1069" y="1072" on="1"/>
        <pt x="1069" y="1087" on="0"/>
        <pt x="1091" y="1110" on="0"/>
        <pt x="1107" y="1110" on="1"/>
        <pt x="1121" y="1110" on="0"/>
        <pt x="1142" y="1087" on="0"/>
      </contour>
      <contour>
        <pt x="627" y="1072" on="1"/>
        <pt x="627" y="1057" on="0"/>
        <pt x="604" y="1034" on="0"/>
        <pt x="589" y="1034" on="1"/>
        <pt x="573" y="1034" on="0"/>
        <pt x="551" y="1057" on="0"/>
        <pt x="551" y="1072" on="1"/>
        <pt x="551" y="1087" on="0"/>
        <pt x="573" y="1110" on="0"/>
        <pt x="589" y="1110" on="1"/>
        <pt x="604" y="1110" on="0"/>
        <pt x="627" y="1087" on="0"/>
      </contour>
      <contour>
        <pt x="452" y="1072" on="1"/>
        <pt x="452" y="1057" on="0"/>
        <pt x="431" y="1034" on="0"/>
        <pt x="416" y="1034" on="1"/>
        <pt x="401" y="1034" on="0"/>
        <pt x="379" y="1057" on="0"/>
        <pt x="379" y="1072" on="1"/>
        <pt x="379" y="1087" on="0"/>
        <pt x="401" y="1110" on="0"/>
        <pt x="416" y="1110" on="1"/>
        <pt x="431" y="1110" on="0"/>
        <pt x="452" y="1087" on="0"/>
      </contour>
      <contour>
        <pt x="108" y="1072" on="1"/>
        <pt x="108" y="1057" on="0"/>
        <pt x="87" y="1034" on="0"/>
        <pt x="70" y="1034" on="1"/>
        <pt x="57" y="1034" on="0"/>
        <pt x="36" y="1057" on="0"/>
        <pt x="36" y="1072" on="1"/>
        <pt x="36" y="1087" on="0"/>
        <pt x="57" y="1110" on="0"/>
        <pt x="70" y="1110" on="1"/>
        <pt x="87" y="1110" on="0"/>
        <pt x="108" y="1087" on="0"/>
      </contour>
      <contour>
        <pt x="281" y="1072" on="1"/>
        <pt x="281" y="1057" on="0"/>
        <pt x="259" y="1034" on="0"/>
        <pt x="245" y="1034" on="1"/>
        <pt x="229" y="1034" on="0"/>
        <pt x="207" y="1057" on="0"/>
        <pt x="207" y="1072" on="1"/>
        <pt x="207" y="1087" on="0"/>
        <pt x="229" y="1110" on="0"/>
        <pt x="245" y="1110" on="1"/>
        <pt x="259" y="1110" on="0"/>
        <pt x="281" y="1087" on="0"/>
      </contour>
      <contour>
        <pt x="1142" y="899" on="1"/>
        <pt x="1142" y="884" on="0"/>
        <pt x="1121" y="862" on="0"/>
        <pt x="1107" y="862" on="1"/>
        <pt x="1091" y="862" on="0"/>
        <pt x="1069" y="884" on="0"/>
        <pt x="1069" y="899" on="1"/>
        <pt x="1069" y="914" on="0"/>
        <pt x="1091" y="935" on="0"/>
        <pt x="1107" y="935" on="1"/>
        <pt x="1121" y="935" on="0"/>
        <pt x="1142" y="914" on="0"/>
      </contour>
      <contour>
        <pt x="108" y="899" on="1"/>
        <pt x="108" y="884" on="0"/>
        <pt x="87" y="862" on="0"/>
        <pt x="70" y="862" on="1"/>
        <pt x="57" y="862" on="0"/>
        <pt x="36" y="884" on="0"/>
        <pt x="36" y="899" on="1"/>
        <pt x="36" y="914" on="0"/>
        <pt x="57" y="935" on="0"/>
        <pt x="70" y="935" on="1"/>
        <pt x="108" y="935" on="0"/>
      </contour>
      <contour>
        <pt x="108" y="728" on="1"/>
        <pt x="108" y="690" on="0"/>
        <pt x="70" y="690" on="1"/>
        <pt x="57" y="690" on="0"/>
        <pt x="36" y="712" on="0"/>
        <pt x="36" y="728" on="1"/>
        <pt x="36" y="742" on="0"/>
        <pt x="57" y="764" on="0"/>
        <pt x="70" y="764" on="1"/>
        <pt x="87" y="764" on="0"/>
        <pt x="108" y="742" on="0"/>
      </contour>
      <contour>
        <pt x="1142" y="728" on="1"/>
        <pt x="1142" y="712" on="0"/>
        <pt x="1121" y="690" on="0"/>
        <pt x="1107" y="690" on="1"/>
        <pt x="1091" y="690" on="0"/>
        <pt x="1069" y="712" on="0"/>
        <pt x="1069" y="728" on="1"/>
        <pt x="1069" y="742" on="0"/>
        <pt x="1091" y="764" on="0"/>
        <pt x="1107" y="764" on="1"/>
        <pt x="1121" y="764" on="0"/>
        <pt x="1142" y="742" on="0"/>
      </contour>
      <contour>
        <pt x="327" y="342" on="1"/>
        <pt x="275" y="344" on="0"/>
        <pt x="237" y="387" on="0"/>
        <pt x="237" y="423" on="1"/>
        <pt x="237" y="642" on="1"/>
        <pt x="237" y="678" on="0"/>
        <pt x="275" y="721" on="0"/>
        <pt x="327" y="722" on="1"/>
        <pt x="380" y="721" on="0"/>
        <pt x="417" y="678" on="0"/>
        <pt x="417" y="642" on="1"/>
        <pt x="417" y="423" on="1"/>
        <pt x="417" y="387" on="0"/>
        <pt x="380" y="344" on="0"/>
      </contour>
      <contour>
        <pt x="539" y="348" on="1"/>
        <pt x="528" y="348" on="0"/>
        <pt x="526" y="360" on="1"/>
        <pt x="526" y="707" on="1"/>
        <pt x="529" y="719" on="0"/>
        <pt x="539" y="719" on="1"/>
        <pt x="602" y="719" on="1"/>
        <pt x="659" y="719" on="0"/>
        <pt x="707" y="667" on="0"/>
        <pt x="707" y="629" on="1"/>
        <pt x="707" y="601" on="0"/>
        <pt x="683" y="556" on="0"/>
        <pt x="654" y="545" on="1"/>
        <pt x="686" y="532" on="0"/>
        <pt x="717" y="478" on="0"/>
        <pt x="717" y="450" on="1"/>
        <pt x="717" y="412" on="0"/>
        <pt x="659" y="348" on="0"/>
        <pt x="602" y="348" on="1"/>
      </contour>
      <contour>
        <pt x="877" y="693" on="1"/>
        <pt x="864" y="693" on="0"/>
        <pt x="864" y="706" on="1"/>
        <pt x="864" y="718" on="0"/>
        <pt x="877" y="718" on="1"/>
        <pt x="994" y="718" on="1"/>
        <pt x="1007" y="718" on="0"/>
        <pt x="1007" y="706" on="1"/>
        <pt x="1007" y="693" on="0"/>
        <pt x="994" y="693" on="1"/>
        <pt x="947" y="693" on="1"/>
        <pt x="947" y="434" on="1"/>
        <pt x="947" y="397" on="0"/>
        <pt x="896" y="342" on="0"/>
        <pt x="866" y="342" on="1"/>
        <pt x="832" y="342" on="0"/>
        <pt x="787" y="391" on="0"/>
        <pt x="787" y="449" on="1"/>
        <pt x="787" y="462" on="0"/>
        <pt x="799" y="462" on="1"/>
        <pt x="810" y="462" on="0"/>
        <pt x="810" y="448" on="1"/>
        <pt x="810" y="421" on="0"/>
        <pt x="836" y="366" on="0"/>
        <pt x="867" y="366" on="1"/>
        <pt x="892" y="366" on="0"/>
        <pt x="924" y="413" on="0"/>
        <pt x="924" y="440" on="1"/>
        <pt x="924" y="693" on="1"/>
      </contour>
      <contour>
        <pt x="327" y="699" on="1"/>
        <pt x="286" y="698" on="0"/>
        <pt x="259" y="668" on="0"/>
        <pt x="259" y="640" on="1"/>
        <pt x="259" y="422" on="1"/>
        <pt x="259" y="394" on="0"/>
        <pt x="286" y="367" on="0"/>
        <pt x="327" y="365" on="1"/>
        <pt x="368" y="367" on="0"/>
        <pt x="395" y="394" on="0"/>
        <pt x="395" y="422" on="1"/>
        <pt x="395" y="640" on="1"/>
        <pt x="395" y="668" on="0"/>
        <pt x="368" y="698" on="0"/>
      </contour>
      <contour>
        <pt x="549" y="560" on="1"/>
        <pt x="599" y="560" on="1"/>
        <pt x="647" y="560" on="0"/>
        <pt x="685" y="598" on="0"/>
        <pt x="685" y="627" on="1"/>
        <pt x="685" y="656" on="0"/>
        <pt x="647" y="696" on="0"/>
        <pt x="599" y="696" on="1"/>
        <pt x="549" y="696" on="1"/>
      </contour>
      <contour>
        <pt x="1142" y="553" on="1"/>
        <pt x="1142" y="540" on="0"/>
        <pt x="1121" y="519" on="0"/>
        <pt x="1107" y="519" on="1"/>
        <pt x="1091" y="519" on="0"/>
        <pt x="1069" y="540" on="0"/>
        <pt x="1069" y="553" on="1"/>
        <pt x="1069" y="570" on="0"/>
        <pt x="1091" y="591" on="0"/>
        <pt x="1107" y="591" on="1"/>
        <pt x="1121" y="591" on="0"/>
        <pt x="1142" y="570" on="0"/>
      </contour>
      <contour>
        <pt x="108" y="553" on="1"/>
        <pt x="108" y="540" on="0"/>
        <pt x="87" y="519" on="0"/>
        <pt x="70" y="519" on="1"/>
        <pt x="57" y="519" on="0"/>
        <pt x="36" y="540" on="0"/>
        <pt x="36" y="553" on="1"/>
        <pt x="36" y="570" on="0"/>
        <pt x="57" y="591" on="0"/>
        <pt x="70" y="591" on="1"/>
        <pt x="108" y="591" on="0"/>
      </contour>
      <contour>
        <pt x="549" y="371" on="1"/>
        <pt x="599" y="371" on="1"/>
        <pt x="647" y="371" on="0"/>
        <pt x="695" y="419" on="0"/>
        <pt x="695" y="448" on="1"/>
        <pt x="695" y="477" on="0"/>
        <pt x="647" y="533" on="0"/>
        <pt x="599" y="533" on="1"/>
        <pt x="549" y="533" on="1"/>
      </contour>
      <contour>
        <pt x="1142" y="382" on="1"/>
        <pt x="1142" y="367" on="0"/>
        <pt x="1121" y="344" on="0"/>
        <pt x="1107" y="344" on="1"/>
        <pt x="1091" y="344" on="0"/>
        <pt x="1069" y="367" on="0"/>
        <pt x="1069" y="382" on="1"/>
        <pt x="1069" y="397" on="0"/>
        <pt x="1091" y="420" on="0"/>
        <pt x="1107" y="420" on="1"/>
        <pt x="1121" y="420" on="0"/>
        <pt x="1142" y="397" on="0"/>
      </contour>
      <contour>
        <pt x="108" y="382" on="1"/>
        <pt x="108" y="367" on="0"/>
        <pt x="87" y="344" on="0"/>
        <pt x="70" y="344" on="1"/>
        <pt x="57" y="344" on="0"/>
        <pt x="36" y="367" on="0"/>
        <pt x="36" y="382" on="1"/>
        <pt x="36" y="397" on="0"/>
        <pt x="57" y="420" on="0"/>
        <pt x="70" y="420" on="1"/>
        <pt x="87" y="420" on="0"/>
        <pt x="108" y="397" on="0"/>
      </contour>
      <contour>
        <pt x="108" y="209" on="1"/>
        <pt x="108" y="194" on="0"/>
        <pt x="87" y="172" on="0"/>
        <pt x="70" y="172" on="1"/>
        <pt x="57" y="172" on="0"/>
        <pt x="36" y="194" on="0"/>
        <pt x="36" y="209" on="1"/>
        <pt x="36" y="224" on="0"/>
        <pt x="57" y="245" on="0"/>
        <pt x="70" y="245" on="1"/>
        <pt x="108" y="245" on="0"/>
      </contour>
      <contour>
        <pt x="1142" y="209" on="1"/>
        <pt x="1142" y="194" on="0"/>
        <pt x="1121" y="172" on="0"/>
        <pt x="1107" y="172" on="1"/>
        <pt x="1091" y="172" on="0"/>
        <pt x="1069" y="194" on="0"/>
        <pt x="1069" y="209" on="1"/>
        <pt x="1069" y="224" on="0"/>
        <pt x="1091" y="245" on="0"/>
        <pt x="1107" y="245" on="1"/>
        <pt x="1121" y="245" on="0"/>
        <pt x="1142" y="224" on="0"/>
      </contour>
      <contour>
        <pt x="281" y="38" on="1"/>
        <pt x="281" y="22" on="0"/>
        <pt x="259" y="0" on="0"/>
        <pt x="245" y="0" on="1"/>
        <pt x="229" y="0" on="0"/>
        <pt x="207" y="22" on="0"/>
        <pt x="207" y="38" on="1"/>
        <pt x="207" y="52" on="0"/>
        <pt x="229" y="72" on="0"/>
        <pt x="245" y="72" on="1"/>
        <pt x="259" y="72" on="0"/>
        <pt x="281" y="52" on="0"/>
      </contour>
      <contour>
        <pt x="108" y="38" on="1"/>
        <pt x="108" y="0" on="0"/>
        <pt x="70" y="0" on="1"/>
        <pt x="57" y="0" on="0"/>
        <pt x="36" y="22" on="0"/>
        <pt x="36" y="38" on="1"/>
        <pt x="36" y="52" on="0"/>
        <pt x="57" y="72" on="0"/>
        <pt x="70" y="72" on="1"/>
        <pt x="87" y="72" on="0"/>
        <pt x="108" y="52" on="0"/>
      </contour>
      <contour>
        <pt x="452" y="38" on="1"/>
        <pt x="452" y="0" on="0"/>
        <pt x="416" y="0" on="1"/>
        <pt x="401" y="0" on="0"/>
        <pt x="379" y="22" on="0"/>
        <pt x="379" y="38" on="1"/>
        <pt x="379" y="52" on="0"/>
        <pt x="401" y="72" on="0"/>
        <pt x="416" y="72" on="1"/>
        <pt x="431" y="72" on="0"/>
        <pt x="452" y="52" on="0"/>
      </contour>
      <contour>
        <pt x="627" y="38" on="1"/>
        <pt x="627" y="22" on="0"/>
        <pt x="604" y="0" on="0"/>
        <pt x="589" y="0" on="1"/>
        <pt x="573" y="0" on="0"/>
        <pt x="551" y="22" on="0"/>
        <pt x="551" y="38" on="1"/>
        <pt x="551" y="52" on="0"/>
        <pt x="573" y="72" on="0"/>
        <pt x="589" y="72" on="1"/>
        <pt x="604" y="72" on="0"/>
        <pt x="627" y="52" on="0"/>
      </contour>
      <contour>
        <pt x="798" y="38" on="1"/>
        <pt x="798" y="0" on="0"/>
        <pt x="761" y="0" on="1"/>
        <pt x="747" y="0" on="0"/>
        <pt x="726" y="22" on="0"/>
        <pt x="726" y="38" on="1"/>
        <pt x="726" y="52" on="0"/>
        <pt x="747" y="72" on="0"/>
        <pt x="761" y="72" on="1"/>
        <pt x="777" y="72" on="0"/>
        <pt x="798" y="52" on="0"/>
      </contour>
      <contour>
        <pt x="971" y="38" on="1"/>
        <pt x="971" y="22" on="0"/>
        <pt x="948" y="0" on="0"/>
        <pt x="933" y="0" on="1"/>
        <pt x="919" y="0" on="0"/>
        <pt x="897" y="22" on="0"/>
        <pt x="897" y="38" on="1"/>
        <pt x="897" y="52" on="0"/>
        <pt x="919" y="72" on="0"/>
        <pt x="933" y="72" on="1"/>
        <pt x="948" y="72" on="0"/>
        <pt x="971" y="52" on="0"/>
      </contour>
      <contour>
        <pt x="1142" y="38" on="1"/>
        <pt x="1142" y="22" on="0"/>
        <pt x="1121" y="0" on="0"/>
        <pt x="1107" y="0" on="1"/>
        <pt x="1091" y="0" on="0"/>
        <pt x="1069" y="22" on="0"/>
        <pt x="1069" y="38" on="1"/>
        <pt x="1069" y="52" on="0"/>
        <pt x="1091" y="72" on="0"/>
        <pt x="1107" y="72" on="1"/>
        <pt x="1121" y="72" on="0"/>
        <pt x="1142" y="52" on="0"/>
      </contour>
    </TTGlyph>
    <TTGlyph name="Ocircumflex" xMin="71" yMin="-32" xMax="1400" yMax="1819">
      <component glyphName="O" x="0" y="0" flags="0x204"/>
      <component glyphName="uni0302" x="1243" y="432" flags="0x4"/>
    </TTGlyph>
    <TTGlyph name="Odieresis" xMin="71" yMin="-32" xMax="1400" yMax="1766">
      <component glyphName="O" x="0" y="0" flags="0x204"/>
      <component glyphName="uni0308" x="1249" y="435" flags="0x4"/>
    </TTGlyph>
    <TTGlyph name="Ogonek" xMin="197" yMin="-277" xMax="527" yMax="100">
      <contour>
        <pt x="527" y="-174" on="1"/>
        <pt x="493" y="-208" on="0"/>
        <pt x="406" y="-277" on="0"/>
        <pt x="340" y="-277" on="1"/>
        <pt x="276" y="-277" on="0"/>
        <pt x="197" y="-193" on="0"/>
        <pt x="197" y="-135" on="1"/>
        <pt x="197" y="-64" on="0"/>
        <pt x="273" y="52" on="0"/>
        <pt x="360" y="100" on="1"/>
        <pt x="437" y="100" on="1"/>
        <pt x="401" y="78" on="0"/>
        <pt x="313" y="-25" on="0"/>
        <pt x="313" y="-99" on="1"/>
        <pt x="313" y="-127" on="0"/>
        <pt x="354" y="-184" on="0"/>
        <pt x="389" y="-184" on="1"/>
        <pt x="419" y="-184" on="0"/>
        <pt x="492" y="-152" on="0"/>
        <pt x="527" y="-120" on="1"/>
      </contour>
    </TTGlyph>
    <TTGlyph name="Ograve" xMin="71" yMin="-32" xMax="1400" yMax="1826">
      <component glyphName="O" x="0" y="0" flags="0x4"/>
      <component glyphName="gravecomb" x="1243" y="430" flags="0x4"/>
    </TTGlyph>
    <TTGlyph name="Oslash" xMin="71" yMin="-47" xMax="1400" yMax="1400">
      <contour>
        <pt x="751" y="1389" on="1"/>
        <pt x="865" y="1389" on="0"/>
        <pt x="1069" y="1313" on="0"/>
        <pt x="1151" y="1243" on="1"/>
        <pt x="1280" y="1400" on="1"/>
        <pt x="1340" y="1357" on="1"/>
        <pt x="1205" y="1191" on="1"/>
        <pt x="1295" y="1098" on="0"/>
        <pt x="1400" y="839" on="0"/>
        <pt x="1400" y="687" on="1"/>
        <pt x="1400" y="533" on="0"/>
        <pt x="1299" y="271" on="0"/>
        <pt x="1118" y="76" on="0"/>
        <pt x="876" y="-32" on="0"/>
        <pt x="734" y="-32" on="1"/>
        <pt x="501" y="-32" on="0"/>
        <pt x="327" y="107" on="1"/>
        <pt x="201" y="-47" on="1"/>
        <pt x="141" y="0" on="1"/>
        <pt x="270" y="158" on="1"/>
        <pt x="177" y="253" on="0"/>
        <pt x="71" y="520" on="0"/>
        <pt x="71" y="682" on="1"/>
        <pt x="71" y="835" on="0"/>
        <pt x="174" y="1093" on="0"/>
        <pt x="359" y="1284" on="0"/>
        <pt x="607" y="1389" on="0"/>
      </contour>
      <contour>
        <pt x="729" y="1318" on="1"/>
        <pt x="526" y="1318" on="0"/>
        <pt x="301" y="981" on="0"/>
        <pt x="301" y="689" on="1"/>
        <pt x="301" y="577" on="0"/>
        <pt x="335" y="382" on="0"/>
        <pt x="375" y="287" on="1"/>
        <pt x="1067" y="1140" on="1"/>
        <pt x="951" y="1317" on="0"/>
      </contour>
      <contour>
        <pt x="731" y="39" on="1"/>
        <pt x="926" y="39" on="0"/>
        <pt x="1172" y="340" on="0"/>
        <pt x="1174" y="660" on="1"/>
        <pt x="1175" y="777" on="0"/>
        <pt x="1145" y="970" on="0"/>
        <pt x="1105" y="1068" on="1"/>
        <pt x="413" y="215" on="1"/>
        <pt x="469" y="131" on="0"/>
        <pt x="630" y="40" on="0"/>
      </contour>
    </TTGlyph>
    <TTGlyph name="Otilde" xMin="71" yMin="-32" xMax="1400" yMax="1782">
      <component glyphName="O" x="0" y="0" flags="0x204"/>
      <component glyphName="tildecomb" x="1250" y="438" flags="0x4"/>
    </TTGlyph>
    <TTGlyph name="P" xMin="36" yMin="0" xMax="1068" yMax="1357">
      <contour>
        <pt x="1068" y="982" on="1"/>
        <pt x="1068" y="879" on="0"/>
        <pt x="980" y="707" on="0"/>
        <pt x="773" y="606" on="0"/>
        <pt x="593" y="607" on="1"/>
        <pt x="559" y="607" on="1"/>
        <pt x="535" y="607" on="0"/>
        <pt x="479" y="611" on="0"/>
        <pt x="420" y="618" on="1"/>
        <pt x="420" y="241" on="1"/>
        <pt x="420" y="177" on="0"/>
        <pt x="432" y="97" on="0"/>
        <pt x="450" y="83" on="1"/>
        <pt x="488" y="38" on="0"/>
        <pt x="565" y="38" on="1"/>
        <pt x="615" y="38" on="1"/>
        <pt x="615" y="0" on="1"/>
        <pt x="36" y="0" on="1"/>
        <pt x="36" y="38" on="1"/>
        <pt x="85" y="38" on="1"/>
        <pt x="172" y="38" on="0"/>
        <pt x="207" y="92" on="1"/>
        <pt x="215" y="108" on="0"/>
        <pt x="227" y="181" on="0"/>
        <pt x="227" y="241" on="1"/>
        <pt x="227" y="1118" on="1"/>
        <pt x="227" y="1243" on="0"/>
        <pt x="201" y="1278" on="1"/>
        <pt x="159" y="1320" on="0"/>
        <pt x="85" y="1320" on="1"/>
        <pt x="36" y="1320" on="1"/>
        <pt x="36" y="1357" on="1"/>
        <pt x="530" y="1357" on="1"/>
        <pt x="636" y="1357" on="0"/>
        <pt x="842" y="1325" on="0"/>
        <pt x="912" y="1272" on="1"/>
        <pt x="979" y="1223" on="0"/>
        <pt x="1068" y="1087" on="0"/>
      </contour>
      <contour>
        <pt x="839" y="961" on="1"/>
        <pt x="842" y="1044" on="0"/>
        <pt x="777" y="1189" on="0"/>
        <pt x="647" y="1278" on="0"/>
        <pt x="551" y="1278" on="1"/>
        <pt x="527" y="1278" on="0"/>
        <pt x="461" y="1266" on="0"/>
        <pt x="420" y="1258" on="1"/>
        <pt x="420" y="684" on="1"/>
        <pt x="473" y="676" on="0"/>
        <pt x="554" y="673" on="0"/>
        <pt x="583" y="673" on="1"/>
        <pt x="688" y="673" on="0"/>
        <pt x="837" y="830" on="0"/>
      </contour>
    </TTGlyph>
    <TTGlyph name="Q" xMin="71" yMin="-402" xMax="1402" yMax="1389">
      <contour>
        <pt x="1402" y="678" on="1"/>
        <pt x="1402" y="512" on="0"/>
        <pt x="1276" y="232" on="0"/>
        <pt x="1052" y="33" on="0"/>
        <pt x="904" y="-13" on="1"/>
        <pt x="1002" y="-186" on="0"/>
        <pt x="1240" y="-357" on="0"/>
        <pt x="1395" y="-369" on="1"/>
        <pt x="1395" y="-402" on="1"/>
        <pt x="1233" y="-395" on="0"/>
        <pt x="914" y="-282" on="0"/>
        <pt x="646" y="-109" on="0"/>
        <pt x="558" y="-13" on="1"/>
        <pt x="379" y="50" on="0"/>
        <pt x="165" y="264" on="0"/>
        <pt x="71" y="535" on="0"/>
        <pt x="71" y="681" on="1"/>
        <pt x="71" y="834" on="0"/>
        <pt x="174" y="1093" on="0"/>
        <pt x="359" y="1284" on="0"/>
        <pt x="605" y="1389" on="0"/>
        <pt x="747" y="1389" on="1"/>
        <pt x="882" y="1389" on="0"/>
        <pt x="1119" y="1284" on="0"/>
        <pt x="1300" y="1094" on="0"/>
        <pt x="1402" y="834" on="0"/>
      </contour>
      <contour>
        <pt x="1174" y="653" on="1"/>
        <pt x="1174" y="855" on="0"/>
        <pt x="1073" y="1151" on="0"/>
        <pt x="877" y="1313" on="0"/>
        <pt x="734" y="1313" on="1"/>
        <pt x="533" y="1313" on="0"/>
        <pt x="301" y="991" on="0"/>
        <pt x="301" y="681" on="1"/>
        <pt x="301" y="490" on="0"/>
        <pt x="400" y="200" on="0"/>
        <pt x="594" y="38" on="0"/>
        <pt x="734" y="38" on="1"/>
        <pt x="943" y="36" on="0"/>
        <pt x="1174" y="366" on="0"/>
      </contour>
    </TTGlyph>
    <TTGlyph name="R" xMin="36" yMin="0" xMax="1387" yMax="1357">
      <contour>
        <pt x="1387" y="0" on="1"/>
        <pt x="1023" y="0" on="1"/>
        <pt x="565" y="635" on="1"/>
        <pt x="537" y="634" on="0"/>
        <pt x="497" y="630" on="0"/>
        <pt x="481" y="630" on="1"/>
        <pt x="466" y="630" on="0"/>
        <pt x="437" y="631" on="0"/>
        <pt x="420" y="635" on="1"/>
        <pt x="420" y="241" on="1"/>
        <pt x="420" y="112" on="0"/>
        <pt x="450" y="83" on="1"/>
        <pt x="488" y="38" on="0"/>
        <pt x="565" y="38" on="1"/>
        <pt x="618" y="38" on="1"/>
        <pt x="618" y="0" on="1"/>
        <pt x="36" y="0" on="1"/>
        <pt x="36" y="38" on="1"/>
        <pt x="87" y="38" on="1"/>
        <pt x="175" y="38" on="0"/>
        <pt x="209" y="92" on="1"/>
        <pt x="229" y="124" on="0"/>
        <pt x="229" y="241" on="1"/>
        <pt x="229" y="1118" on="1"/>
        <pt x="229" y="1244" on="0"/>
        <pt x="204" y="1278" on="1"/>
        <pt x="159" y="1320" on="0"/>
        <pt x="87" y="1320" on="1"/>
        <pt x="36" y="1320" on="1"/>
        <pt x="36" y="1357" on="1"/>
        <pt x="528" y="1357" on="1"/>
        <pt x="637" y="1357" on="0"/>
        <pt x="798" y="1342" on="0"/>
        <pt x="850" y="1325" on="1"/>
        <pt x="954" y="1291" on="0"/>
        <pt x="1095" y="1125" on="0"/>
        <pt x="1095" y="1011" on="1"/>
        <pt x="1095" y="883" on="0"/>
        <pt x="931" y="701" on="0"/>
        <pt x="761" y="660" on="1"/>
        <pt x="1038" y="270" on="1"/>
        <pt x="1100" y="184" on="0"/>
        <pt x="1202" y="89" on="0"/>
        <pt x="1313" y="46" on="0"/>
        <pt x="1387" y="38" on="1"/>
      </contour>
      <contour>
        <pt x="869" y="994" on="1"/>
        <pt x="869" y="1120" on="0"/>
        <pt x="711" y="1281" on="0"/>
        <pt x="577" y="1281" on="1"/>
        <pt x="523" y="1281" on="0"/>
        <pt x="420" y="1265" on="1"/>
        <pt x="420" y="698" on="1"/>
        <pt x="477" y="698" on="1"/>
        <pt x="677" y="698" on="0"/>
        <pt x="869" y="866" on="0"/>
      </contour>
    </TTGlyph>
    <TTGlyph name="ReplChar" xMin="114" yMin="-139" xMax="1687" yMax="1442">
      <contour>
        <pt x="898" y="1442" on="1"/>
        <pt x="1687" y="650" on="1"/>
        <pt x="898" y="-139" on="1"/>
        <pt x="114" y="650" on="1"/>
      </contour>
      <contour>
        <pt x="1188" y="923" on="1"/>
        <pt x="1188" y="1033" on="0"/>
        <pt x="1033" y="1158" on="0"/>
        <pt x="914" y="1158" on="1"/>
        <pt x="787" y="1158" on="0"/>
        <pt x="653" y="1028" on="0"/>
        <pt x="653" y="946" on="1"/>
        <pt x="653" y="899" on="0"/>
        <pt x="684" y="848" on="0"/>
        <pt x="722" y="829" on="0"/>
        <pt x="731" y="829" on="1"/>
        <pt x="751" y="829" on="0"/>
        <pt x="792" y="863" on="0"/>
        <pt x="792" y="894" on="1"/>
        <pt x="792" y="916" on="0"/>
        <pt x="757" y="989" on="0"/>
        <pt x="757" y="1017" on="1"/>
        <pt x="757" y="1052" on="0"/>
        <pt x="812" y="1102" on="0"/>
        <pt x="882" y="1102" on="1"/>
        <pt x="921" y="1102" on="0"/>
        <pt x="999" y="1069" on="0"/>
        <pt x="1051" y="988" on="0"/>
        <pt x="1051" y="915" on="1"/>
        <pt x="1051" y="857" on="0"/>
        <pt x="1007" y="733" on="0"/>
        <pt x="984" y="696" on="1"/>
        <pt x="936" y="617" on="0"/>
        <pt x="875" y="463" on="0"/>
        <pt x="869" y="375" on="1"/>
        <pt x="935" y="375" on="1"/>
        <pt x="938" y="444" on="0"/>
        <pt x="968" y="533" on="0"/>
        <pt x="1029" y="618" on="0"/>
        <pt x="1078" y="680" on="1"/>
        <pt x="1110" y="720" on="0"/>
        <pt x="1188" y="841" on="0"/>
      </contour>
      <contour>
        <pt x="986" y="207" on="1"/>
        <pt x="986" y="242" on="0"/>
        <pt x="936" y="290" on="0"/>
        <pt x="907" y="290" on="1"/>
        <pt x="873" y="290" on="0"/>
        <pt x="822" y="240" on="0"/>
        <pt x="822" y="207" on="1"/>
        <pt x="822" y="166" on="0"/>
        <pt x="875" y="125" on="0"/>
        <pt x="907" y="125" on="1"/>
        <pt x="935" y="125" on="0"/>
        <pt x="986" y="166" on="0"/>
      </contour>
    </TTGlyph>
    <TTGlyph name="RingAbv" xMin="0" yMin="1198" xMax="439" yMax="1639">
      <contour>
        <pt x="439" y="1419" on="1"/>
        <pt x="439" y="1353" on="0"/>
        <pt x="376" y="1254" on="0"/>
        <pt x="277" y="1198" on="0"/>
        <pt x="222" y="1198" on="1"/>
        <pt x="168" y="1198" on="0"/>
        <pt x="66" y="1254" on="0"/>
        <pt x="0" y="1353" on="0"/>
        <pt x="0" y="1419" on="1"/>
        <pt x="0" y="1517" on="0"/>
        <pt x="133" y="1639" on="0"/>
        <pt x="222" y="1639" on="1"/>
        <pt x="277" y="1639" on="0"/>
        <pt x="376" y="1586" on="0"/>
        <pt x="439" y="1487" on="0"/>
      </contour>
      <contour>
        <pt x="361" y="1419" on="1"/>
        <pt x="361" y="1482" on="0"/>
        <pt x="275" y="1559" on="0"/>
        <pt x="222" y="1559" on="1"/>
        <pt x="164" y="1559" on="0"/>
        <pt x="79" y="1482" on="0"/>
        <pt x="79" y="1419" on="1"/>
        <pt x="79" y="1353" on="0"/>
        <pt x="167" y="1279" on="0"/>
        <pt x="222" y="1279" on="1"/>
        <pt x="280" y="1279" on="0"/>
        <pt x="361" y="1362" on="0"/>
      </contour>
    </TTGlyph>
    <TTGlyph name="S" xMin="130" yMin="-32" xMax="1032" yMax="1389">
      <contour>
        <pt x="1032" y="346" on="1"/>
        <pt x="1032" y="243" on="0"/>
        <pt x="921" y="71" on="0"/>
        <pt x="728" y="-32" on="0"/>
        <pt x="604" y="-32" on="1"/>
        <pt x="511" y="-32" on="0"/>
        <pt x="370" y="7" on="0"/>
        <pt x="270" y="46" on="0"/>
        <pt x="238" y="46" on="1"/>
        <pt x="214" y="46" on="0"/>
        <pt x="184" y="11" on="0"/>
        <pt x="177" y="-32" on="1"/>
        <pt x="141" y="-32" on="1"/>
        <pt x="141" y="435" on="1"/>
        <pt x="177" y="435" on="1"/>
        <pt x="195" y="294" on="0"/>
        <pt x="314" y="124" on="0"/>
        <pt x="485" y="47" on="0"/>
        <pt x="581" y="47" on="1"/>
        <pt x="706" y="47" on="0"/>
        <pt x="852" y="180" on="0"/>
        <pt x="852" y="269" on="1"/>
        <pt x="852" y="337" on="0"/>
        <pt x="788" y="431" on="0"/>
        <pt x="645" y="526" on="0"/>
        <pt x="526" y="593" on="1"/>
        <pt x="364" y="684" on="0"/>
        <pt x="193" y="817" on="0"/>
        <pt x="130" y="948" on="0"/>
        <pt x="130" y="1032" on="1"/>
        <pt x="130" y="1128" on="0"/>
        <pt x="227" y="1290" on="0"/>
        <pt x="405" y="1389" on="0"/>
        <pt x="526" y="1389" on="1"/>
        <pt x="604" y="1389" on="0"/>
        <pt x="723" y="1351" on="0"/>
        <pt x="810" y="1312" on="0"/>
        <pt x="838" y="1312" on="1"/>
        <pt x="861" y="1312" on="0"/>
        <pt x="892" y="1345" on="0"/>
        <pt x="904" y="1389" on="1"/>
        <pt x="941" y="1389" on="1"/>
        <pt x="941" y="919" on="1"/>
        <pt x="904" y="919" on="1"/>
        <pt x="884" y="1109" on="0"/>
        <pt x="670" y="1310" on="0"/>
        <pt x="527" y="1310" on="1"/>
        <pt x="461" y="1310" on="0"/>
        <pt x="353" y="1252" on="0"/>
        <pt x="289" y="1157" on="0"/>
        <pt x="289" y="1101" on="1"/>
        <pt x="289" y="1047" on="0"/>
        <pt x="345" y="959" on="0"/>
        <pt x="492" y="860" on="0"/>
        <pt x="626" y="787" on="1"/>
        <pt x="722" y="735" on="0"/>
        <pt x="850" y="655" on="0"/>
        <pt x="885" y="628" on="1"/>
        <pt x="954" y="577" on="0"/>
        <pt x="1032" y="430" on="0"/>
      </contour>
    </TTGlyph>
    <TTGlyph name="Scaron" xMin="130" yMin="-32" xMax="1032" yMax="1819">
      <component glyphName="S" x="0" y="0" flags="0x204"/>
      <component glyphName="uni030C" x="1090" y="432" flags="0x4"/>
    </TTGlyph>
    <TTGlyph name="T" xMin="49" yMin="0" xMax="1201" yMax="1357">
      <contour>
        <pt x="1201" y="1038" on="1"/>
        <pt x="1158" y="1038" on="1"/>
        <pt x="1148" y="1112" on="0"/>
        <pt x="1118" y="1183" on="0"/>
        <pt x="1095" y="1206" on="1"/>
        <pt x="1063" y="1241" on="0"/>
        <pt x="977" y="1274" on="0"/>
        <pt x="910" y="1274" on="1"/>
        <pt x="718" y="1274" on="1"/>
        <pt x="718" y="237" on="1"/>
        <pt x="718" y="114" on="0"/>
        <pt x="745" y="79" on="1"/>
        <pt x="781" y="38" on="0"/>
        <pt x="861" y="38" on="1"/>
        <pt x="910" y="38" on="1"/>
        <pt x="910" y="0" on="1"/>
        <pt x="333" y="0" on="1"/>
        <pt x="333" y="38" on="1"/>
        <pt x="382" y="38" on="1"/>
        <pt x="466" y="38" on="0"/>
        <pt x="504" y="90" on="1"/>
        <pt x="514" y="106" on="0"/>
        <pt x="526" y="177" on="0"/>
        <pt x="526" y="237" on="1"/>
        <pt x="526" y="1274" on="1"/>
        <pt x="363" y="1274" on="1"/>
        <pt x="283" y="1274" on="0"/>
        <pt x="207" y="1256" on="0"/>
        <pt x="179" y="1230" on="1"/>
        <pt x="106" y="1176" on="0"/>
        <pt x="94" y="1038" on="1"/>
        <pt x="49" y="1038" on="1"/>
        <pt x="64" y="1357" on="1"/>
        <pt x="1189" y="1357" on="1"/>
      </contour>
    </TTGlyph>
    <TTGlyph name="Thorn" xMin="38" yMin="0" xMax="1063" yMax="1357">
      <contour>
        <pt x="1063" y="681" on="1"/>
        <pt x="1063" y="606" on="0"/>
        <pt x="1004" y="475" on="0"/>
        <pt x="954" y="425" on="1"/>
        <pt x="919" y="390" on="0"/>
        <pt x="826" y="336" on="0"/>
        <pt x="651" y="305" on="0"/>
        <pt x="491" y="305" on="1"/>
        <pt x="420" y="305" on="1"/>
        <pt x="420" y="244" on="1"/>
        <pt x="420" y="116" on="0"/>
        <pt x="455" y="75" on="1"/>
        <pt x="491" y="38" on="0"/>
        <pt x="574" y="38" on="1"/>
        <pt x="615" y="38" on="1"/>
        <pt x="615" y="0" on="1"/>
        <pt x="38" y="0" on="1"/>
        <pt x="38" y="38" on="1"/>
        <pt x="74" y="38" on="1"/>
        <pt x="169" y="38" on="0"/>
        <pt x="207" y="92" on="1"/>
        <pt x="227" y="123" on="0"/>
        <pt x="227" y="241" on="1"/>
        <pt x="227" y="1111" on="1"/>
        <pt x="227" y="1222" on="0"/>
        <pt x="215" y="1248" on="1"/>
        <pt x="207" y="1278" on="0"/>
        <pt x="131" y="1320" on="0"/>
        <pt x="75" y="1320" on="1"/>
        <pt x="38" y="1320" on="1"/>
        <pt x="38" y="1357" on="1"/>
        <pt x="615" y="1357" on="1"/>
        <pt x="615" y="1320" on="1"/>
        <pt x="574" y="1320" on="1"/>
        <pt x="541" y="1320" on="0"/>
        <pt x="451" y="1289" on="0"/>
        <pt x="438" y="1248" on="1"/>
        <pt x="427" y="1215" on="0"/>
        <pt x="420" y="1165" on="0"/>
        <pt x="420" y="1115" on="1"/>
        <pt x="420" y="1050" on="1"/>
        <pt x="496" y="1050" on="1"/>
        <pt x="616" y="1050" on="0"/>
        <pt x="762" y="1035" on="0"/>
        <pt x="857" y="1001" on="0"/>
        <pt x="899" y="973" on="1"/>
        <pt x="968" y="926" on="0"/>
        <pt x="1063" y="779" on="0"/>
      </contour>
      <contour>
        <pt x="830" y="678" on="1"/>
        <pt x="830" y="751" on="0"/>
        <pt x="772" y="874" on="0"/>
        <pt x="718" y="914" on="1"/>
        <pt x="692" y="933" on="0"/>
        <pt x="647" y="959" on="0"/>
        <pt x="559" y="973" on="0"/>
        <pt x="467" y="973" on="1"/>
        <pt x="420" y="973" on="1"/>
        <pt x="420" y="374" on="1"/>
        <pt x="466" y="374" on="1"/>
        <pt x="599" y="374" on="0"/>
        <pt x="758" y="454" on="0"/>
        <pt x="830" y="592" on="0"/>
      </contour>
    </TTGlyph>
    <TTGlyph name="U" xMin="30" yMin="-32" xMax="1459" yMax="1357">
      <contour>
        <pt x="1459" y="1320" on="1"/>
        <pt x="1408" y="1320" on="1"/>
        <pt x="1331" y="1320" on="0"/>
        <pt x="1286" y="1251" on="1"/>
        <pt x="1265" y="1226" on="0"/>
        <pt x="1265" y="1111" on="1"/>
        <pt x="1265" y="558" on="1"/>
        <pt x="1265" y="418" on="0"/>
        <pt x="1216" y="194" on="0"/>
        <pt x="1145" y="118" on="1"/>
        <pt x="1073" y="40" on="0"/>
        <pt x="888" y="-32" on="0"/>
        <pt x="739" y="-32" on="1"/>
        <pt x="573" y="-32" on="0"/>
        <pt x="367" y="53" on="0"/>
        <pt x="257" y="193" on="0"/>
        <pt x="213" y="358" on="0"/>
        <pt x="207" y="521" on="0"/>
        <pt x="207" y="585" on="1"/>
        <pt x="207" y="1118" on="1"/>
        <pt x="207" y="1245" on="0"/>
        <pt x="174" y="1281" on="1"/>
        <pt x="146" y="1320" on="0"/>
        <pt x="61" y="1320" on="1"/>
        <pt x="30" y="1320" on="1"/>
        <pt x="30" y="1357" on="1"/>
        <pt x="577" y="1357" on="1"/>
        <pt x="577" y="1320" on="1"/>
        <pt x="527" y="1320" on="1"/>
        <pt x="485" y="1320" on="0"/>
        <pt x="443" y="1295" on="0"/>
        <pt x="425" y="1267" on="1"/>
        <pt x="414" y="1248" on="0"/>
        <pt x="400" y="1174" on="0"/>
        <pt x="400" y="1118" on="1"/>
        <pt x="400" y="526" on="1"/>
        <pt x="400" y="459" on="0"/>
        <pt x="415" y="297" on="0"/>
        <pt x="479" y="149" on="0"/>
        <pt x="624" y="53" on="0"/>
        <pt x="753" y="53" on="1"/>
        <pt x="876" y="53" on="0"/>
        <pt x="1041" y="141" on="0"/>
        <pt x="1079" y="175" on="1"/>
        <pt x="1121" y="215" on="0"/>
        <pt x="1162" y="341" on="0"/>
        <pt x="1174" y="473" on="0"/>
        <pt x="1174" y="520" on="1"/>
        <pt x="1174" y="1118" on="1"/>
        <pt x="1174" y="1243" on="0"/>
        <pt x="1145" y="1278" on="1"/>
        <pt x="1105" y="1320" on="0"/>
        <pt x="1029" y="1320" on="1"/>
        <pt x="979" y="1320" on="1"/>
        <pt x="979" y="1357" on="1"/>
        <pt x="1459" y="1357" on="1"/>
      </contour>
    </TTGlyph>
    <TTGlyph name="Uacute" xMin="30" yMin="-32" xMax="1459" yMax="1826">
      <component glyphName="U" x="0" y="0" flags="0x204"/>
      <component glyphName="acutecomb" x="1260" y="430" flags="0x4"/>
    </TTGlyph>
    <TTGlyph name="Ucircumflex" xMin="30" yMin="-32" xMax="1459" yMax="1817">
      <component glyphName="U" x="0" y="0" flags="0x204"/>
      <component glyphName="uni0302" x="1257" y="430" flags="0x4"/>
    </TTGlyph>
    <TTGlyph name="Udieresis" xMin="30" yMin="-32" xMax="1459" yMax="1767">
      <component glyphName="U" x="0" y="0" flags="0x204"/>
      <component glyphName="uni0308" x="1260" y="436" flags="0x4"/>
    </TTGlyph>
    <TTGlyph name="Ugrave" xMin="31" yMin="-32" xMax="1460" yMax="1826">
      <component glyphName="U" x="1" y="0" flags="0x4"/>
      <component glyphName="gravecomb" x="1257" y="430" flags="0x4"/>
    </TTGlyph>
    <TTGlyph name="V" xMin="17" yMin="-32" xMax="1455" yMax="1357">
      <contour>
        <pt x="1455" y="1357" on="1"/>
        <pt x="1455" y="1320" on="1"/>
        <pt x="1381" y="1312" on="0"/>
        <pt x="1347" y="1275" on="1"/>
        <pt x="1295" y="1227" on="0"/>
        <pt x="1251" y="1126" on="1"/>
        <pt x="780" y="-32" on="1"/>
        <pt x="742" y="-32" on="1"/>
        <pt x="235" y="1140" on="1"/>
        <pt x="211" y="1198" on="0"/>
        <pt x="181" y="1250" on="0"/>
        <pt x="158" y="1271" on="0"/>
        <pt x="146" y="1280" on="1"/>
        <pt x="123" y="1297" on="0"/>
        <pt x="66" y="1317" on="0"/>
        <pt x="17" y="1320" on="1"/>
        <pt x="17" y="1357" on="1"/>
        <pt x="573" y="1357" on="1"/>
        <pt x="573" y="1320" on="1"/>
        <pt x="458" y="1313" on="0"/>
        <pt x="435" y="1272" on="1"/>
        <pt x="416" y="1245" on="0"/>
        <pt x="434" y="1150" on="0"/>
        <pt x="467" y="1073" on="1"/>
        <pt x="814" y="276" on="1"/>
        <pt x="1135" y="1065" on="1"/>
        <pt x="1164" y="1140" on="0"/>
        <pt x="1188" y="1232" on="0"/>
        <pt x="1172" y="1258" on="1"/>
        <pt x="1161" y="1275" on="0"/>
        <pt x="1111" y="1308" on="0"/>
        <pt x="1037" y="1320" on="1"/>
        <pt x="1037" y="1357" on="1"/>
      </contour>
    </TTGlyph>
    <TTGlyph name="W" xMin="28" yMin="-32" xMax="1919" yMax="1357">
      <contour>
        <pt x="1919" y="1357" on="1"/>
        <pt x="1919" y="1320" on="1"/>
        <pt x="1873" y="1320" on="0"/>
        <pt x="1802" y="1287" on="0"/>
        <pt x="1771" y="1230" on="1"/>
        <pt x="1762" y="1213" on="0"/>
        <pt x="1727" y="1130" on="0"/>
        <pt x="1705" y="1065" on="1"/>
        <pt x="1328" y="-32" on="1"/>
        <pt x="1288" y="-32" on="1"/>
        <pt x="981" y="835" on="1"/>
        <pt x="673" y="-32" on="1"/>
        <pt x="635" y="-32" on="1"/>
        <pt x="233" y="1097" on="1"/>
        <pt x="206" y="1171" on="0"/>
        <pt x="179" y="1242" on="0"/>
        <pt x="162" y="1270" on="0"/>
        <pt x="149" y="1278" on="1"/>
        <pt x="118" y="1320" on="0"/>
        <pt x="28" y="1320" on="1"/>
        <pt x="28" y="1357" on="1"/>
        <pt x="528" y="1357" on="1"/>
        <pt x="528" y="1320" on="1"/>
        <pt x="504" y="1320" on="1"/>
        <pt x="431" y="1320" on="0"/>
        <pt x="408" y="1275" on="1"/>
        <pt x="402" y="1262" on="0"/>
        <pt x="398" y="1228" on="0"/>
        <pt x="417" y="1154" on="0"/>
        <pt x="443" y="1079" on="1"/>
        <pt x="707" y="316" on="1"/>
        <pt x="934" y="964" on="1"/>
        <pt x="923" y="1001" on="0"/>
        <pt x="899" y="1071" on="0"/>
        <pt x="885" y="1104" on="1"/>
        <pt x="863" y="1160" on="0"/>
        <pt x="811" y="1266" on="0"/>
        <pt x="782" y="1288" on="1"/>
        <pt x="762" y="1304" on="0"/>
        <pt x="715" y="1320" on="0"/>
        <pt x="673" y="1320" on="1"/>
        <pt x="673" y="1357" on="1"/>
        <pt x="1201" y="1357" on="1"/>
        <pt x="1201" y="1320" on="1"/>
        <pt x="1166" y="1320" on="1"/>
        <pt x="1058" y="1320" on="0"/>
        <pt x="1058" y="1233" on="1"/>
        <pt x="1058" y="1205" on="0"/>
        <pt x="1078" y="1119" on="0"/>
        <pt x="1101" y="1056" on="1"/>
        <pt x="1363" y="316" on="1"/>
        <pt x="1620" y="1065" on="1"/>
        <pt x="1651" y="1157" on="0"/>
        <pt x="1670" y="1248" on="0"/>
        <pt x="1649" y="1278" on="1"/>
        <pt x="1630" y="1304" on="0"/>
        <pt x="1562" y="1320" on="0"/>
        <pt x="1515" y="1320" on="1"/>
        <pt x="1515" y="1357" on="1"/>
      </contour>
    </TTGlyph>
    <TTGlyph name="X" xMin="13" yMin="0" xMax="1455" yMax="1357">
      <contour>
        <pt x="1455" y="0" on="1"/>
        <pt x="874" y="0" on="1"/>
        <pt x="874" y="38" on="1"/>
        <pt x="969" y="38" on="0"/>
        <pt x="994" y="75" on="1"/>
        <pt x="1008" y="96" on="0"/>
        <pt x="1011" y="131" on="0"/>
        <pt x="981" y="191" on="0"/>
        <pt x="943" y="248" on="1"/>
        <pt x="713" y="598" on="1"/>
        <pt x="427" y="233" on="1"/>
        <pt x="387" y="182" on="0"/>
        <pt x="367" y="139" on="0"/>
        <pt x="367" y="115" on="1"/>
        <pt x="367" y="84" on="0"/>
        <pt x="418" y="40" on="0"/>
        <pt x="497" y="38" on="1"/>
        <pt x="497" y="0" on="1"/>
        <pt x="13" y="0" on="1"/>
        <pt x="13" y="38" on="1"/>
        <pt x="103" y="40" on="0"/>
        <pt x="279" y="177" on="0"/>
        <pt x="348" y="262" on="1"/>
        <pt x="670" y="668" on="1"/>
        <pt x="402" y="1061" on="1"/>
        <pt x="333" y="1164" on="0"/>
        <pt x="220" y="1274" on="0"/>
        <pt x="110" y="1318" on="0"/>
        <pt x="43" y="1320" on="1"/>
        <pt x="43" y="1357" on="1"/>
        <pt x="670" y="1357" on="1"/>
        <pt x="670" y="1320" on="1"/>
        <pt x="592" y="1319" on="0"/>
        <pt x="560" y="1294" on="1"/>
        <pt x="530" y="1268" on="0"/>
        <pt x="531" y="1208" on="0"/>
        <pt x="577" y="1136" on="1"/>
        <pt x="787" y="825" on="1"/>
        <pt x="1027" y="1130" on="1"/>
        <pt x="1113" y="1236" on="0"/>
        <pt x="1079" y="1281" on="1"/>
        <pt x="1066" y="1300" on="0"/>
        <pt x="1016" y="1320" on="0"/>
        <pt x="943" y="1320" on="1"/>
        <pt x="943" y="1357" on="1"/>
        <pt x="1426" y="1357" on="1"/>
        <pt x="1426" y="1320" on="1"/>
        <pt x="1353" y="1318" on="0"/>
        <pt x="1254" y="1268" on="0"/>
        <pt x="1167" y="1171" on="0"/>
        <pt x="1109" y="1097" on="1"/>
        <pt x="835" y="753" on="1"/>
        <pt x="1127" y="319" on="1"/>
        <pt x="1189" y="228" on="0"/>
        <pt x="1274" y="118" on="0"/>
        <pt x="1342" y="62" on="0"/>
        <pt x="1411" y="41" on="0"/>
        <pt x="1455" y="38" on="1"/>
      </contour>
    </TTGlyph>
    <TTGlyph name="Y" xMin="17" yMin="0" xMax="1450" yMax="1357">
      <contour>
        <pt x="1450" y="1320" on="1"/>
        <pt x="1426" y="1320" on="1"/>
        <pt x="1401" y="1320" on="0"/>
        <pt x="1302" y="1280" on="0"/>
        <pt x="1258" y="1233" on="1"/>
        <pt x="1219" y="1190" on="0"/>
        <pt x="1158" y="1090" on="1"/>
        <pt x="828" y="576" on="1"/>
        <pt x="828" y="237" on="1"/>
        <pt x="828" y="109" on="0"/>
        <pt x="858" y="79" on="1"/>
        <pt x="893" y="38" on="0"/>
        <pt x="979" y="38" on="1"/>
        <pt x="1021" y="38" on="1"/>
        <pt x="1021" y="0" on="1"/>
        <pt x="446" y="0" on="1"/>
        <pt x="446" y="38" on="1"/>
        <pt x="493" y="38" on="1"/>
        <pt x="577" y="38" on="0"/>
        <pt x="615" y="90" on="1"/>
        <pt x="624" y="106" on="0"/>
        <pt x="635" y="177" on="0"/>
        <pt x="635" y="237" on="1"/>
        <pt x="635" y="558" on="1"/>
        <pt x="264" y="1126" on="1"/>
        <pt x="231" y="1174" on="0"/>
        <pt x="184" y="1243" on="0"/>
        <pt x="156" y="1266" on="1"/>
        <pt x="130" y="1286" on="0"/>
        <pt x="57" y="1320" on="0"/>
        <pt x="17" y="1320" on="1"/>
        <pt x="17" y="1357" on="1"/>
        <pt x="600" y="1357" on="1"/>
        <pt x="600" y="1320" on="1"/>
        <pt x="570" y="1320" on="1"/>
        <pt x="552" y="1320" on="0"/>
        <pt x="492" y="1307" on="0"/>
        <pt x="444" y="1270" on="0"/>
        <pt x="444" y="1233" on="1"/>
        <pt x="444" y="1199" on="0"/>
        <pt x="504" y="1101" on="1"/>
        <pt x="787" y="665" on="1"/>
        <pt x="1056" y="1082" on="1"/>
        <pt x="1100" y="1152" on="0"/>
        <pt x="1127" y="1237" on="0"/>
        <pt x="1098" y="1274" on="1"/>
        <pt x="1087" y="1294" on="0"/>
        <pt x="1035" y="1320" on="0"/>
        <pt x="979" y="1320" on="1"/>
        <pt x="979" y="1357" on="1"/>
        <pt x="1450" y="1357" on="1"/>
      </contour>
    </TTGlyph>
    <TTGlyph name="Yacute" xMin="17" yMin="0" xMax="1450" yMax="1833">
      <component glyphName="Y" x="0" y="0" flags="0x204"/>
      <component glyphName="acutecomb" x="1250" y="437" flags="0x4"/>
    </TTGlyph>
    <TTGlyph name="Ydieresis" xMin="17" yMin="0" xMax="1450" yMax="1769">
      <component glyphName="Y" x="0" y="0" flags="0x204"/>
      <component glyphName="uni0308" x="1243" y="438" flags="0x4"/>
    </TTGlyph>
    <TTGlyph name="Z" xMin="28" yMin="0" xMax="1195" yMax="1357">
      <contour>
        <pt x="1195" y="359" on="1"/>
        <pt x="1133" y="0" on="1"/>
        <pt x="28" y="0" on="1"/>
        <pt x="28" y="38" on="1"/>
        <pt x="896" y="1278" on="1"/>
        <pt x="463" y="1278" on="1"/>
        <pt x="385" y="1278" on="0"/>
        <pt x="296" y="1255" on="0"/>
        <pt x="266" y="1228" on="1"/>
        <pt x="241" y="1206" on="0"/>
        <pt x="202" y="1115" on="0"/>
        <pt x="186" y="1018" on="1"/>
        <pt x="148" y="1018" on="1"/>
        <pt x="175" y="1357" on="1"/>
        <pt x="1180" y="1357" on="1"/>
        <pt x="289" y="83" on="1"/>
        <pt x="844" y="83" on="1"/>
        <pt x="975" y="83" on="0"/>
        <pt x="1038" y="138" on="1"/>
        <pt x="1105" y="190" on="0"/>
        <pt x="1164" y="366" on="1"/>
      </contour>
    </TTGlyph>
    <TTGlyph name="Zcaron" xMin="28" yMin="0" xMax="1195" yMax="1817">
      <component glyphName="Z" x="0" y="0" flags="0x204"/>
      <component glyphName="uni030C" x="1130" y="430" flags="0x4"/>
    </TTGlyph>
    <TTGlyph name="_Allah_lah" xMin="188" yMin="-187" xMax="1441" yMax="1396">
      <contour>
        <pt x="1392" y="826" on="1"/>
        <pt x="1392" y="714" on="0"/>
        <pt x="1409" y="491" on="0"/>
        <pt x="1425" y="426" on="1"/>
        <pt x="1431" y="403" on="0"/>
        <pt x="1401" y="362" on="0"/>
        <pt x="1361" y="351" on="0"/>
        <pt x="1353" y="371" on="1"/>
        <pt x="1338" y="292" on="0"/>
        <pt x="1264" y="131" on="0"/>
        <pt x="1165" y="-4" on="0"/>
        <pt x="1056" y="-86" on="0"/>
        <pt x="1007" y="-86" on="1"/>
        <pt x="911" y="-86" on="0"/>
        <pt x="815" y="101" on="0"/>
        <pt x="794" y="262" on="1"/>
        <pt x="720" y="85" on="0"/>
        <pt x="432" y="-134" on="0"/>
        <pt x="228" y="-183" on="1"/>
        <pt x="212" y="-187" on="0"/>
        <pt x="188" y="-148" on="0"/>
        <pt x="201" y="-138" on="1"/>
        <pt x="319" y="-52" on="0"/>
        <pt x="563" y="209" on="0"/>
        <pt x="775" y="569" on="0"/>
        <pt x="843" y="802" on="1"/>
        <pt x="848" y="816" on="0"/>
        <pt x="896" y="809" on="0"/>
        <pt x="891" y="798" on="1"/>
        <pt x="867" y="605" on="0"/>
        <pt x="902" y="368" on="0"/>
        <pt x="994" y="259" on="0"/>
        <pt x="1055" y="259" on="1"/>
        <pt x="1104" y="259" on="0"/>
        <pt x="1194" y="318" on="0"/>
        <pt x="1250" y="441" on="0"/>
        <pt x="1247" y="537" on="1"/>
        <pt x="1244" y="638" on="0"/>
        <pt x="1248" y="862" on="0"/>
        <pt x="1256" y="1010" on="1"/>
        <pt x="1261" y="1093" on="0"/>
        <pt x="1318" y="1245" on="0"/>
        <pt x="1384" y="1357" on="0"/>
        <pt x="1404" y="1379" on="1"/>
        <pt x="1419" y="1396" on="0"/>
        <pt x="1441" y="1348" on="0"/>
        <pt x="1437" y="1334" on="1"/>
        <pt x="1431" y="1312" on="0"/>
        <pt x="1403" y="1222" on="0"/>
        <pt x="1399" y="1108" on="1"/>
        <pt x="1396" y="1023" on="0"/>
        <pt x="1392" y="885" on="0"/>
      </contour>
    </TTGlyph>
    <TTGlyph name="_attachedRing" xMin="-164" yMin="0" xMax="225" yMax="448">
      <contour>
        <pt x="38" y="448" on="1"/>
        <pt x="121" y="448" on="0"/>
        <pt x="225" y="330" on="0"/>
        <pt x="225" y="250" on="1"/>
        <pt x="225" y="197" on="0"/>
        <pt x="165" y="80" on="0"/>
        <pt x="63" y="0" on="0"/>
        <pt x="0" y="0" on="1"/>
        <pt x="-62" y="0" on="0"/>
        <pt x="-134" y="64" on="0"/>
        <pt x="-164" y="157" on="0"/>
        <pt x="-164" y="200" on="1"/>
        <pt x="-164" y="261" on="0"/>
        <pt x="-104" y="374" on="0"/>
        <pt x="-11" y="448" on="0"/>
      </contour>
      <contour>
        <pt x="-18" y="340" on="1"/>
        <pt x="-50" y="340" on="0"/>
        <pt x="-103" y="283" on="0"/>
        <pt x="-103" y="244" on="1"/>
        <pt x="-103" y="198" on="0"/>
        <pt x="-17" y="151" on="0"/>
        <pt x="26" y="151" on="1"/>
        <pt x="70" y="151" on="0"/>
        <pt x="138" y="193" on="0"/>
        <pt x="138" y="216" on="1"/>
        <pt x="138" y="240" on="0"/>
        <pt x="87" y="298" on="0"/>
        <pt x="15" y="340" on="0"/>
      </contour>
    </TTGlyph>
    <TTGlyph name="_attachedRingMid" xMin="-164" yMin="0" xMax="225" yMax="448">
      <component glyphName="_attachedRing" x="0" y="0" flags="0x204"/>
    </TTGlyph>
    <TTGlyph name="_bar" xMin="-411" yMin="50" xMax="412" yMax="394">
      <contour>
        <pt x="24" y="284" on="1"/>
        <pt x="139" y="291" on="0"/>
        <pt x="279" y="325" on="0"/>
        <pt x="360" y="367" on="0"/>
        <pt x="384" y="384" on="1"/>
        <pt x="400" y="394" on="0"/>
        <pt x="412" y="343" on="0"/>
        <pt x="406" y="331" on="1"/>
        <pt x="388" y="295" on="0"/>
        <pt x="310" y="223" on="0"/>
        <pt x="137" y="170" on="0"/>
        <pt x="-24" y="161" on="1"/>
        <pt x="-138" y="155" on="0"/>
        <pt x="-279" y="119" on="0"/>
        <pt x="-359" y="77" on="0"/>
        <pt x="-384" y="60" on="1"/>
        <pt x="-399" y="50" on="0"/>
        <pt x="-411" y="102" on="0"/>
        <pt x="-406" y="113" on="1"/>
        <pt x="-388" y="149" on="0"/>
        <pt x="-310" y="221" on="0"/>
        <pt x="-136" y="275" on="0"/>
      </contour>
    </TTGlyph>
    <TTGlyph name="_bar.narrow" xMin="-342" yMin="62" xMax="331" yMax="359">
      <contour>
        <pt x="24" y="284" on="1"/>
        <pt x="110" y="290" on="0"/>
        <pt x="206" y="303" on="0"/>
        <pt x="257" y="318" on="0"/>
        <pt x="286" y="337" on="0"/>
        <pt x="304" y="350" on="1"/>
        <pt x="319" y="359" on="0"/>
        <pt x="331" y="309" on="0"/>
        <pt x="325" y="297" on="1"/>
        <pt x="308" y="260" on="0"/>
        <pt x="241" y="206" on="0"/>
        <pt x="102" y="170" on="0"/>
        <pt x="-24" y="161" on="1"/>
        <pt x="-138" y="153" on="0"/>
        <pt x="-244" y="123" on="0"/>
        <pt x="-290" y="89" on="0"/>
        <pt x="-315" y="71" on="1"/>
        <pt x="-330" y="62" on="0"/>
        <pt x="-342" y="113" on="0"/>
        <pt x="-337" y="124" on="1"/>
        <pt x="-319" y="161" on="0"/>
        <pt x="-246" y="227" on="0"/>
        <pt x="-102" y="275" on="0"/>
      </contour>
    </TTGlyph>
    <TTGlyph name="_bar.raised" xMin="-206" yMin="-481" xMax="617" yMax="909">
      <contour>
        <pt x="314" y="561" on="1"/>
        <pt x="314" y="553" on="0"/>
        <pt x="313" y="544" on="1"/>
        <pt x="438" y="559" on="0"/>
        <pt x="557" y="616" on="0"/>
        <pt x="589" y="637" on="1"/>
        <pt x="605" y="647" on="0"/>
        <pt x="617" y="596" on="0"/>
        <pt x="611" y="584" on="1"/>
        <pt x="596" y="552" on="0"/>
        <pt x="536" y="491" on="0"/>
        <pt x="415" y="440" on="0"/>
        <pt x="308" y="426" on="1"/>
        <pt x="304" y="315" on="0"/>
        <pt x="295" y="72" on="0"/>
        <pt x="287" y="-165" on="0"/>
        <pt x="283" y="-368" on="0"/>
        <pt x="282" y="-439" on="1"/>
        <pt x="282" y="-452" on="0"/>
        <pt x="228" y="-472" on="0"/>
        <pt x="158" y="-481" on="0"/>
        <pt x="103" y="-476" on="0"/>
        <pt x="103" y="-465" on="1"/>
        <pt x="103" y="-449" on="0"/>
        <pt x="101" y="-414" on="0"/>
        <pt x="101" y="-344" on="0"/>
        <pt x="102" y="-209" on="0"/>
        <pt x="103" y="-92" on="1"/>
        <pt x="105" y="40" on="0"/>
        <pt x="120" y="308" on="0"/>
        <pt x="129" y="410" on="1"/>
        <pt x="-13" y="397" on="0"/>
        <pt x="-145" y="336" on="0"/>
        <pt x="-179" y="312" on="1"/>
        <pt x="-194" y="303" on="0"/>
        <pt x="-206" y="354" on="0"/>
        <pt x="-201" y="365" on="1"/>
        <pt x="-185" y="398" on="0"/>
        <pt x="-120" y="463" on="0"/>
        <pt x="17" y="516" on="0"/>
        <pt x="139" y="530" on="1"/>
        <pt x="150" y="610" on="0"/>
        <pt x="219" y="760" on="0"/>
        <pt x="295" y="870" on="0"/>
        <pt x="313" y="892" on="1"/>
        <pt x="328" y="909" on="0"/>
        <pt x="352" y="862" on="0"/>
        <pt x="350" y="848" on="1"/>
        <pt x="346" y="825" on="0"/>
        <pt x="319" y="675" on="0"/>
      </contour>
    </TTGlyph>
    <TTGlyph name="_bar.raised_gaf" xMin="-207" yMin="-481" xMax="616" yMax="1159">
      <contour>
        <pt x="313" y="811" on="1"/>
        <pt x="313" y="803" on="0"/>
        <pt x="312" y="794" on="1"/>
        <pt x="437" y="809" on="0"/>
        <pt x="556" y="866" on="0"/>
        <pt x="588" y="887" on="1"/>
        <pt x="604" y="897" on="0"/>
        <pt x="616" y="846" on="0"/>
        <pt x="610" y="834" on="1"/>
        <pt x="595" y="803" on="0"/>
        <pt x="535" y="741" on="0"/>
        <pt x="415" y="690" on="0"/>
        <pt x="308" y="676" on="1"/>
        <pt x="304" y="572" on="0"/>
        <pt x="297" y="321" on="0"/>
        <pt x="291" y="58" on="0"/>
        <pt x="286" y="-186" on="0"/>
        <pt x="283" y="-381" on="0"/>
        <pt x="282" y="-439" on="1"/>
        <pt x="282" y="-452" on="0"/>
        <pt x="228" y="-472" on="0"/>
        <pt x="158" y="-481" on="0"/>
        <pt x="103" y="-476" on="0"/>
        <pt x="103" y="-465" on="1"/>
        <pt x="103" y="-449" on="0"/>
        <pt x="101" y="-414" on="0"/>
        <pt x="101" y="-344" on="0"/>
        <pt x="102" y="-209" on="0"/>
        <pt x="103" y="-92" on="1"/>
        <pt x="104" y="-22" on="0"/>
        <pt x="109" y="173" on="0"/>
        <pt x="117" y="386" on="0"/>
        <pt x="126" y="586" on="0"/>
        <pt x="131" y="660" on="1"/>
        <pt x="-13" y="647" on="0"/>
        <pt x="-146" y="586" on="0"/>
        <pt x="-180" y="562" on="1"/>
        <pt x="-195" y="553" on="0"/>
        <pt x="-207" y="604" on="0"/>
        <pt x="-202" y="615" on="1"/>
        <pt x="-186" y="648" on="0"/>
        <pt x="-121" y="714" on="0"/>
        <pt x="16" y="766" on="0"/>
        <pt x="139" y="780" on="1"/>
        <pt x="150" y="860" on="0"/>
        <pt x="218" y="1010" on="0"/>
        <pt x="292" y="1120" on="0"/>
        <pt x="310" y="1142" on="1"/>
        <pt x="325" y="1159" on="0"/>
        <pt x="349" y="1112" on="0"/>
        <pt x="347" y="1098" on="1"/>
        <pt x="343" y="1075" on="0"/>
        <pt x="318" y="925" on="0"/>
      </contour>
    </TTGlyph>
    <TTGlyph name="_bar.waw" xMin="-226" yMin="-346" xMax="643" yMax="-15">
      <contour>
        <pt x="263" y="-154" on="1"/>
        <pt x="324" y="-191" on="0"/>
        <pt x="470" y="-250" on="0"/>
        <pt x="595" y="-285" on="0"/>
        <pt x="624" y="-288" on="1"/>
        <pt x="643" y="-289" on="0"/>
        <pt x="626" y="-326" on="0"/>
        <pt x="614" y="-332" on="1"/>
        <pt x="585" y="-346" on="0"/>
        <pt x="471" y="-334" on="0"/>
        <pt x="335" y="-294" on="0"/>
        <pt x="202" y="-237" on="0"/>
        <pt x="153" y="-207" on="1"/>
        <pt x="93" y="-169" on="0"/>
        <pt x="-54" y="-111" on="0"/>
        <pt x="-179" y="-76" on="0"/>
        <pt x="-208" y="-74" on="1"/>
        <pt x="-226" y="-72" on="0"/>
        <pt x="-210" y="-35" on="0"/>
        <pt x="-198" y="-29" on="1"/>
        <pt x="-169" y="-15" on="0"/>
        <pt x="-55" y="-27" on="0"/>
        <pt x="81" y="-67" on="0"/>
        <pt x="214" y="-124" on="0"/>
      </contour>
    </TTGlyph>
    <TTGlyph name="_beh" xMin="93" yMin="-10" xMax="2481" yMax="879">
      <contour>
        <pt x="182" y="807" on="1"/>
        <pt x="186" y="819" on="0"/>
        <pt x="213" y="805" on="0"/>
        <pt x="236" y="775" on="0"/>
        <pt x="233" y="763" on="1"/>
        <pt x="209" y="636" on="0"/>
        <pt x="307" y="473" on="0"/>
        <pt x="505" y="381" on="0"/>
        <pt x="757" y="340" on="0"/>
        <pt x="1018" y="330" on="0"/>
        <pt x="1130" y="330" on="1"/>
        <pt x="1466" y="330" on="0"/>
        <pt x="1988" y="419" on="0"/>
        <pt x="2345" y="652" on="0"/>
        <pt x="2430" y="868" on="1"/>
        <pt x="2435" y="879" on="0"/>
        <pt x="2460" y="864" on="0"/>
        <pt x="2481" y="836" on="0"/>
        <pt x="2478" y="824" on="1"/>
        <pt x="2434" y="597" on="0"/>
        <pt x="2239" y="279" on="0"/>
        <pt x="1891" y="81" on="0"/>
        <pt x="1351" y="-10" on="0"/>
        <pt x="963" y="-10" on="1"/>
        <pt x="692" y="-10" on="0"/>
        <pt x="343" y="60" on="0"/>
        <pt x="153" y="196" on="0"/>
        <pt x="93" y="394" on="0"/>
        <pt x="131" y="651" on="0"/>
      </contour>
    </TTGlyph>
    <TTGlyph name="_dopesh_top" xMin="-136" yMin="243" xMax="142" yMax="646">
      <contour>
        <pt x="103" y="643" on="1"/>
        <pt x="110" y="646" on="0"/>
        <pt x="142" y="624" on="0"/>
        <pt x="131" y="616" on="1"/>
        <pt x="28" y="543" on="0"/>
        <pt x="-41" y="438" on="0"/>
        <pt x="-41" y="389" on="1"/>
        <pt x="-41" y="360" on="0"/>
        <pt x="-1" y="340" on="0"/>
        <pt x="38" y="359" on="0"/>
        <pt x="38" y="388" on="1"/>
        <pt x="38" y="397" on="0"/>
        <pt x="69" y="406" on="0"/>
        <pt x="99" y="400" on="0"/>
        <pt x="99" y="386" on="1"/>
        <pt x="99" y="311" on="0"/>
        <pt x="28" y="243" on="0"/>
        <pt x="-65" y="245" on="0"/>
        <pt x="-136" y="309" on="0"/>
        <pt x="-136" y="366" on="1"/>
        <pt x="-136" y="451" on="0"/>
        <pt x="-54" y="558" on="0"/>
        <pt x="58" y="623" on="0"/>
      </contour>
    </TTGlyph>
    <TTGlyph name="_dot1l" xMin="-190" yMin="-175" xMax="192" yMax="220">
      <contour>
        <pt x="192" y="23" on="1"/>
        <pt x="192" y="10" on="0"/>
        <pt x="145" y="-54" on="0"/>
        <pt x="79" y="-125" on="0"/>
        <pt x="19" y="-175" on="0"/>
        <pt x="7" y="-175" on="1"/>
        <pt x="-9" y="-175" on="0"/>
        <pt x="-73" y="-127" on="0"/>
        <pt x="-142" y="-58" on="0"/>
        <pt x="-190" y="7" on="0"/>
        <pt x="-190" y="23" on="1"/>
        <pt x="-190" y="37" on="0"/>
        <pt x="-143" y="100" on="0"/>
        <pt x="-77" y="170" on="0"/>
        <pt x="-18" y="220" on="0"/>
        <pt x="-5" y="220" on="1"/>
        <pt x="6" y="220" on="0"/>
        <pt x="38" y="163" on="0"/>
        <pt x="87" y="114" on="1"/>
        <pt x="136" y="65" on="0"/>
        <pt x="192" y="34" on="0"/>
      </contour>
    </TTGlyph>
    <TTGlyph name="_dot1l.small" xMin="-161" yMin="-116" xMax="163" yMax="218">
      <contour>
        <pt x="163" y="52" on="1"/>
        <pt x="163" y="41" on="0"/>
        <pt x="123" y="-13" on="0"/>
        <pt x="67" y="-73" on="0"/>
        <pt x="17" y="-116" on="0"/>
        <pt x="6" y="-116" on="1"/>
        <pt x="-7" y="-116" on="0"/>
        <pt x="-62" y="-75" on="0"/>
        <pt x="-120" y="-17" on="0"/>
        <pt x="-161" y="38" on="0"/>
        <pt x="-161" y="52" on="1"/>
        <pt x="-161" y="63" on="0"/>
        <pt x="-121" y="117" on="0"/>
        <pt x="-65" y="176" on="0"/>
        <pt x="-14" y="218" on="0"/>
        <pt x="-3" y="218" on="1"/>
        <pt x="5" y="218" on="0"/>
        <pt x="32" y="171" on="0"/>
        <pt x="75" y="129" on="1"/>
        <pt x="116" y="88" on="0"/>
        <pt x="163" y="60" on="0"/>
      </contour>
    </TTGlyph>
    <TTGlyph name="_dot1l__dot1u" xMin="192" yMin="-830" xMax="574" yMax="1394">
      <component glyphName="_nukta" x="0" y="1196" flags="0x4"/>
      <component glyphName="_nukta" x="0" y="-633" flags="0x4"/>
    </TTGlyph>
    <TTGlyph name="_dot1l__smallTah" xMin="-256" yMin="-13" xMax="242" yMax="1308">
      <component glyphName="_smallTah" x="-386" y="823" flags="0x4"/>
      <component glyphName="_nukta" x="-381" y="184" flags="0x4"/>
    </TTGlyph>
    <TTGlyph name="_dot1u" xMin="-191" yMin="-211" xMax="191" yMax="184">
      <component glyphName="_nukta" x="-383" y="-14" flags="0x4"/>
    </TTGlyph>
    <TTGlyph name="_dot1u.small" xMin="-162" yMin="-216" xMax="162" yMax="119">
      <component glyphName="_nukta.small" x="-383" y="-49" flags="0x4"/>
    </TTGlyph>
    <TTGlyph name="_dot1u_ngMark" xMin="-222" yMin="-174" xMax="189" yMax="681">
      <component glyphName="absNoonGhunnaMark" x="0" y="495" flags="0x204"/>
      <component glyphName="_nukta" x="-385" y="23" flags="0x4"/>
    </TTGlyph>
    <TTGlyph name="_dot1u_smallTah" xMin="-270" yMin="-174" xMax="228" yMax="1145">
      <contour>
        <pt x="147" y="770" on="1"/>
        <pt x="185" y="770" on="0"/>
        <pt x="228" y="717" on="0"/>
        <pt x="228" y="680" on="1"/>
        <pt x="228" y="636" on="0"/>
        <pt x="163" y="536" on="0"/>
        <pt x="59" y="457" on="0"/>
        <pt x="-2" y="442" on="1"/>
        <pt x="-84" y="422" on="0"/>
        <pt x="-216" y="412" on="0"/>
        <pt x="-250" y="412" on="1"/>
        <pt x="-260" y="412" on="0"/>
        <pt x="-270" y="460" on="0"/>
        <pt x="-254" y="463" on="1"/>
        <pt x="-226" y="468" on="0"/>
        <pt x="-174" y="479" on="0"/>
        <pt x="-150" y="484" on="1"/>
        <pt x="-85" y="548" on="0"/>
        <pt x="-50" y="722" on="0"/>
        <pt x="-55" y="906" on="0"/>
        <pt x="-51" y="987" on="1"/>
        <pt x="-49" y="1037" on="0"/>
        <pt x="6" y="1125" on="0"/>
        <pt x="18" y="1138" on="1"/>
        <pt x="25" y="1145" on="0"/>
        <pt x="41" y="1119" on="0"/>
        <pt x="40" y="1114" on="1"/>
        <pt x="38" y="1104" on="0"/>
        <pt x="35" y="1068" on="0"/>
        <pt x="35" y="1021" on="1"/>
        <pt x="35" y="946" on="0"/>
        <pt x="33" y="778" on="0"/>
        <pt x="16" y="698" on="1"/>
        <pt x="44" y="730" on="0"/>
        <pt x="108" y="770" on="0"/>
      </contour>
      <contour>
        <pt x="108" y="679" on="1"/>
        <pt x="76" y="679" on="0"/>
        <pt x="5" y="620" on="0"/>
        <pt x="-37" y="554" on="1"/>
        <pt x="-41" y="547" on="0"/>
        <pt x="-45" y="541" on="1"/>
        <pt x="-56" y="523" on="0"/>
        <pt x="-67" y="503" on="1"/>
        <pt x="42" y="529" on="0"/>
        <pt x="156" y="590" on="0"/>
        <pt x="156" y="639" on="1"/>
        <pt x="156" y="656" on="0"/>
        <pt x="137" y="679" on="0"/>
      </contour>
      <contour>
        <pt x="201" y="24" on="1"/>
        <pt x="201" y="11" on="0"/>
        <pt x="154" y="-53" on="0"/>
        <pt x="88" y="-124" on="0"/>
        <pt x="28" y="-174" on="0"/>
        <pt x="16" y="-174" on="1"/>
        <pt x="0" y="-174" on="0"/>
        <pt x="-64" y="-125" on="0"/>
        <pt x="-133" y="-56" on="0"/>
        <pt x="-181" y="8" on="0"/>
        <pt x="-181" y="24" on="1"/>
        <pt x="-181" y="38" on="0"/>
        <pt x="-134" y="101" on="0"/>
        <pt x="-68" y="171" on="0"/>
        <pt x="-8" y="221" on="0"/>
        <pt x="5" y="221" on="1"/>
        <pt x="15" y="221" on="0"/>
        <pt x="48" y="165" on="0"/>
        <pt x="97" y="115" on="1"/>
        <pt x="145" y="67" on="0"/>
        <pt x="201" y="35" on="0"/>
      </contour>
    </TTGlyph>
    <TTGlyph name="_dot1u_smallTah.kf" xMin="-270" yMin="-173" xMax="208" yMax="905">
      <contour>
        <pt x="137" y="620" on="1"/>
        <pt x="168" y="620" on="0"/>
        <pt x="208" y="567" on="0"/>
        <pt x="208" y="530" on="1"/>
        <pt x="208" y="486" on="0"/>
        <pt x="153" y="386" on="0"/>
        <pt x="59" y="307" on="0"/>
        <pt x="-2" y="292" on="1"/>
        <pt x="-84" y="272" on="0"/>
        <pt x="-216" y="262" on="0"/>
        <pt x="-250" y="262" on="1"/>
        <pt x="-260" y="262" on="0"/>
        <pt x="-270" y="310" on="0"/>
        <pt x="-254" y="313" on="1"/>
        <pt x="-198" y="323" on="0"/>
        <pt x="-155" y="332" on="1"/>
        <pt x="-91" y="395" on="0"/>
        <pt x="-48" y="524" on="0"/>
        <pt x="-45" y="665" on="0"/>
        <pt x="-41" y="747" on="1"/>
        <pt x="-39" y="797" on="0"/>
        <pt x="5" y="885" on="0"/>
        <pt x="18" y="898" on="1"/>
        <pt x="25" y="905" on="0"/>
        <pt x="42" y="879" on="0"/>
        <pt x="40" y="874" on="1"/>
        <pt x="37" y="864" on="0"/>
        <pt x="35" y="828" on="0"/>
        <pt x="35" y="781" on="1"/>
        <pt x="35" y="724" on="0"/>
        <pt x="28" y="610" on="0"/>
        <pt x="16" y="555" on="1"/>
        <pt x="41" y="584" on="0"/>
        <pt x="100" y="620" on="0"/>
      </contour>
      <contour>
        <pt x="98" y="529" on="1"/>
        <pt x="60" y="529" on="0"/>
        <pt x="-13" y="445" on="0"/>
        <pt x="-67" y="352" on="1"/>
        <pt x="36" y="378" on="0"/>
        <pt x="136" y="441" on="0"/>
        <pt x="136" y="489" on="1"/>
        <pt x="136" y="506" on="0"/>
        <pt x="112" y="529" on="0"/>
      </contour>
      <contour>
        <pt x="168" y="-15" on="1"/>
        <pt x="168" y="-26" on="0"/>
        <pt x="128" y="-77" on="0"/>
        <pt x="72" y="-133" on="0"/>
        <pt x="22" y="-173" on="0"/>
        <pt x="11" y="-173" on="1"/>
        <pt x="-2" y="-173" on="0"/>
        <pt x="-54" y="-138" on="0"/>
        <pt x="-108" y="-88" on="0"/>
        <pt x="-146" y="-39" on="0"/>
        <pt x="-146" y="-25" on="1"/>
        <pt x="-146" y="-14" on="0"/>
        <pt x="-107" y="37" on="0"/>
        <pt x="-51" y="93" on="0"/>
        <pt x="0" y="132" on="0"/>
        <pt x="11" y="132" on="1"/>
        <pt x="20" y="132" on="0"/>
        <pt x="51" y="93" on="0"/>
        <pt x="87" y="57" on="1"/>
        <pt x="120" y="24" on="0"/>
        <pt x="168" y="-6" on="0"/>
      </contour>
    </TTGlyph>
    <TTGlyph name="_dot1u_smallV" xMin="-256" yMin="-177" xMax="275" yMax="898">
      <component glyphName="_smallV" x="0" y="457" flags="0x204"/>
      <component glyphName="_nukta" x="-383" y="20" flags="0x4"/>
    </TTGlyph>
    <TTGlyph name="_dot1u_smallV.kf" xMin="-230" yMin="-197" xMax="248" yMax="647">
      <component glyphName="_smallV" x="0" y="277" scalex="0.9" scaley="0.84" flags="0x4"/>
      <component glyphName="_nukta.smallFlat" x="-381" y="-30" flags="0x4"/>
    </TTGlyph>
    <TTGlyph name="_dot2l" xMin="-350" yMin="-220" xMax="339" yMax="209">
      <component glyphName="_nukta2" x="-639" y="-3" flags="0x4"/>
    </TTGlyph>
    <TTGlyph name="_dot2l.small" xMin="-294" yMin="-188" xMax="284" yMax="176">
      <component glyphName="_nukta2.small" x="-639" y="-3" flags="0x4"/>
    </TTGlyph>
    <TTGlyph name="_dot2l__hamza" xMin="-205" yMin="36" xMax="484" yMax="1574">
      <component glyphName="_hamza" x="172" y="-184" flags="0x4"/>
      <component glyphName="_nukta2" x="-494" y="253" flags="0x4"/>
    </TTGlyph>
    <TTGlyph name="_dot2l__smallV" xMin="-205" yMin="36" xMax="484" yMax="1529">
      <component glyphName="_nukta2" x="-494" y="253" flags="0x4"/>
      <component glyphName="_smallV" x="136" y="1088" flags="0x4"/>
    </TTGlyph>
    <TTGlyph name="_dot2u" xMin="-350" yMin="-217" xMax="339" yMax="212">
      <component glyphName="_nukta2" x="-639" y="0" flags="0x4"/>
    </TTGlyph>
    <TTGlyph name="_dot2u.small" xMin="-294" yMin="-226" xMax="284" yMax="138">
      <component glyphName="_nukta2.small" x="-639" y="-41" flags="0x4"/>
    </TTGlyph>
    <TTGlyph name="_dot2vl" xMin="-189" yMin="-352" xMax="193" yMax="350">
      <component glyphName="_nukta2v" x="-383" y="0" flags="0x4"/>
    </TTGlyph>
    <TTGlyph name="_dot2vl.small" xMin="-162" yMin="-246" xMax="163" yMax="350">
      <component glyphName="_nukta2v" x="-327" y="53" scale="0.85" flags="0x4"/>
    </TTGlyph>
    <TTGlyph name="_dot2vl__smallTah" xMin="-256" yMin="-280" xMax="242" yMax="1353">
      <component glyphName="_smallTah" x="-386" y="868" flags="0x4"/>
      <component glyphName="_nukta2v" x="-372" y="72" flags="0x4"/>
    </TTGlyph>
    <TTGlyph name="_dot2vu" xMin="-189" yMin="-145" xMax="193" yMax="557">
      <component glyphName="_nukta2v" x="-383" y="207" flags="0x4"/>
    </TTGlyph>
    <TTGlyph name="_dot2vu.small" xMin="-163" yMin="-141" xMax="162" yMax="455">
      <component glyphName="_nukta2v" x="-328" y="158" scale="0.85" flags="0x4"/>
    </TTGlyph>
    <TTGlyph name="_dot3l" xMin="-381" yMin="-362" xMax="354" yMax="391">
      <component glyphName="_nukta3" x="-590" y="95" flags="0x4"/>
    </TTGlyph>
    <TTGlyph name="_dot3l.small" xMin="-313" yMin="-259" xMax="311" yMax="381">
      <component glyphName="_nukta3" x="-491" y="129" scale="0.85" flags="0x4"/>
    </TTGlyph>
    <TTGlyph name="_dot3l__dot3u" xMin="59" yMin="-756" xMax="829" yMax="1802">
      <component glyphName="_nukta3inv" x="-150" y="1334" flags="0x4"/>
      <component glyphName="_nukta3" x="-150" y="-299" flags="0x4"/>
    </TTGlyph>
    <TTGlyph name="_dot3u" xMin="-346" yMin="-198" xMax="389" yMax="555">
      <component glyphName="_nukta3inv" x="-590" y="87" flags="0x4"/>
    </TTGlyph>
    <TTGlyph name="_dot3u.small" xMin="-313" yMin="-179" xMax="312" yMax="461">
      <component glyphName="_nukta3inv" x="-520" y="63" scale="0.85" flags="0x4"/>
    </TTGlyph>
    <TTGlyph name="_dot3uD" xMin="-378" yMin="-193" xMax="357" yMax="560">
      <component glyphName="_nukta3" x="-587" y="264" flags="0x4"/>
    </TTGlyph>
    <TTGlyph name="_dot3uD.small" xMin="-313" yMin="-159" xMax="311" yMax="481">
      <component glyphName="_nukta3" x="-491" y="229" scale="0.85" flags="0x4"/>
    </TTGlyph>
    <TTGlyph name="_dot4l" xMin="-372" yMin="-403" xMax="375" yMax="382">
      <component glyphName="_nukta4" x="-641" y="-218" flags="0x4"/>
    </TTGlyph>
    <TTGlyph name="_dot4l.small" xMin="-317" yMin="-395" xMax="318" yMax="272">
      <component glyphName="_nukta4" x="-546" y="-238" scale="0.85" flags="0x4"/>
    </TTGlyph>
    <TTGlyph name="_dot4u" xMin="-372" yMin="-393" xMax="375" yMax="392">
      <component glyphName="_nukta4" x="-641" y="-208" flags="0x4"/>
    </TTGlyph>
    <TTGlyph name="_dot4u.small" xMin="-317" yMin="-316" xMax="318" yMax="351">
      <component glyphName="_nukta4" x="-546" y="-159" scale="0.85" flags="0x4"/>
    </TTGlyph>
    <TTGlyph name="_gafIniTop_medshort_notused" xMin="-256" yMin="487" xMax="930" yMax="2308">
      <component glyphName="_kehehIniTop_medshort" x="0" y="0" flags="0x204"/>
      <component glyphName="_gafStroke_short" x="-547" y="1767" flags="0x4"/>
    </TTGlyph>
    <TTGlyph name="_gafIniTop_short" xMin="-52" yMin="264" xMax="994" yMax="2047">
      <component glyphName="_kehehIniTop_short" x="0" y="0" flags="0x204"/>
      <component glyphName="_gafStroke_short" x="-469" y="1506" flags="0x4"/>
    </TTGlyph>
    <TTGlyph name="_gafIniTop_shorter" xMin="-52" yMin="276" xMax="935" yMax="1906">
      <component glyphName="_gafStroke_shorter" x="-454" y="1405" flags="0x4"/>
      <component glyphName="_kehehIniTop_shorter" x="0" y="0" flags="0x204"/>
    </TTGlyph>
    <TTGlyph name="_gafIniTop_taller" xMin="-60" yMin="224" xMax="935" yMax="2378">
      <component glyphName="_kehehIniTop_taller" x="0" y="0" flags="0x204"/>
      <component glyphName="_gafStroke_short" x="-506" y="1837" flags="0x4"/>
    </TTGlyph>
    <TTGlyph name="_gafMedTop_medshort" xMin="-55" yMin="423" xMax="822" yMax="2311">
      <component glyphName="_gafStroke_shorter" x="-458" y="1810" flags="0x4"/>
      <component glyphName="_kehehMedTop_medshort" x="0" y="0" flags="0x204"/>
    </TTGlyph>
    <TTGlyph name="_gafMedTop_short" xMin="-55" yMin="423" xMax="991" yMax="2220">
      <component glyphName="_kehehMedTop_short" x="0" y="0" flags="0x204"/>
      <component glyphName="_gafStroke_short" x="-459" y="1679" flags="0x4"/>
    </TTGlyph>
    <TTGlyph name="_gafMedTop_shorter" xMin="-56" yMin="423" xMax="932" yMax="2078">
      <component glyphName="_kehehMedTop_shorter" x="0" y="0" flags="0x204"/>
      <component glyphName="_gafStroke_short" x="-502" y="1537" flags="0x4"/>
    </TTGlyph>
    <TTGlyph name="_gafMedTop_tall" xMin="0" yMin="302" xMax="1097" yMax="2676">
      <component glyphName="_kehehMedTop_tall" x="0" y="0" flags="0x204"/>
      <component glyphName="_gafStroke" x="-395" y="2066" flags="0x4"/>
    </TTGlyph>
    <TTGlyph name="_gafStroke" xMin="446" yMin="-270" xMax="1222" yMax="610">
      <contour>
        <pt x="842" y="271" on="1"/>
        <pt x="940" y="347" on="0"/>
        <pt x="1053" y="436" on="0"/>
        <pt x="1116" y="496" on="0"/>
        <pt x="1158" y="554" on="0"/>
        <pt x="1186" y="599" on="1"/>
        <pt x="1193" y="610" on="0"/>
        <pt x="1222" y="588" on="0"/>
        <pt x="1221" y="574" on="1"/>
        <pt x="1216" y="513" on="0"/>
        <pt x="1184" y="409" on="0"/>
        <pt x="1107" y="302" on="0"/>
        <pt x="962" y="170" on="0"/>
        <pt x="843" y="80" on="1"/>
        <pt x="743" y="5" on="0"/>
        <pt x="625" y="-86" on="0"/>
        <pt x="558" y="-150" on="0"/>
        <pt x="512" y="-212" on="0"/>
        <pt x="483" y="-259" on="1"/>
        <pt x="476" y="-270" on="0"/>
        <pt x="446" y="-247" on="0"/>
        <pt x="447" y="-233" on="1"/>
        <pt x="451" y="-168" on="0"/>
        <pt x="488" y="-60" on="0"/>
        <pt x="574" y="49" on="0"/>
        <pt x="724" y="181" on="0"/>
      </contour>
    </TTGlyph>
    <TTGlyph name="_gafStroke_long" xMin="446" yMin="-270" xMax="1337" yMax="725">
      <contour>
        <pt x="899" y="329" on="1"/>
        <pt x="1007" y="408" on="0"/>
        <pt x="1139" y="514" on="0"/>
        <pt x="1219" y="593" on="0"/>
        <pt x="1272" y="667" on="0"/>
        <pt x="1301" y="714" on="1"/>
        <pt x="1308" y="725" on="0"/>
        <pt x="1337" y="703" on="0"/>
        <pt x="1336" y="689" on="1"/>
        <pt x="1331" y="606" on="0"/>
        <pt x="1283" y="477" on="0"/>
        <pt x="1184" y="359" on="0"/>
        <pt x="1021" y="225" on="0"/>
        <pt x="900" y="138" on="1"/>
        <pt x="787" y="55" on="0"/>
        <pt x="648" y="-55" on="0"/>
        <pt x="567" y="-136" on="0"/>
        <pt x="512" y="-211" on="0"/>
        <pt x="483" y="-259" on="1"/>
        <pt x="476" y="-270" on="0"/>
        <pt x="446" y="-247" on="0"/>
        <pt x="447" y="-233" on="1"/>
        <pt x="452" y="-149" on="0"/>
        <pt x="502" y="-19" on="0"/>
        <pt x="605" y="101" on="0"/>
        <pt x="774" y="238" on="0"/>
      </contour>
    </TTGlyph>
    <TTGlyph name="_gafStroke_short" xMin="446" yMin="-270" xMax="1153" yMax="541">
      <contour>
        <pt x="807" y="237" on="1"/>
        <pt x="895" y="301" on="0"/>
        <pt x="997" y="378" on="0"/>
        <pt x="1054" y="432" on="0"/>
        <pt x="1093" y="488" on="0"/>
        <pt x="1117" y="530" on="1"/>
        <pt x="1124" y="541" on="0"/>
        <pt x="1153" y="519" on="0"/>
        <pt x="1152" y="505" on="1"/>
        <pt x="1149" y="432" on="0"/>
        <pt x="1119" y="328" on="0"/>
        <pt x="1046" y="235" on="0"/>
        <pt x="914" y="125" on="0"/>
        <pt x="808" y="46" on="1"/>
        <pt x="720" y="-20" on="0"/>
        <pt x="616" y="-99" on="0"/>
        <pt x="556" y="-154" on="0"/>
        <pt x="512" y="-213" on="0"/>
        <pt x="483" y="-259" on="1"/>
        <pt x="476" y="-270" on="0"/>
        <pt x="446" y="-247" on="0"/>
        <pt x="447" y="-233" on="1"/>
        <pt x="452" y="-149" on="0"/>
        <pt x="491" y="-34" on="0"/>
        <pt x="571" y="60" on="0"/>
        <pt x="706" y="164" on="0"/>
      </contour>
    </TTGlyph>
    <TTGlyph name="_gafStroke_shorter" xMin="427" yMin="-262" xMax="1084" yMax="501">
      <contour>
        <pt x="757" y="217" on="1"/>
        <pt x="840" y="277" on="0"/>
        <pt x="938" y="354" on="0"/>
        <pt x="992" y="407" on="0"/>
        <pt x="1027" y="457" on="0"/>
        <pt x="1047" y="490" on="1"/>
        <pt x="1054" y="501" on="0"/>
        <pt x="1084" y="479" on="0"/>
        <pt x="1082" y="465" on="1"/>
        <pt x="1071" y="393" on="0"/>
        <pt x="1042" y="293" on="0"/>
        <pt x="979" y="206" on="0"/>
        <pt x="860" y="102" on="0"/>
        <pt x="758" y="26" on="1"/>
        <pt x="670" y="-40" on="0"/>
        <pt x="572" y="-115" on="0"/>
        <pt x="520" y="-164" on="0"/>
        <pt x="487" y="-212" on="0"/>
        <pt x="463" y="-251" on="1"/>
        <pt x="456" y="-262" on="0"/>
        <pt x="427" y="-237" on="0"/>
        <pt x="428" y="-223" on="1"/>
        <pt x="436" y="-132" on="0"/>
        <pt x="495" y="-3" on="0"/>
        <pt x="633" y="126" on="0"/>
      </contour>
    </TTGlyph>
    <TTGlyph name="_gafTop_bj_short" xMin="-20" yMin="633" xMax="1031" yMax="2129">
      <component glyphName="_kehehTop_bj_short" x="0" y="0" flags="0x204"/>
      <component glyphName="_gafStroke_short" x="-466" y="1588" flags="0x4"/>
    </TTGlyph>
    <TTGlyph name="_gafTop_bj_tall" xMin="-1" yMin="642" xMax="1101" yMax="2529">
      <component glyphName="_kehehTop_jm_tall" x="0" y="0" flags="0x204"/>
      <component glyphName="_gafStroke" x="-441" y="1919" flags="0x4"/>
    </TTGlyph>
    <TTGlyph name="_hamza" xMin="-296" yMin="1236" xMax="256" yMax="1758">
      <contour>
        <pt x="174" y="1516" on="1"/>
        <pt x="115" y="1533" on="0"/>
        <pt x="28" y="1480" on="0"/>
        <pt x="-43" y="1384" on="0"/>
        <pt x="-117" y="1288" on="0"/>
        <pt x="-208" y="1236" on="0"/>
        <pt x="-272" y="1254" on="1"/>
        <pt x="-292" y="1260" on="0"/>
        <pt x="-296" y="1335" on="0"/>
        <pt x="-274" y="1426" on="0"/>
        <pt x="-234" y="1489" on="0"/>
        <pt x="-210" y="1482" on="1"/>
        <pt x="-150" y="1465" on="0"/>
        <pt x="-64" y="1517" on="0"/>
        <pt x="8" y="1610" on="0"/>
        <pt x="81" y="1705" on="0"/>
        <pt x="172" y="1758" on="0"/>
        <pt x="236" y="1742" on="1"/>
        <pt x="256" y="1737" on="0"/>
        <pt x="256" y="1663" on="0"/>
        <pt x="231" y="1574" on="0"/>
        <pt x="193" y="1510" on="0"/>
      </contour>
    </TTGlyph>
    <TTGlyph name="_hamza.arabic" xMin="194" yMin="1620" xMax="651" yMax="2104">
      <contour>
        <pt x="642" y="1876" on="1"/>
        <pt x="651" y="1876" on="0"/>
        <pt x="651" y="1868" on="1"/>
        <pt x="651" y="1862" on="0"/>
        <pt x="639" y="1817" on="0"/>
        <pt x="610" y="1772" on="0"/>
        <pt x="586" y="1766" on="1"/>
        <pt x="578" y="1765" on="0"/>
        <pt x="501" y="1734" on="0"/>
        <pt x="395" y="1691" on="0"/>
        <pt x="289" y="1649" on="0"/>
        <pt x="213" y="1620" on="0"/>
        <pt x="207" y="1620" on="1"/>
        <pt x="194" y="1620" on="0"/>
        <pt x="194" y="1634" on="1"/>
        <pt x="194" y="1646" on="0"/>
        <pt x="226" y="1713" on="0"/>
        <pt x="235" y="1723" on="1"/>
        <pt x="242" y="1730" on="0"/>
        <pt x="310" y="1760" on="1"/>
        <pt x="284" y="1776" on="0"/>
        <pt x="237" y="1831" on="0"/>
        <pt x="237" y="1865" on="1"/>
        <pt x="237" y="1901" on="0"/>
        <pt x="286" y="1984" on="0"/>
        <pt x="363" y="2057" on="0"/>
        <pt x="452" y="2104" on="0"/>
        <pt x="492" y="2104" on="1"/>
        <pt x="528" y="2104" on="0"/>
        <pt x="577" y="2074" on="0"/>
        <pt x="577" y="2041" on="1"/>
        <pt x="577" y="2023" on="0"/>
        <pt x="566" y="1972" on="0"/>
        <pt x="532" y="1971" on="1"/>
        <pt x="517" y="1970" on="0"/>
        <pt x="456" y="1985" on="0"/>
        <pt x="389" y="1992" on="0"/>
        <pt x="334" y="1969" on="0"/>
        <pt x="324" y="1931" on="1"/>
        <pt x="320" y="1914" on="0"/>
        <pt x="364" y="1871" on="0"/>
        <pt x="432" y="1831" on="0"/>
        <pt x="465" y="1821" on="1"/>
        <pt x="510" y="1837" on="0"/>
        <pt x="601" y="1866" on="0"/>
      </contour>
    </TTGlyph>
    <TTGlyph name="_hehHook.small" xMin="0" yMin="40" xMax="253" yMax="555">
      <contour>
        <pt x="133" y="547" on="1"/>
        <pt x="138" y="555" on="0"/>
        <pt x="175" y="541" on="0"/>
        <pt x="172" y="534" on="1"/>
        <pt x="101" y="359" on="0"/>
        <pt x="98" y="203" on="0"/>
        <pt x="142" y="203" on="1"/>
        <pt x="158" y="203" on="0"/>
        <pt x="175" y="235" on="0"/>
        <pt x="195" y="267" on="0"/>
        <pt x="214" y="267" on="1"/>
        <pt x="235" y="267" on="0"/>
        <pt x="253" y="198" on="0"/>
        <pt x="239" y="109" on="0"/>
        <pt x="186" y="40" on="0"/>
        <pt x="135" y="40" on="1"/>
        <pt x="70" y="40" on="0"/>
        <pt x="0" y="152" on="0"/>
        <pt x="38" y="378" on="0"/>
      </contour>
    </TTGlyph>
    <TTGlyph name="_hehHook__dot2u" xMin="-197" yMin="40" xMax="492" yMax="1529">
      <component glyphName="_nukta2" x="-486" y="1317" flags="0x4"/>
      <component glyphName="_hehHook.small" x="0" y="0" flags="0x204"/>
    </TTGlyph>
    <TTGlyph name="_hehHook__hamza" xMin="-124" yMin="40" xMax="428" yMax="1574">
      <component glyphName="_hehHook.small" x="0" y="0" flags="0x204"/>
      <component glyphName="_hamza" x="172" y="-184" flags="0x4"/>
    </TTGlyph>
    <TTGlyph name="_kaf" xMin="338" yMin="-10" xMax="3547" yMax="2891">
      <contour>
        <pt x="2282" y="621" on="1"/>
        <pt x="2304" y="659" on="0"/>
        <pt x="2324" y="738" on="0"/>
        <pt x="2328" y="872" on="0"/>
        <pt x="2326" y="1104" on="0"/>
        <pt x="2326" y="1294" on="1"/>
        <pt x="2326" y="1543" on="0"/>
        <pt x="2494" y="1941" on="0"/>
        <pt x="2802" y="2274" on="0"/>
        <pt x="3011" y="2424" on="1"/>
        <pt x="3153" y="2526" on="0"/>
        <pt x="3322" y="2657" on="0"/>
        <pt x="3418" y="2748" on="0"/>
        <pt x="3478" y="2828" on="0"/>
        <pt x="3510" y="2880" on="1"/>
        <pt x="3517" y="2891" on="0"/>
        <pt x="3547" y="2869" on="0"/>
        <pt x="3546" y="2855" on="1"/>
        <pt x="3540" y="2764" on="0"/>
        <pt x="3483" y="2625" on="0"/>
        <pt x="3360" y="2494" on="0"/>
        <pt x="3156" y="2338" on="0"/>
        <pt x="3004" y="2228" on="1"/>
        <pt x="2888" y="2144" on="0"/>
        <pt x="2716" y="2027" on="0"/>
        <pt x="2597" y="1931" on="0"/>
        <pt x="2524" y="1829" on="0"/>
        <pt x="2488" y="1693" on="0"/>
        <pt x="2484" y="1593" on="1"/>
        <pt x="2472" y="1262" on="0"/>
        <pt x="2420" y="774" on="0"/>
        <pt x="2348" y="599" on="1"/>
        <pt x="2268" y="406" on="0"/>
        <pt x="2015" y="165" on="0"/>
        <pt x="1690" y="37" on="0"/>
        <pt x="1312" y="-10" on="0"/>
        <pt x="1107" y="-10" on="1"/>
        <pt x="1019" y="-10" on="0"/>
        <pt x="810" y="2" on="0"/>
        <pt x="605" y="49" on="0"/>
        <pt x="437" y="152" on="0"/>
        <pt x="338" y="333" on="0"/>
        <pt x="341" y="613" on="0"/>
        <pt x="412" y="814" on="1"/>
        <pt x="416" y="826" on="0"/>
        <pt x="447" y="824" on="0"/>
        <pt x="473" y="807" on="0"/>
        <pt x="471" y="795" on="1"/>
        <pt x="447" y="660" on="0"/>
        <pt x="528" y="487" on="0"/>
        <pt x="696" y="387" on="0"/>
        <pt x="913" y="342" on="0"/>
        <pt x="1139" y="330" on="0"/>
        <pt x="1235" y="330" on="1"/>
        <pt x="1415" y="330" on="0"/>
        <pt x="1755" y="368" on="0"/>
        <pt x="2040" y="443" on="0"/>
        <pt x="2241" y="551" on="0"/>
      </contour>
    </TTGlyph>
    <TTGlyph name="_kafSquiggle" xMin="-158" yMin="417" xMax="200" yMax="931">
      <contour>
        <pt x="200" y="615" on="1"/>
        <pt x="200" y="572" on="0"/>
        <pt x="149" y="480" on="0"/>
        <pt x="65" y="417" on="0"/>
        <pt x="14" y="417" on="1"/>
        <pt x="-18" y="417" on="0"/>
        <pt x="-129" y="454" on="0"/>
        <pt x="-158" y="478" on="1"/>
        <pt x="-120" y="482" on="0"/>
        <pt x="-3" y="498" on="0"/>
        <pt x="87" y="523" on="0"/>
        <pt x="87" y="539" on="1"/>
        <pt x="87" y="557" on="0"/>
        <pt x="42" y="564" on="0"/>
        <pt x="-16" y="570" on="0"/>
        <pt x="-61" y="598" on="0"/>
        <pt x="-61" y="636" on="1"/>
        <pt x="-61" y="668" on="0"/>
        <pt x="-13" y="769" on="0"/>
        <pt x="55" y="869" on="0"/>
        <pt x="117" y="931" on="0"/>
        <pt x="130" y="923" on="1"/>
        <pt x="137" y="919" on="0"/>
        <pt x="148" y="872" on="0"/>
        <pt x="154" y="824" on="0"/>
        <pt x="151" y="818" on="1"/>
        <pt x="146" y="807" on="0"/>
        <pt x="90" y="783" on="0"/>
        <pt x="38" y="757" on="0"/>
        <pt x="38" y="741" on="1"/>
        <pt x="38" y="714" on="0"/>
        <pt x="87" y="700" on="0"/>
        <pt x="151" y="692" on="0"/>
        <pt x="200" y="660" on="0"/>
      </contour>
    </TTGlyph>
    <TTGlyph name="_kaf_exclude" xMin="0" yMin="0" xMax="704" yMax="1634">
      <contour>
        <pt x="0" y="0" on="1"/>
        <pt x="0" y="1634" on="1"/>
        <pt x="704" y="1634" on="1"/>
        <pt x="704" y="561" on="1"/>
      </contour>
    </TTGlyph>
    <TTGlyph name="_kehehIniTop_medshort" xMin="-256" yMin="487" xMax="930" yMax="2159">
      <contour>
        <pt x="-256" y="839" on="1"/>
        <pt x="-46" y="839" on="1"/>
        <pt x="-45" y="874" on="0"/>
        <pt x="-42" y="948" on="0"/>
        <pt x="-40" y="987" on="1"/>
        <pt x="-34" y="1083" on="0"/>
        <pt x="17" y="1273" on="0"/>
        <pt x="136" y="1471" on="0"/>
        <pt x="346" y="1687" on="0"/>
        <pt x="509" y="1808" on="1"/>
        <pt x="600" y="1876" on="0"/>
        <pt x="715" y="1959" on="0"/>
        <pt x="786" y="2012" on="0"/>
        <pt x="830" y="2055" on="0"/>
        <pt x="868" y="2107" on="0"/>
        <pt x="894" y="2148" on="1"/>
        <pt x="901" y="2159" on="0"/>
        <pt x="930" y="2137" on="0"/>
        <pt x="929" y="2123" on="1"/>
        <pt x="925" y="2045" on="0"/>
        <pt x="887" y="1935" on="0"/>
        <pt x="797" y="1832" on="0"/>
        <pt x="633" y="1706" on="0"/>
        <pt x="503" y="1611" on="1"/>
        <pt x="426" y="1556" on="0"/>
        <pt x="303" y="1482" on="0"/>
        <pt x="209" y="1417" on="0"/>
        <pt x="145" y="1331" on="0"/>
        <pt x="111" y="1198" on="0"/>
        <pt x="108" y="1092" on="1"/>
        <pt x="106" y="1021" on="0"/>
        <pt x="101" y="894" on="0"/>
        <pt x="98" y="839" on="1"/>
        <pt x="365" y="839" on="1"/>
        <pt x="365" y="679" on="1"/>
        <pt x="87" y="679" on="1"/>
        <pt x="84" y="635" on="0"/>
        <pt x="80" y="596" on="1"/>
        <pt x="75" y="546" on="0"/>
        <pt x="9" y="491" on="0"/>
        <pt x="-53" y="487" on="0"/>
        <pt x="-52" y="512" on="1"/>
        <pt x="-51" y="549" on="0"/>
        <pt x="-50" y="633" on="0"/>
        <pt x="-49" y="679" on="1"/>
        <pt x="-256" y="679" on="1"/>
      </contour>
    </TTGlyph>
    <TTGlyph name="_kehehIniTop_short" xMin="-52" yMin="264" xMax="994" yMax="1908">
      <contour>
        <pt x="-52" y="302" on="1"/>
        <pt x="-52" y="450" on="1"/>
        <pt x="-52" y="699" on="0"/>
        <pt x="102" y="1082" on="0"/>
        <pt x="349" y="1365" on="0"/>
        <pt x="488" y="1465" on="1"/>
        <pt x="626" y="1564" on="0"/>
        <pt x="785" y="1686" on="0"/>
        <pt x="873" y="1769" on="0"/>
        <pt x="926" y="1845" on="0"/>
        <pt x="957" y="1897" on="1"/>
        <pt x="964" y="1908" on="0"/>
        <pt x="994" y="1886" on="0"/>
        <pt x="993" y="1872" on="1"/>
        <pt x="988" y="1781" on="0"/>
        <pt x="939" y="1651" on="0"/>
        <pt x="829" y="1531" on="0"/>
        <pt x="633" y="1384" on="0"/>
        <pt x="481" y="1275" on="1"/>
        <pt x="356" y="1185" on="0"/>
        <pt x="209" y="1065" on="0"/>
        <pt x="135" y="967" on="0"/>
        <pt x="107" y="857" on="0"/>
        <pt x="102" y="777" on="1"/>
        <pt x="93" y="635" on="0"/>
        <pt x="57" y="372" on="0"/>
        <pt x="43" y="302" on="1"/>
        <pt x="38" y="276" on="0"/>
        <pt x="-9" y="264" on="0"/>
        <pt x="-52" y="283" on="0"/>
      </contour>
    </TTGlyph>
    <TTGlyph name="_kehehIniTop_shorter" xMin="-52" yMin="276" xMax="935" yMax="1760">
      <contour>
        <pt x="-52" y="314" on="1"/>
        <pt x="-52" y="362" on="1"/>
        <pt x="-52" y="611" on="0"/>
        <pt x="87" y="979" on="0"/>
        <pt x="319" y="1247" on="0"/>
        <pt x="458" y="1347" on="1"/>
        <pt x="581" y="1436" on="0"/>
        <pt x="729" y="1548" on="0"/>
        <pt x="814" y="1626" on="0"/>
        <pt x="867" y="1700" on="0"/>
        <pt x="897" y="1749" on="1"/>
        <pt x="904" y="1760" on="0"/>
        <pt x="935" y="1738" on="0"/>
        <pt x="933" y="1724" on="1"/>
        <pt x="925" y="1651" on="0"/>
        <pt x="897" y="1547" on="0"/>
        <pt x="840" y="1459" on="0"/>
        <pt x="737" y="1366" on="0"/>
        <pt x="573" y="1244" on="0"/>
        <pt x="451" y="1157" on="1"/>
        <pt x="326" y="1067" on="0"/>
        <pt x="184" y="950" on="0"/>
        <pt x="118" y="856" on="0"/>
        <pt x="98" y="749" on="0"/>
        <pt x="94" y="669" on="1"/>
        <pt x="88" y="540" on="0"/>
        <pt x="51" y="352" on="0"/>
        <pt x="43" y="314" on="1"/>
        <pt x="38" y="288" on="0"/>
        <pt x="-9" y="276" on="0"/>
        <pt x="-52" y="295" on="0"/>
      </contour>
    </TTGlyph>
    <TTGlyph name="_kehehIniTop_taller" xMin="-52" yMin="224" xMax="935" yMax="2208">
      <contour>
        <pt x="-52" y="262" on="1"/>
        <pt x="-52" y="274" on="0"/>
        <pt x="-52" y="383" on="0"/>
        <pt x="-51" y="533" on="0"/>
        <pt x="-51" y="684" on="0"/>
        <pt x="-51" y="796" on="0"/>
        <pt x="-51" y="810" on="1"/>
        <pt x="-51" y="1059" on="0"/>
        <pt x="88" y="1427" on="0"/>
        <pt x="320" y="1695" on="0"/>
        <pt x="459" y="1795" on="1"/>
        <pt x="578" y="1881" on="0"/>
        <pt x="723" y="1989" on="0"/>
        <pt x="809" y="2067" on="0"/>
        <pt x="866" y="2144" on="0"/>
        <pt x="898" y="2197" on="1"/>
        <pt x="905" y="2208" on="0"/>
        <pt x="935" y="2186" on="0"/>
        <pt x="934" y="2172" on="1"/>
        <pt x="930" y="2096" on="0"/>
        <pt x="891" y="1979" on="0"/>
        <pt x="791" y="1863" on="0"/>
        <pt x="604" y="1714" on="0"/>
        <pt x="452" y="1605" on="1"/>
        <pt x="327" y="1515" on="0"/>
        <pt x="186" y="1407" on="0"/>
        <pt x="123" y="1325" on="0"/>
        <pt x="107" y="1227" on="0"/>
        <pt x="107" y="1147" on="1"/>
        <pt x="107" y="829" on="0"/>
        <pt x="67" y="377" on="0"/>
        <pt x="43" y="262" on="1"/>
        <pt x="38" y="236" on="0"/>
        <pt x="-9" y="224" on="0"/>
        <pt x="-52" y="243" on="0"/>
      </contour>
    </TTGlyph>
    <TTGlyph name="_kehehMedTop_medshort" xMin="-55" yMin="423" xMax="822" yMax="2099">
      <contour>
        <pt x="-55" y="461" on="1"/>
        <pt x="-55" y="779" on="1"/>
        <pt x="-55" y="985" on="0"/>
        <pt x="8" y="1276" on="0"/>
        <pt x="128" y="1484" on="0"/>
        <pt x="298" y="1642" on="0"/>
        <pt x="405" y="1714" on="1"/>
        <pt x="513" y="1788" on="0"/>
        <pt x="650" y="1904" on="0"/>
        <pt x="744" y="2019" on="0"/>
        <pt x="785" y="2088" on="1"/>
        <pt x="792" y="2099" on="0"/>
        <pt x="822" y="2077" on="0"/>
        <pt x="821" y="2063" on="1"/>
        <pt x="815" y="1959" on="0"/>
        <pt x="738" y="1799" on="0"/>
        <pt x="559" y="1634" on="0"/>
        <pt x="398" y="1524" on="1"/>
        <pt x="289" y="1449" on="0"/>
        <pt x="163" y="1352" on="0"/>
        <pt x="104" y="1275" on="0"/>
        <pt x="85" y="1185" on="0"/>
        <pt x="83" y="1116" on="1"/>
        <pt x="82" y="1070" on="0"/>
        <pt x="85" y="942" on="0"/>
        <pt x="86" y="889" on="1"/>
        <pt x="89" y="802" on="0"/>
        <pt x="70" y="628" on="0"/>
        <pt x="47" y="493" on="0"/>
        <pt x="40" y="461" on="1"/>
        <pt x="35" y="435" on="0"/>
        <pt x="-12" y="423" on="0"/>
        <pt x="-55" y="442" on="0"/>
      </contour>
    </TTGlyph>
    <TTGlyph name="_kehehMedTop_short" xMin="-55" yMin="423" xMax="991" yMax="2067">
      <contour>
        <pt x="-55" y="461" on="1"/>
        <pt x="-55" y="609" on="1"/>
        <pt x="-55" y="858" on="0"/>
        <pt x="99" y="1241" on="0"/>
        <pt x="346" y="1524" on="0"/>
        <pt x="485" y="1624" on="1"/>
        <pt x="623" y="1723" on="0"/>
        <pt x="782" y="1845" on="0"/>
        <pt x="870" y="1928" on="0"/>
        <pt x="923" y="2004" on="0"/>
        <pt x="954" y="2056" on="1"/>
        <pt x="961" y="2067" on="0"/>
        <pt x="991" y="2045" on="0"/>
        <pt x="990" y="2031" on="1"/>
        <pt x="985" y="1940" on="0"/>
        <pt x="936" y="1810" on="0"/>
        <pt x="826" y="1690" on="0"/>
        <pt x="630" y="1543" on="0"/>
        <pt x="478" y="1434" on="1"/>
        <pt x="348" y="1341" on="0"/>
        <pt x="192" y="1204" on="0"/>
        <pt x="112" y="1089" on="0"/>
        <pt x="86" y="967" on="0"/>
        <pt x="86" y="889" on="1"/>
        <pt x="86" y="747" on="0"/>
        <pt x="54" y="531" on="0"/>
        <pt x="40" y="461" on="1"/>
        <pt x="35" y="435" on="0"/>
        <pt x="-12" y="423" on="0"/>
        <pt x="-55" y="442" on="0"/>
      </contour>
    </TTGlyph>
    <TTGlyph name="_kehehMedTop_shorter" xMin="-55" yMin="423" xMax="932" yMax="1907">
      <contour>
        <pt x="-55" y="461" on="1"/>
        <pt x="-55" y="509" on="1"/>
        <pt x="-55" y="759" on="0"/>
        <pt x="84" y="1126" on="0"/>
        <pt x="316" y="1394" on="0"/>
        <pt x="455" y="1494" on="1"/>
        <pt x="578" y="1583" on="0"/>
        <pt x="726" y="1695" on="0"/>
        <pt x="811" y="1773" on="0"/>
        <pt x="864" y="1847" on="0"/>
        <pt x="894" y="1896" on="1"/>
        <pt x="901" y="1907" on="0"/>
        <pt x="932" y="1885" on="0"/>
        <pt x="930" y="1871" on="1"/>
        <pt x="922" y="1798" on="0"/>
        <pt x="894" y="1694" on="0"/>
        <pt x="837" y="1606" on="0"/>
        <pt x="734" y="1513" on="0"/>
        <pt x="570" y="1391" on="0"/>
        <pt x="448" y="1304" on="1"/>
        <pt x="304" y="1201" on="0"/>
        <pt x="145" y="1054" on="0"/>
        <pt x="84" y="941" on="0"/>
        <pt x="86" y="889" on="1"/>
        <pt x="88" y="833" on="0"/>
        <pt x="75" y="676" on="0"/>
        <pt x="52" y="519" on="0"/>
        <pt x="40" y="461" on="1"/>
        <pt x="35" y="435" on="0"/>
        <pt x="-12" y="423" on="0"/>
        <pt x="-55" y="442" on="0"/>
      </contour>
    </TTGlyph>
    <TTGlyph name="_kehehMedTop_tall" xMin="0" yMin="302" xMax="1097" yMax="2496">
      <contour>
        <pt x="0" y="340" on="1"/>
        <pt x="0" y="350" on="0"/>
        <pt x="0" y="445" on="0"/>
        <pt x="0" y="584" on="0"/>
        <pt x="1" y="738" on="0"/>
        <pt x="1" y="879" on="0"/>
        <pt x="1" y="976" on="0"/>
        <pt x="1" y="988" on="1"/>
        <pt x="1" y="1175" on="0"/>
        <pt x="114" y="1507" on="0"/>
        <pt x="299" y="1788" on="0"/>
        <pt x="516" y="2008" on="0"/>
        <pt x="621" y="2083" on="1"/>
        <pt x="740" y="2169" on="0"/>
        <pt x="885" y="2277" on="0"/>
        <pt x="971" y="2355" on="0"/>
        <pt x="1028" y="2432" on="0"/>
        <pt x="1060" y="2485" on="1"/>
        <pt x="1067" y="2496" on="0"/>
        <pt x="1097" y="2474" on="0"/>
        <pt x="1096" y="2460" on="1"/>
        <pt x="1092" y="2384" on="0"/>
        <pt x="1053" y="2267" on="0"/>
        <pt x="953" y="2151" on="0"/>
        <pt x="766" y="2002" on="0"/>
        <pt x="614" y="1893" on="1"/>
        <pt x="448" y="1774" on="0"/>
        <pt x="255" y="1577" on="0"/>
        <pt x="168" y="1402" on="0"/>
        <pt x="159" y="1315" on="1"/>
        <pt x="151" y="1229" on="0"/>
        <pt x="146" y="1066" on="0"/>
        <pt x="147" y="884" on="0"/>
        <pt x="147" y="768" on="1"/>
        <pt x="147" y="625" on="0"/>
        <pt x="109" y="408" on="0"/>
        <pt x="95" y="340" on="1"/>
        <pt x="90" y="314" on="0"/>
        <pt x="43" y="302" on="0"/>
        <pt x="0" y="321" on="0"/>
      </contour>
    </TTGlyph>
    <TTGlyph name="_kehehTop_bj_short" xMin="-1" yMin="633" xMax="1031" yMax="2016">
      <contour>
        <pt x="590" y="1637" on="1"/>
        <pt x="707" y="1723" on="0"/>
        <pt x="845" y="1828" on="0"/>
        <pt x="922" y="1898" on="0"/>
        <pt x="969" y="1961" on="0"/>
        <pt x="995" y="2005" on="1"/>
        <pt x="1002" y="2016" on="0"/>
        <pt x="1031" y="1994" on="0"/>
        <pt x="1030" y="1980" on="1"/>
        <pt x="1025" y="1893" on="0"/>
        <pt x="991" y="1779" on="0"/>
        <pt x="902" y="1678" on="0"/>
        <pt x="728" y="1546" on="0"/>
        <pt x="583" y="1441" on="1"/>
        <pt x="456" y="1349" on="0"/>
        <pt x="289" y="1223" on="0"/>
        <pt x="191" y="1132" on="0"/>
        <pt x="144" y="1052" on="0"/>
        <pt x="127" y="962" on="0"/>
        <pt x="125" y="900" on="1"/>
        <pt x="123" y="841" on="0"/>
        <pt x="102" y="714" on="0"/>
        <pt x="94" y="676" on="1"/>
        <pt x="88" y="650" on="0"/>
        <pt x="41" y="633" on="0"/>
        <pt x="-1" y="651" on="0"/>
        <pt x="-1" y="676" on="1"/>
        <pt x="2" y="850" on="0"/>
        <pt x="79" y="1115" on="0"/>
        <pt x="225" y="1332" on="0"/>
        <pt x="444" y="1530" on="0"/>
      </contour>
    </TTGlyph>
    <TTGlyph name="_kehehTop_by_tall" xMin="-1" yMin="642" xMax="1101" yMax="2383">
      <contour>
        <pt x="0" y="676" on="1"/>
        <pt x="-1" y="731" on="0"/>
        <pt x="5" y="838" on="0"/>
        <pt x="5" y="886" on="1"/>
        <pt x="5" y="1083" on="0"/>
        <pt x="110" y="1404" on="0"/>
        <pt x="279" y="1656" on="0"/>
        <pt x="474" y="1845" on="0"/>
        <pt x="565" y="1910" on="1"/>
        <pt x="707" y="2012" on="0"/>
        <pt x="877" y="2144" on="0"/>
        <pt x="973" y="2237" on="0"/>
        <pt x="1033" y="2320" on="0"/>
        <pt x="1064" y="2372" on="1"/>
        <pt x="1071" y="2383" on="0"/>
        <pt x="1101" y="2361" on="0"/>
        <pt x="1100" y="2347" on="1"/>
        <pt x="1095" y="2256" on="0"/>
        <pt x="1037" y="2117" on="0"/>
        <pt x="915" y="1986" on="0"/>
        <pt x="710" y="1829" on="0"/>
        <pt x="558" y="1720" on="1"/>
        <pt x="433" y="1630" on="0"/>
        <pt x="278" y="1510" on="0"/>
        <pt x="194" y="1409" on="0"/>
        <pt x="157" y="1290" on="0"/>
        <pt x="150" y="1201" on="1"/>
        <pt x="148" y="1176" on="0"/>
        <pt x="145" y="1039" on="0"/>
        <pt x="142" y="870" on="0"/>
        <pt x="140" y="719" on="0"/>
        <pt x="139" y="680" on="1"/>
        <pt x="139" y="665" on="0"/>
        <pt x="97" y="646" on="0"/>
        <pt x="42" y="642" on="0"/>
        <pt x="0" y="657" on="0"/>
      </contour>
    </TTGlyph>
    <TTGlyph name="_kehehTop_jm_tall" xMin="-1" yMin="642" xMax="1101" yMax="2383">
      <contour>
        <pt x="0" y="676" on="1"/>
        <pt x="-1" y="731" on="0"/>
        <pt x="5" y="838" on="0"/>
        <pt x="5" y="886" on="1"/>
        <pt x="5" y="1083" on="0"/>
        <pt x="110" y="1404" on="0"/>
        <pt x="279" y="1656" on="0"/>
        <pt x="474" y="1845" on="0"/>
        <pt x="565" y="1910" on="1"/>
        <pt x="707" y="2012" on="0"/>
        <pt x="877" y="2144" on="0"/>
        <pt x="973" y="2237" on="0"/>
        <pt x="1033" y="2320" on="0"/>
        <pt x="1064" y="2372" on="1"/>
        <pt x="1071" y="2383" on="0"/>
        <pt x="1101" y="2361" on="0"/>
        <pt x="1100" y="2347" on="1"/>
        <pt x="1095" y="2256" on="0"/>
        <pt x="1037" y="2117" on="0"/>
        <pt x="915" y="1986" on="0"/>
        <pt x="710" y="1829" on="0"/>
        <pt x="558" y="1720" on="1"/>
        <pt x="433" y="1630" on="0"/>
        <pt x="278" y="1510" on="0"/>
        <pt x="194" y="1409" on="0"/>
        <pt x="157" y="1290" on="0"/>
        <pt x="150" y="1201" on="1"/>
        <pt x="148" y="1176" on="0"/>
        <pt x="145" y="1039" on="0"/>
        <pt x="142" y="870" on="0"/>
        <pt x="140" y="719" on="0"/>
        <pt x="139" y="680" on="1"/>
        <pt x="139" y="665" on="0"/>
        <pt x="97" y="646" on="0"/>
        <pt x="42" y="642" on="0"/>
        <pt x="0" y="657" on="0"/>
      </contour>
    </TTGlyph>
    <TTGlyph name="_kehehTop_m_bogus" xMin="6" yMin="1441" xMax="45" yMax="1479">
      <contour>
        <pt x="6" y="1459" on="1"/>
        <pt x="6" y="1479" on="0"/>
        <pt x="25" y="1479" on="1"/>
        <pt x="45" y="1479" on="0"/>
        <pt x="45" y="1459" on="1"/>
        <pt x="45" y="1441" on="0"/>
        <pt x="25" y="1441" on="1"/>
        <pt x="6" y="1441" on="0"/>
      </contour>
    </TTGlyph>
    <TTGlyph name="_kharizabar_dopesh" xMin="-217" yMin="89" xMax="328" yMax="1705">
      <component glyphName="nlqKharizabar" x="0" y="0" flags="0x204"/>
      <component glyphName="nlqPesh" x="-81" y="1059" flags="0x4"/>
      <component glyphName="_dopesh_top" x="-81" y="1059" flags="0x4"/>
    </TTGlyph>
    <TTGlyph name="_kharizabar_dozabar" xMin="-177" yMin="89" xMax="216" yMax="1727">
      <component glyphName="nlqKharizabar" x="0" y="0" flags="0x204"/>
      <component glyphName="nlqZabar" x="-161" y="1023" flags="0x4"/>
      <component glyphName="nlqZabar" x="-161" y="1288" flags="0x4"/>
    </TTGlyph>
    <TTGlyph name="_kharizabar_pesh" xMin="-234" yMin="89" xMax="248" yMax="1548">
      <component glyphName="nlqKharizabar" x="0" y="0" flags="0x204"/>
      <component glyphName="nlqPesh" x="-161" y="989" flags="0x4"/>
    </TTGlyph>
    <TTGlyph name="_kharizabar_zabar" xMin="-183" yMin="89" xMax="210" yMax="1462">
      <component glyphName="nlqKharizabar" x="0" y="0" flags="0x204"/>
      <component glyphName="nlqZabar" x="-167" y="1023" flags="0x4"/>
    </TTGlyph>
    <TTGlyph name="_nukta" xMin="192" yMin="-197" xMax="574" yMax="198">
      <contour>
        <pt x="574" y="1" on="1"/>
        <pt x="574" y="-12" on="0"/>
        <pt x="527" y="-76" on="0"/>
        <pt x="461" y="-147" on="0"/>
        <pt x="401" y="-197" on="0"/>
        <pt x="389" y="-197" on="1"/>
        <pt x="373" y="-197" on="0"/>
        <pt x="309" y="-148" on="0"/>
        <pt x="240" y="-79" on="0"/>
        <pt x="192" y="-15" on="0"/>
        <pt x="192" y="1" on="1"/>
        <pt x="192" y="15" on="0"/>
        <pt x="239" y="78" on="0"/>
        <pt x="305" y="148" on="0"/>
        <pt x="364" y="198" on="0"/>
        <pt x="377" y="198" on="1"/>
        <pt x="388" y="197" on="0"/>
        <pt x="420" y="142" on="0"/>
        <pt x="469" y="92" on="1"/>
        <pt x="518" y="44" on="0"/>
        <pt x="574" y="12" on="0"/>
      </contour>
    </TTGlyph>
    <TTGlyph name="_nukta.small" xMin="221" yMin="-167" xMax="545" yMax="168">
      <contour>
        <pt x="545" y="1" on="1"/>
        <pt x="545" y="-10" on="0"/>
        <pt x="505" y="-64" on="0"/>
        <pt x="449" y="-124" on="0"/>
        <pt x="399" y="-167" on="0"/>
        <pt x="388" y="-167" on="1"/>
        <pt x="375" y="-167" on="0"/>
        <pt x="320" y="-126" on="0"/>
        <pt x="262" y="-68" on="0"/>
        <pt x="221" y="-13" on="0"/>
        <pt x="221" y="1" on="1"/>
        <pt x="221" y="12" on="0"/>
        <pt x="260" y="66" on="0"/>
        <pt x="316" y="126" on="0"/>
        <pt x="367" y="168" on="0"/>
        <pt x="378" y="168" on="1"/>
        <pt x="387" y="168" on="0"/>
        <pt x="414" y="121" on="0"/>
        <pt x="457" y="78" on="1"/>
        <pt x="498" y="37" on="0"/>
        <pt x="545" y="10" on="0"/>
      </contour>
    </TTGlyph>
    <TTGlyph name="_nukta.smallFlat" xMin="231" yMin="-167" xMax="545" yMax="138">
      <contour>
        <pt x="545" y="-9" on="1"/>
        <pt x="545" y="-20" on="0"/>
        <pt x="505" y="-71" on="0"/>
        <pt x="449" y="-127" on="0"/>
        <pt x="399" y="-167" on="0"/>
        <pt x="388" y="-167" on="1"/>
        <pt x="375" y="-167" on="0"/>
        <pt x="323" y="-132" on="0"/>
        <pt x="269" y="-82" on="0"/>
        <pt x="231" y="-33" on="0"/>
        <pt x="231" y="-19" on="1"/>
        <pt x="231" y="-8" on="0"/>
        <pt x="270" y="43" on="0"/>
        <pt x="326" y="99" on="0"/>
        <pt x="377" y="138" on="0"/>
        <pt x="388" y="138" on="1"/>
        <pt x="397" y="138" on="0"/>
        <pt x="428" y="99" on="0"/>
        <pt x="464" y="63" on="1"/>
        <pt x="497" y="30" on="0"/>
        <pt x="545" y="0" on="0"/>
      </contour>
    </TTGlyph>
    <TTGlyph name="_nukta2" xMin="289" yMin="-217" xMax="978" yMax="212">
      <contour>
        <pt x="978" y="15" on="1"/>
        <pt x="978" y="2" on="0"/>
        <pt x="931" y="-62" on="0"/>
        <pt x="865" y="-133" on="0"/>
        <pt x="805" y="-183" on="0"/>
        <pt x="793" y="-183" on="1"/>
        <pt x="773" y="-183" on="0"/>
        <pt x="684" y="-108" on="0"/>
        <pt x="647" y="-66" on="1"/>
        <pt x="625" y="-96" on="0"/>
        <pt x="558" y="-167" on="0"/>
        <pt x="498" y="-217" on="0"/>
        <pt x="486" y="-217" on="1"/>
        <pt x="470" y="-217" on="0"/>
        <pt x="406" y="-169" on="0"/>
        <pt x="337" y="-100" on="0"/>
        <pt x="289" y="-36" on="0"/>
        <pt x="289" y="-20" on="1"/>
        <pt x="289" y="-6" on="0"/>
        <pt x="336" y="57" on="0"/>
        <pt x="402" y="127" on="0"/>
        <pt x="461" y="177" on="0"/>
        <pt x="474" y="177" on="1"/>
        <pt x="485" y="177" on="0"/>
        <pt x="517" y="121" on="0"/>
        <pt x="566" y="71" on="1"/>
        <pt x="585" y="52" on="0"/>
        <pt x="604" y="37" on="1"/>
        <pt x="620" y="65" on="0"/>
        <pt x="694" y="148" on="0"/>
        <pt x="767" y="212" on="0"/>
        <pt x="782" y="212" on="1"/>
        <pt x="792" y="212" on="0"/>
        <pt x="825" y="155" on="0"/>
        <pt x="874" y="106" on="1"/>
        <pt x="922" y="57" on="0"/>
        <pt x="978" y="26" on="0"/>
      </contour>
    </TTGlyph>
    <TTGlyph name="_nukta2.small" xMin="345" yMin="-185" xMax="923" yMax="179">
      <contour>
        <pt x="923" y="13" on="1"/>
        <pt x="923" y="1" on="0"/>
        <pt x="883" y="-53" on="0"/>
        <pt x="827" y="-113" on="0"/>
        <pt x="777" y="-156" on="0"/>
        <pt x="766" y="-156" on="1"/>
        <pt x="749" y="-156" on="0"/>
        <pt x="676" y="-96" on="0"/>
        <pt x="645" y="-61" on="1"/>
        <pt x="626" y="-87" on="0"/>
        <pt x="571" y="-144" on="0"/>
        <pt x="522" y="-185" on="0"/>
        <pt x="511" y="-185" on="1"/>
        <pt x="498" y="-185" on="0"/>
        <pt x="444" y="-144" on="0"/>
        <pt x="386" y="-85" on="0"/>
        <pt x="345" y="-30" on="0"/>
        <pt x="345" y="-17" on="1"/>
        <pt x="345" y="-5" on="0"/>
        <pt x="384" y="49" on="0"/>
        <pt x="440" y="108" on="0"/>
        <pt x="491" y="151" on="0"/>
        <pt x="502" y="151" on="1"/>
        <pt x="511" y="150" on="0"/>
        <pt x="538" y="102" on="0"/>
        <pt x="580" y="60" on="1"/>
        <pt x="593" y="47" on="0"/>
        <pt x="607" y="35" on="1"/>
        <pt x="622" y="59" on="0"/>
        <pt x="684" y="127" on="0"/>
        <pt x="744" y="179" on="0"/>
        <pt x="756" y="179" on="1"/>
        <pt x="764" y="178" on="0"/>
        <pt x="793" y="131" on="0"/>
        <pt x="834" y="90" on="1"/>
        <pt x="875" y="48" on="0"/>
        <pt x="923" y="21" on="0"/>
      </contour>
    </TTGlyph>
    <TTGlyph name="_nukta2v" xMin="194" yMin="-352" xMax="576" yMax="350">
      <contour>
        <pt x="576" y="153" on="1"/>
        <pt x="576" y="139" on="0"/>
        <pt x="528" y="74" on="0"/>
        <pt x="460" y="3" on="0"/>
        <pt x="432" y="-21" on="1"/>
        <pt x="450" y="-43" on="0"/>
        <pt x="471" y="-64" on="1"/>
        <pt x="520" y="-112" on="0"/>
        <pt x="576" y="-144" on="0"/>
        <pt x="576" y="-155" on="1"/>
        <pt x="576" y="-168" on="0"/>
        <pt x="529" y="-231" on="0"/>
        <pt x="463" y="-302" on="0"/>
        <pt x="403" y="-352" on="0"/>
        <pt x="391" y="-352" on="1"/>
        <pt x="375" y="-352" on="0"/>
        <pt x="311" y="-304" on="0"/>
        <pt x="242" y="-235" on="0"/>
        <pt x="194" y="-171" on="0"/>
        <pt x="194" y="-155" on="1"/>
        <pt x="194" y="-143" on="0"/>
        <pt x="233" y="-88" on="0"/>
        <pt x="290" y="-25" on="0"/>
        <pt x="317" y="0" on="1"/>
        <pt x="274" y="37" on="0"/>
        <pt x="194" y="132" on="0"/>
        <pt x="194" y="153" on="1"/>
        <pt x="194" y="167" on="0"/>
        <pt x="241" y="230" on="0"/>
        <pt x="307" y="300" on="0"/>
        <pt x="366" y="350" on="0"/>
        <pt x="379" y="350" on="1"/>
        <pt x="390" y="349" on="0"/>
        <pt x="422" y="293" on="0"/>
        <pt x="471" y="244" on="1"/>
        <pt x="520" y="195" on="0"/>
        <pt x="576" y="164" on="0"/>
      </contour>
    </TTGlyph>
    <TTGlyph name="_nukta3" xMin="209" yMin="-457" xMax="944" yMax="296">
      <contour>
        <pt x="944" y="99" on="1"/>
        <pt x="944" y="86" on="0"/>
        <pt x="897" y="22" on="0"/>
        <pt x="831" y="-49" on="0"/>
        <pt x="771" y="-99" on="0"/>
        <pt x="759" y="-99" on="1"/>
        <pt x="743" y="-99" on="0"/>
        <pt x="676" y="-48" on="0"/>
        <pt x="606" y="23" on="0"/>
        <pt x="584" y="54" on="1"/>
        <pt x="569" y="26" on="0"/>
        <pt x="494" y="-58" on="0"/>
        <pt x="420" y="-124" on="0"/>
        <pt x="406" y="-124" on="1"/>
        <pt x="390" y="-124" on="0"/>
        <pt x="326" y="-76" on="0"/>
        <pt x="257" y="-7" on="0"/>
        <pt x="209" y="58" on="0"/>
        <pt x="209" y="74" on="1"/>
        <pt x="209" y="87" on="0"/>
        <pt x="256" y="150" on="0"/>
        <pt x="322" y="220" on="0"/>
        <pt x="381" y="270" on="0"/>
        <pt x="394" y="270" on="1"/>
        <pt x="405" y="270" on="0"/>
        <pt x="437" y="214" on="0"/>
        <pt x="486" y="164" on="1"/>
        <pt x="510" y="140" on="0"/>
        <pt x="549" y="110" on="0"/>
        <pt x="562" y="100" on="1"/>
        <pt x="564" y="115" on="0"/>
        <pt x="611" y="179" on="0"/>
        <pt x="676" y="247" on="0"/>
        <pt x="734" y="296" on="0"/>
        <pt x="747" y="296" on="1"/>
        <pt x="758" y="296" on="0"/>
        <pt x="790" y="239" on="0"/>
        <pt x="839" y="190" on="1"/>
        <pt x="888" y="141" on="0"/>
        <pt x="944" y="110" on="0"/>
      </contour>
      <contour>
        <pt x="804" y="-259" on="1"/>
        <pt x="804" y="-272" on="0"/>
        <pt x="757" y="-336" on="0"/>
        <pt x="691" y="-406" on="0"/>
        <pt x="631" y="-457" on="0"/>
        <pt x="619" y="-457" on="1"/>
        <pt x="603" y="-457" on="0"/>
        <pt x="539" y="-408" on="0"/>
        <pt x="470" y="-339" on="0"/>
        <pt x="422" y="-275" on="0"/>
        <pt x="422" y="-259" on="1"/>
        <pt x="422" y="-245" on="0"/>
        <pt x="469" y="-182" on="0"/>
        <pt x="535" y="-112" on="0"/>
        <pt x="594" y="-62" on="0"/>
        <pt x="607" y="-62" on="1"/>
        <pt x="618" y="-62" on="0"/>
        <pt x="650" y="-118" on="0"/>
        <pt x="699" y="-168" on="1"/>
        <pt x="748" y="-216" on="0"/>
        <pt x="804" y="-248" on="0"/>
      </contour>
    </TTGlyph>
    <TTGlyph name="_nukta3inv" xMin="244" yMin="-285" xMax="979" yMax="468">
      <contour>
        <pt x="780" y="271" on="1"/>
        <pt x="780" y="258" on="0"/>
        <pt x="733" y="195" on="0"/>
        <pt x="667" y="124" on="0"/>
        <pt x="607" y="74" on="0"/>
        <pt x="595" y="74" on="1"/>
        <pt x="579" y="74" on="0"/>
        <pt x="515" y="122" on="0"/>
        <pt x="446" y="191" on="0"/>
        <pt x="398" y="255" on="0"/>
        <pt x="398" y="271" on="1"/>
        <pt x="398" y="285" on="0"/>
        <pt x="445" y="348" on="0"/>
        <pt x="511" y="418" on="0"/>
        <pt x="570" y="468" on="0"/>
        <pt x="583" y="468" on="1"/>
        <pt x="594" y="468" on="0"/>
        <pt x="626" y="412" on="0"/>
        <pt x="675" y="362" on="1"/>
        <pt x="723" y="314" on="0"/>
        <pt x="780" y="282" on="0"/>
      </contour>
      <contour>
        <pt x="979" y="-62" on="1"/>
        <pt x="979" y="-75" on="0"/>
        <pt x="932" y="-139" on="0"/>
        <pt x="866" y="-210" on="0"/>
        <pt x="806" y="-260" on="0"/>
        <pt x="793" y="-260" on="1"/>
        <pt x="777" y="-260" on="0"/>
        <pt x="711" y="-209" on="0"/>
        <pt x="641" y="-138" on="0"/>
        <pt x="619" y="-107" on="1"/>
        <pt x="604" y="-135" on="0"/>
        <pt x="529" y="-219" on="0"/>
        <pt x="455" y="-285" on="0"/>
        <pt x="440" y="-285" on="1"/>
        <pt x="424" y="-285" on="0"/>
        <pt x="360" y="-237" on="0"/>
        <pt x="292" y="-168" on="0"/>
        <pt x="244" y="-103" on="0"/>
        <pt x="244" y="-87" on="1"/>
        <pt x="244" y="-74" on="0"/>
        <pt x="291" y="-11" on="0"/>
        <pt x="356" y="59" on="0"/>
        <pt x="416" y="109" on="0"/>
        <pt x="429" y="109" on="1"/>
        <pt x="440" y="109" on="0"/>
        <pt x="472" y="53" on="0"/>
        <pt x="521" y="3" on="1"/>
        <pt x="545" y="-21" on="0"/>
        <pt x="583" y="-51" on="0"/>
        <pt x="597" y="-61" on="1"/>
        <pt x="599" y="-46" on="0"/>
        <pt x="646" y="17" on="0"/>
        <pt x="710" y="86" on="0"/>
        <pt x="769" y="135" on="0"/>
        <pt x="782" y="135" on="1"/>
        <pt x="793" y="135" on="0"/>
        <pt x="825" y="78" on="0"/>
        <pt x="874" y="29" on="1"/>
        <pt x="922" y="-20" on="0"/>
        <pt x="979" y="-51" on="0"/>
      </contour>
    </TTGlyph>
    <TTGlyph name="_nukta4" xMin="269" yMin="-185" xMax="1016" yMax="600">
      <contour>
        <pt x="1015" y="38" on="1"/>
        <pt x="1016" y="25" on="0"/>
        <pt x="969" y="-39" on="0"/>
        <pt x="903" y="-110" on="0"/>
        <pt x="843" y="-160" on="0"/>
        <pt x="830" y="-160" on="1"/>
        <pt x="814" y="-160" on="0"/>
        <pt x="748" y="-109" on="0"/>
        <pt x="678" y="-38" on="0"/>
        <pt x="656" y="-7" on="1"/>
        <pt x="641" y="-34" on="0"/>
        <pt x="566" y="-119" on="0"/>
        <pt x="492" y="-185" on="0"/>
        <pt x="477" y="-185" on="1"/>
        <pt x="461" y="-185" on="0"/>
        <pt x="397" y="-137" on="0"/>
        <pt x="329" y="-68" on="0"/>
        <pt x="281" y="-3" on="0"/>
        <pt x="281" y="13" on="1"/>
        <pt x="281" y="27" on="0"/>
        <pt x="335" y="98" on="0"/>
        <pt x="407" y="173" on="0"/>
        <pt x="435" y="193" on="1"/>
        <pt x="405" y="212" on="0"/>
        <pt x="327" y="287" on="0"/>
        <pt x="269" y="361" on="0"/>
        <pt x="269" y="378" on="1"/>
        <pt x="269" y="392" on="0"/>
        <pt x="316" y="455" on="0"/>
        <pt x="382" y="525" on="0"/>
        <pt x="441" y="575" on="0"/>
        <pt x="454" y="575" on="1"/>
        <pt x="465" y="574" on="0"/>
        <pt x="497" y="519" on="0"/>
        <pt x="546" y="469" on="1"/>
        <pt x="570" y="445" on="0"/>
        <pt x="609" y="415" on="0"/>
        <pt x="622" y="405" on="1"/>
        <pt x="624" y="420" on="0"/>
        <pt x="671" y="483" on="0"/>
        <pt x="736" y="551" on="0"/>
        <pt x="794" y="600" on="0"/>
        <pt x="807" y="600" on="1"/>
        <pt x="818" y="599" on="0"/>
        <pt x="850" y="544" on="0"/>
        <pt x="899" y="494" on="1"/>
        <pt x="948" y="446" on="0"/>
        <pt x="1004" y="414" on="0"/>
        <pt x="1004" y="404" on="1"/>
        <pt x="1004" y="389" on="0"/>
        <pt x="944" y="311" on="0"/>
        <pt x="865" y="232" on="0"/>
        <pt x="839" y="215" on="1"/>
        <pt x="849" y="201" on="0"/>
        <pt x="882" y="158" on="0"/>
        <pt x="911" y="129" on="1"/>
        <pt x="959" y="80" on="0"/>
        <pt x="1015" y="49" on="0"/>
      </contour>
      <contour>
        <pt x="558" y="103" on="1"/>
        <pt x="582" y="79" on="0"/>
        <pt x="621" y="48" on="0"/>
        <pt x="634" y="39" on="1"/>
        <pt x="635" y="55" on="0"/>
        <pt x="689" y="125" on="0"/>
        <pt x="760" y="198" on="0"/>
        <pt x="788" y="219" on="1"/>
        <pt x="755" y="239" on="0"/>
        <pt x="670" y="323" on="0"/>
        <pt x="644" y="359" on="1"/>
        <pt x="632" y="335" on="0"/>
        <pt x="573" y="267" on="0"/>
        <pt x="508" y="204" on="0"/>
        <pt x="486" y="190" on="1"/>
        <pt x="496" y="176" on="0"/>
        <pt x="529" y="132" on="0"/>
      </contour>
    </TTGlyph>
    <TTGlyph name="_ring" xMin="-164" yMin="0" xMax="225" yMax="448">
      <component glyphName="_attachedRing" x="0" y="0" flags="0x204"/>
    </TTGlyph>
    <TTGlyph name="_ring__dot1u" xMin="-60" yMin="0" xMax="353" yMax="1515">
      <component glyphName="_attachedRing" x="128" y="0" flags="0x4"/>
      <component glyphName="_nukta" x="-252" y="1317" flags="0x4"/>
    </TTGlyph>
    <TTGlyph name="_ring__dot2u" xMin="-197" yMin="0" xMax="492" yMax="1529">
      <component glyphName="_nukta2" x="-486" y="1317" flags="0x4"/>
      <component glyphName="_attachedRing" x="126" y="0" flags="0x4"/>
    </TTGlyph>
    <TTGlyph name="_shadda_dopesh" xMin="-251" yMin="-103" xMax="294" yMax="1107">
      <component glyphName="absShadda" x="0" y="0" flags="0x4"/>
      <component glyphName="nlqPesh" x="-115" y="461" flags="0x4"/>
      <component glyphName="_dopesh_top" x="-115" y="461" flags="0x4"/>
    </TTGlyph>
    <TTGlyph name="_shadda_dozabar" xMin="-217" yMin="-103" xMax="269" yMax="1200">
      <component glyphName="absShadda" x="0" y="0" flags="0x4"/>
      <component glyphName="nlqZabar" x="-173" y="761" flags="0x4"/>
      <component glyphName="nlqZabar" x="-173" y="497" flags="0x4"/>
    </TTGlyph>
    <TTGlyph name="_shadda_kharizabar" xMin="-217" yMin="-103" xMax="269" yMax="1277">
      <component glyphName="absShadda" x="0" y="0" flags="0x4"/>
      <component glyphName="nlqKharizabar" x="0" y="356" flags="0x204"/>
    </TTGlyph>
    <TTGlyph name="_shadda_pesh" xMin="-268" yMin="-103" xMax="269" yMax="970">
      <component glyphName="absShadda" x="0" y="0" flags="0x4"/>
      <component glyphName="nlqPesh" x="-195" y="411" flags="0x4"/>
    </TTGlyph>
    <TTGlyph name="_shadda_zabar" xMin="-217" yMin="-103" xMax="269" yMax="966">
      <component glyphName="absShadda" x="0" y="0" flags="0x4"/>
      <component glyphName="nlqZabar" x="-173" y="527" flags="0x4"/>
    </TTGlyph>
    <TTGlyph name="_smallFourAbove" xMin="-212" yMin="-5" xMax="206" yMax="671">
      <component glyphName="absEasternFour" x="-260" y="0" scale="0.45" flags="0x4"/>
    </TTGlyph>
    <TTGlyph name="_smallFourBelow" xMin="-212" yMin="-5" xMax="206" yMax="671">
      <component glyphName="absEasternFour" x="-260" y="0" scale="0.45" flags="0x4"/>
    </TTGlyph>
    <TTGlyph name="_smallTah" xMin="130" yMin="-248" xMax="628" yMax="485">
      <contour>
        <pt x="398" y="-218" on="1"/>
        <pt x="316" y="-237" on="0"/>
        <pt x="184" y="-248" on="0"/>
        <pt x="150" y="-248" on="1"/>
        <pt x="140" y="-248" on="0"/>
        <pt x="130" y="-200" on="0"/>
        <pt x="146" y="-197" on="1"/>
        <pt x="174" y="-192" on="0"/>
        <pt x="226" y="-181" on="0"/>
        <pt x="250" y="-176" on="1"/>
        <pt x="315" y="-112" on="0"/>
        <pt x="350" y="62" on="0"/>
        <pt x="344" y="246" on="0"/>
        <pt x="349" y="327" on="1"/>
        <pt x="351" y="377" on="0"/>
        <pt x="406" y="465" on="0"/>
        <pt x="418" y="478" on="1"/>
        <pt x="425" y="485" on="0"/>
        <pt x="441" y="459" on="0"/>
        <pt x="440" y="454" on="1"/>
        <pt x="438" y="444" on="0"/>
        <pt x="434" y="408" on="0"/>
        <pt x="435" y="361" on="1"/>
        <pt x="435" y="286" on="0"/>
        <pt x="433" y="118" on="0"/>
        <pt x="416" y="38" on="1"/>
        <pt x="444" y="70" on="0"/>
        <pt x="508" y="110" on="0"/>
        <pt x="547" y="110" on="1"/>
        <pt x="585" y="110" on="0"/>
        <pt x="628" y="57" on="0"/>
        <pt x="628" y="20" on="1"/>
        <pt x="628" y="-24" on="0"/>
        <pt x="563" y="-124" on="0"/>
        <pt x="459" y="-203" on="0"/>
      </contour>
      <contour>
        <pt x="508" y="19" on="1"/>
        <pt x="476" y="19" on="0"/>
        <pt x="405" y="-40" on="0"/>
        <pt x="363" y="-106" on="1"/>
        <pt x="359" y="-113" on="0"/>
        <pt x="355" y="-119" on="1"/>
        <pt x="344" y="-137" on="0"/>
        <pt x="333" y="-157" on="1"/>
        <pt x="442" y="-131" on="0"/>
        <pt x="556" y="-70" on="0"/>
        <pt x="556" y="-21" on="1"/>
        <pt x="556" y="-4" on="0"/>
        <pt x="537" y="19" on="0"/>
      </contour>
    </TTGlyph>
    <TTGlyph name="_smallTah2dots" xMin="130" yMin="-504" xMax="628" yMax="485">
      <component glyphName="_smallTah" x="0" y="0" flags="0x204"/>
      <component glyphName="_nukta2" x="147" y="-402" scale="0.47" flags="0x4"/>
    </TTGlyph>
    <TTGlyph name="_smallTah2dotsBelow" xMin="130" yMin="-489" xMax="628" yMax="485">
      <component glyphName="_smallTah" x="0" y="0" flags="0x204"/>
      <component glyphName="_nukta2" x="162" y="-402" scale="0.4" flags="0x4"/>
    </TTGlyph>
    <TTGlyph name="_smallTahBelow" xMin="130" yMin="-248" xMax="628" yMax="485">
      <component glyphName="_smallTah" x="0" y="0" flags="0x204"/>
    </TTGlyph>
    <TTGlyph name="_smallThreeAbove" xMin="-192" yMin="-5" xMax="202" yMax="672">
      <component glyphName="absEasternThree" x="-240" y="0" scale="0.45" flags="0x4"/>
    </TTGlyph>
    <TTGlyph name="_smallTwoAbove" xMin="-169" yMin="-5" xMax="163" yMax="644">
      <component glyphName="absEasternTwo" x="-217" y="0" scale="0.45" flags="0x4"/>
    </TTGlyph>
    <TTGlyph name="_smallV" xMin="-256" yMin="-13" xMax="275" yMax="441">
      <contour>
        <pt x="-245" y="300" on="1"/>
        <pt x="-256" y="327" on="0"/>
        <pt x="-224" y="398" on="0"/>
        <pt x="-180" y="441" on="0"/>
        <pt x="-173" y="422" on="1"/>
        <pt x="-168" y="412" on="0"/>
        <pt x="-114" y="330" on="0"/>
        <pt x="-44" y="232" on="0"/>
        <pt x="15" y="161" on="0"/>
        <pt x="24" y="161" on="1"/>
        <pt x="37" y="161" on="0"/>
        <pt x="92" y="216" on="0"/>
        <pt x="153" y="294" on="0"/>
        <pt x="202" y="364" on="0"/>
        <pt x="209" y="379" on="1"/>
        <pt x="214" y="389" on="0"/>
        <pt x="248" y="377" on="0"/>
        <pt x="275" y="351" on="0"/>
        <pt x="268" y="339" on="1"/>
        <pt x="262" y="327" on="0"/>
        <pt x="216" y="249" on="0"/>
        <pt x="152" y="148" on="0"/>
        <pt x="82" y="51" on="0"/>
        <pt x="20" y="-13" on="0"/>
        <pt x="0" y="-13" on="1"/>
        <pt x="-15" y="-13" on="0"/>
        <pt x="-88" y="67" on="0"/>
        <pt x="-171" y="180" on="0"/>
        <pt x="-237" y="280" on="0"/>
      </contour>
    </TTGlyph>
    <TTGlyph name="_smallVBelow" xMin="-256" yMin="-13" xMax="275" yMax="441">
      <component glyphName="_smallV" x="0" y="0" flags="0x204"/>
    </TTGlyph>
    <TTGlyph name="_smallVinv" xMin="-263" yMin="-16" xMax="244" yMax="408">
      <contour>
        <pt x="233" y="141" on="1"/>
        <pt x="244" y="115" on="0"/>
        <pt x="212" y="43" on="0"/>
        <pt x="168" y="2" on="0"/>
        <pt x="160" y="20" on="1"/>
        <pt x="156" y="30" on="0"/>
        <pt x="116" y="98" on="0"/>
        <pt x="64" y="177" on="0"/>
        <pt x="19" y="235" on="0"/>
        <pt x="10" y="235" on="1"/>
        <pt x="-3" y="235" on="0"/>
        <pt x="-65" y="172" on="0"/>
        <pt x="-135" y="85" on="0"/>
        <pt x="-191" y="8" on="0"/>
        <pt x="-199" y="-7" on="1"/>
        <pt x="-203" y="-16" on="0"/>
        <pt x="-237" y="-4" on="0"/>
        <pt x="-263" y="21" on="0"/>
        <pt x="-257" y="33" on="1"/>
        <pt x="-251" y="45" on="0"/>
        <pt x="-200" y="127" on="0"/>
        <pt x="-129" y="236" on="0"/>
        <pt x="-53" y="339" on="0"/>
        <pt x="14" y="408" on="0"/>
        <pt x="34" y="408" on="1"/>
        <pt x="49" y="408" on="0"/>
        <pt x="108" y="341" on="0"/>
        <pt x="173" y="247" on="0"/>
        <pt x="225" y="161" on="0"/>
      </contour>
    </TTGlyph>
    <TTGlyph name="_tah" xMin="115" yMin="0" xMax="1380" yMax="1587">
      <component glyphName=".notdef" x="0" y="0" flags="0x204"/>
    </TTGlyph>
    <TTGlyph name="_verticalStroke" xMin="-69" yMin="-88" xMax="80" yMax="512">
      <contour>
        <pt x="-54" y="247" on="1"/>
        <pt x="-49" y="349" on="0"/>
        <pt x="-11" y="477" on="0"/>
        <pt x="19" y="504" on="1"/>
        <pt x="28" y="512" on="0"/>
        <pt x="80" y="504" on="0"/>
        <pt x="75" y="487" on="1"/>
        <pt x="67" y="460" on="0"/>
        <pt x="60" y="400" on="0"/>
        <pt x="58" y="290" on="0"/>
        <pt x="54" y="189" on="1"/>
        <pt x="50" y="72" on="0"/>
        <pt x="21" y="-50" on="0"/>
        <pt x="-8" y="-79" on="1"/>
        <pt x="-17" y="-88" on="0"/>
        <pt x="-69" y="-78" on="0"/>
        <pt x="-64" y="-62" on="1"/>
        <pt x="-52" y="-27" on="0"/>
        <pt x="-53" y="37" on="0"/>
        <pt x="-58" y="146" on="0"/>
      </contour>
    </TTGlyph>
    <TTGlyph name="_wasla" xMin="-544" yMin="2301" xMax="524" yMax="2957">
      <contour>
        <pt x="-502" y="2311" on="1"/>
        <pt x="-510" y="2301" on="0"/>
        <pt x="-544" y="2338" on="0"/>
        <pt x="-539" y="2352" on="1"/>
        <pt x="-489" y="2491" on="0"/>
        <pt x="-372" y="2605" on="0"/>
        <pt x="-240" y="2615" on="0"/>
        <pt x="-168" y="2599" on="1"/>
        <pt x="-126" y="2666" on="0"/>
        <pt x="-3" y="2792" on="0"/>
        <pt x="138" y="2894" on="0"/>
        <pt x="279" y="2955" on="0"/>
        <pt x="339" y="2956" on="1"/>
        <pt x="410" y="2957" on="0"/>
        <pt x="524" y="2846" on="0"/>
        <pt x="524" y="2741" on="1"/>
        <pt x="524" y="2651" on="0"/>
        <pt x="422" y="2501" on="0"/>
        <pt x="262" y="2391" on="0"/>
        <pt x="84" y="2331" on="0"/>
        <pt x="7" y="2331" on="1"/>
        <pt x="-72" y="2331" on="0"/>
        <pt x="-209" y="2375" on="0"/>
        <pt x="-331" y="2409" on="0"/>
        <pt x="-445" y="2382" on="0"/>
      </contour>
      <contour>
        <pt x="286" y="2749" on="1"/>
        <pt x="247" y="2749" on="0"/>
        <pt x="112" y="2729" on="0"/>
        <pt x="-37" y="2658" on="0"/>
        <pt x="-97" y="2582" on="1"/>
        <pt x="-55" y="2572" on="0"/>
        <pt x="32" y="2555" on="0"/>
        <pt x="77" y="2555" on="1"/>
        <pt x="163" y="2555" on="0"/>
        <pt x="337" y="2595" on="0"/>
        <pt x="453" y="2654" on="0"/>
        <pt x="453" y="2682" on="1"/>
        <pt x="453" y="2702" on="0"/>
        <pt x="354" y="2749" on="0"/>
      </contour>
    </TTGlyph>
    <TTGlyph name="_wavyHamza" xMin="-140" yMin="1544" xMax="650" yMax="2104">
      <contour>
        <pt x="236" y="1724" on="1"/>
        <pt x="271" y="1724" on="0"/>
        <pt x="311" y="1736" on="1"/>
        <pt x="280" y="1741" on="0"/>
        <pt x="224" y="1809" on="0"/>
        <pt x="224" y="1854" on="1"/>
        <pt x="224" y="1884" on="0"/>
        <pt x="276" y="1968" on="0"/>
        <pt x="355" y="2049" on="0"/>
        <pt x="440" y="2104" on="0"/>
        <pt x="473" y="2104" on="1"/>
        <pt x="523" y="2104" on="0"/>
        <pt x="577" y="2061" on="0"/>
        <pt x="590" y="2004" on="0"/>
        <pt x="563" y="1961" on="0"/>
        <pt x="532" y="1961" on="1"/>
        <pt x="489" y="1961" on="0"/>
        <pt x="441" y="1998" on="0"/>
        <pt x="405" y="1998" on="1"/>
        <pt x="376" y="1998" on="0"/>
        <pt x="324" y="1957" on="0"/>
        <pt x="324" y="1931" on="1"/>
        <pt x="324" y="1914" on="0"/>
        <pt x="369" y="1850" on="0"/>
        <pt x="448" y="1811" on="0"/>
        <pt x="498" y="1831" on="1"/>
        <pt x="534" y="1850" on="0"/>
        <pt x="605" y="1876" on="0"/>
        <pt x="642" y="1876" on="1"/>
        <pt x="650" y="1876" on="0"/>
        <pt x="645" y="1836" on="0"/>
        <pt x="625" y="1785" on="0"/>
        <pt x="600" y="1745" on="0"/>
        <pt x="588" y="1745" on="1"/>
        <pt x="552" y="1745" on="0"/>
        <pt x="443" y="1686" on="0"/>
        <pt x="318" y="1628" on="0"/>
        <pt x="256" y="1628" on="1"/>
        <pt x="201" y="1628" on="0"/>
        <pt x="135" y="1644" on="0"/>
        <pt x="82" y="1659" on="0"/>
        <pt x="45" y="1659" on="1"/>
        <pt x="1" y="1659" on="0"/>
        <pt x="-60" y="1611" on="0"/>
        <pt x="-93" y="1558" on="0"/>
        <pt x="-97" y="1550" on="1"/>
        <pt x="-99" y="1544" on="0"/>
        <pt x="-140" y="1562" on="0"/>
        <pt x="-139" y="1569" on="1"/>
        <pt x="-138" y="1574" on="0"/>
        <pt x="-111" y="1627" on="0"/>
        <pt x="-57" y="1694" on="0"/>
        <pt x="23" y="1743" on="0"/>
        <pt x="77" y="1743" on="1"/>
        <pt x="129" y="1743" on="0"/>
        <pt x="185" y="1724" on="0"/>
      </contour>
    </TTGlyph>
    <TTGlyph name="a" xMin="74" yMin="-17" xMax="910" yMax="943">
      <contour>
        <pt x="910" y="190" on="1"/>
        <pt x="910" y="132" on="1"/>
        <pt x="797" y="-17" on="0"/>
        <pt x="690" y="-17" on="1"/>
        <pt x="646" y="-17" on="0"/>
        <pt x="583" y="45" on="0"/>
        <pt x="583" y="132" on="1"/>
        <pt x="503" y="69" on="0"/>
        <pt x="411" y="5" on="0"/>
        <pt x="341" y="-17" on="0"/>
        <pt x="292" y="-17" on="1"/>
        <pt x="194" y="-17" on="0"/>
        <pt x="74" y="111" on="0"/>
        <pt x="74" y="217" on="1"/>
        <pt x="74" y="268" on="0"/>
        <pt x="112" y="360" on="0"/>
        <pt x="218" y="452" on="0"/>
        <pt x="420" y="551" on="0"/>
        <pt x="583" y="607" on="1"/>
        <pt x="583" y="645" on="1"/>
        <pt x="583" y="778" on="0"/>
        <pt x="500" y="883" on="0"/>
        <pt x="412" y="883" on="1"/>
        <pt x="350" y="883" on="0"/>
        <pt x="277" y="819" on="0"/>
        <pt x="274" y="772" on="1"/>
        <pt x="276" y="712" on="1"/>
        <pt x="278" y="668" on="0"/>
        <pt x="231" y="618" on="0"/>
        <pt x="193" y="618" on="1"/>
        <pt x="109" y="618" on="0"/>
        <pt x="109" y="713" on="1"/>
        <pt x="109" y="785" on="0"/>
        <pt x="204" y="888" on="0"/>
        <pt x="357" y="943" on="0"/>
        <pt x="444" y="943" on="1"/>
        <pt x="577" y="943" on="0"/>
        <pt x="708" y="867" on="0"/>
        <pt x="751" y="727" on="0"/>
        <pt x="751" y="630" on="1"/>
        <pt x="751" y="319" on="1"/>
        <pt x="751" y="254" on="0"/>
        <pt x="756" y="172" on="0"/>
        <pt x="757" y="158" on="1"/>
        <pt x="764" y="109" on="0"/>
        <pt x="800" y="109" on="1"/>
        <pt x="821" y="109" on="0"/>
        <pt x="853" y="135" on="0"/>
      </contour>
      <contour>
        <pt x="583" y="197" on="1"/>
        <pt x="583" y="549" on="1"/>
        <pt x="429" y="489" on="0"/>
        <pt x="284" y="393" on="0"/>
        <pt x="243" y="308" on="0"/>
        <pt x="243" y="264" on="1"/>
        <pt x="243" y="194" on="0"/>
        <pt x="324" y="97" on="0"/>
        <pt x="382" y="97" on="1"/>
        <pt x="421" y="94" on="0"/>
        <pt x="520" y="146" on="0"/>
      </contour>
    </TTGlyph>
    <TTGlyph name="aacute" xMin="74" yMin="-17" xMax="910" yMax="1396">
      <component glyphName="a" x="0" y="0" flags="0x204"/>
      <component glyphName="acutecomb" x="960" y="0" flags="0x4"/>
    </TTGlyph>
    <TTGlyph name="absAe" xMin="103" yMin="-10" xMax="588" yMax="882">
      <component glyphName="absHehGoal" x="0" y="0" flags="0x204"/>
    </TTGlyph>
    <TTGlyph name="absAfghaniSign" xMin="101" yMin="-1031" xMax="1179" yMax="2048">
      <contour>
        <pt x="980" y="1851" on="1"/>
        <pt x="980" y="1838" on="0"/>
        <pt x="933" y="1774" on="0"/>
        <pt x="867" y="1703" on="0"/>
        <pt x="807" y="1653" on="0"/>
        <pt x="795" y="1653" on="1"/>
        <pt x="779" y="1653" on="0"/>
        <pt x="715" y="1702" on="0"/>
        <pt x="646" y="1771" on="0"/>
        <pt x="598" y="1835" on="0"/>
        <pt x="598" y="1851" on="1"/>
        <pt x="598" y="1865" on="0"/>
        <pt x="645" y="1928" on="0"/>
        <pt x="711" y="1998" on="0"/>
        <pt x="770" y="2048" on="0"/>
        <pt x="783" y="2048" on="1"/>
        <pt x="794" y="2047" on="0"/>
        <pt x="826" y="1992" on="0"/>
        <pt x="875" y="1942" on="1"/>
        <pt x="924" y="1894" on="0"/>
        <pt x="980" y="1862" on="0"/>
      </contour>
      <contour>
        <pt x="815" y="1331" on="1"/>
        <pt x="859" y="1331" on="0"/>
        <pt x="982" y="1233" on="0"/>
        <pt x="1100" y="1050" on="0"/>
        <pt x="1179" y="794" on="0"/>
        <pt x="1179" y="636" on="1"/>
        <pt x="1179" y="323" on="0"/>
        <pt x="669" y="0" on="0"/>
        <pt x="132" y="0" on="1"/>
        <pt x="107" y="0" on="0"/>
        <pt x="101" y="72" on="0"/>
        <pt x="124" y="176" on="0"/>
        <pt x="163" y="276" on="0"/>
        <pt x="204" y="336" on="0"/>
        <pt x="219" y="326" on="1"/>
        <pt x="251" y="304" on="0"/>
        <pt x="402" y="286" on="0"/>
        <pt x="599" y="295" on="0"/>
        <pt x="804" y="329" on="0"/>
        <pt x="980" y="389" on="0"/>
        <pt x="1089" y="475" on="0"/>
        <pt x="1089" y="530" on="1"/>
        <pt x="1089" y="625" on="0"/>
        <pt x="1068" y="707" on="1"/>
        <pt x="1021" y="649" on="0"/>
        <pt x="874" y="550" on="0"/>
        <pt x="712" y="493" on="0"/>
        <pt x="568" y="502" on="0"/>
        <pt x="477" y="601" on="0"/>
        <pt x="477" y="708" on="1"/>
        <pt x="477" y="756" on="0"/>
        <pt x="508" y="910" on="0"/>
        <pt x="568" y="1082" on="0"/>
        <pt x="651" y="1234" on="0"/>
        <pt x="755" y="1331" on="0"/>
      </contour>
      <contour>
        <pt x="597" y="904" on="1"/>
        <pt x="591" y="825" on="0"/>
        <pt x="665" y="771" on="0"/>
        <pt x="784" y="794" on="0"/>
        <pt x="909" y="871" on="0"/>
        <pt x="953" y="924" on="1"/>
        <pt x="897" y="984" on="0"/>
        <pt x="767" y="1041" on="0"/>
        <pt x="711" y="1041" on="1"/>
        <pt x="666" y="1041" on="0"/>
        <pt x="618" y="993" on="0"/>
        <pt x="599" y="929" on="0"/>
      </contour>
      <contour>
        <pt x="749" y="-376" on="1"/>
        <pt x="753" y="-320" on="0"/>
        <pt x="805" y="-226" on="0"/>
        <pt x="818" y="-211" on="1"/>
        <pt x="830" y="-199" on="0"/>
        <pt x="866" y="-235" on="0"/>
        <pt x="855" y="-255" on="1"/>
        <pt x="845" y="-270" on="0"/>
        <pt x="840" y="-342" on="1"/>
        <pt x="837" y="-394" on="0"/>
        <pt x="836" y="-527" on="0"/>
        <pt x="836" y="-652" on="0"/>
        <pt x="833" y="-693" on="1"/>
        <pt x="828" y="-770" on="0"/>
        <pt x="798" y="-908" on="0"/>
        <pt x="767" y="-1003" on="0"/>
        <pt x="758" y="-1018" on="1"/>
        <pt x="750" y="-1031" on="0"/>
        <pt x="707" y="-997" on="0"/>
        <pt x="712" y="-980" on="1"/>
        <pt x="717" y="-967" on="0"/>
        <pt x="737" y="-914" on="0"/>
        <pt x="741" y="-850" on="1"/>
        <pt x="746" y="-789" on="0"/>
        <pt x="745" y="-621" on="0"/>
        <pt x="744" y="-446" on="0"/>
      </contour>
    </TTGlyph>
    <TTGlyph name="absAin" xMin="103" yMin="-600" xMax="1515" yMax="1715">
      <contour>
        <pt x="642" y="-600" on="1"/>
        <pt x="484" y="-600" on="0"/>
        <pt x="240" y="-420" on="0"/>
        <pt x="103" y="-92" on="0"/>
        <pt x="103" y="129" on="1"/>
        <pt x="103" y="415" on="0"/>
        <pt x="273" y="830" on="0"/>
        <pt x="414" y="990" on="1"/>
        <pt x="311" y="1013" on="0"/>
        <pt x="223" y="1118" on="0"/>
        <pt x="223" y="1179" on="1"/>
        <pt x="223" y="1216" on="0"/>
        <pt x="272" y="1319" on="0"/>
        <pt x="348" y="1412" on="1"/>
        <pt x="397" y="1470" on="0"/>
        <pt x="505" y="1612" on="0"/>
        <pt x="629" y="1715" on="0"/>
        <pt x="700" y="1715" on="1"/>
        <pt x="773" y="1715" on="0"/>
        <pt x="851" y="1659" on="0"/>
        <pt x="867" y="1587" on="0"/>
        <pt x="826" y="1531" on="0"/>
        <pt x="780" y="1531" on="1"/>
        <pt x="749" y="1531" on="0"/>
        <pt x="704" y="1555" on="0"/>
        <pt x="650" y="1578" on="0"/>
        <pt x="603" y="1578" on="1"/>
        <pt x="553" y="1578" on="0"/>
        <pt x="482" y="1520" on="0"/>
        <pt x="444" y="1448" on="0"/>
        <pt x="443" y="1427" on="1"/>
        <pt x="441" y="1399" on="0"/>
        <pt x="474" y="1309" on="0"/>
        <pt x="541" y="1235" on="0"/>
        <pt x="643" y="1216" on="0"/>
        <pt x="711" y="1258" on="1"/>
        <pt x="789" y="1316" on="0"/>
        <pt x="956" y="1429" on="0"/>
        <pt x="1042" y="1485" on="1"/>
        <pt x="1063" y="1499" on="0"/>
        <pt x="1064" y="1476" on="0"/>
        <pt x="1037" y="1428" on="0"/>
        <pt x="999" y="1378" on="0"/>
        <pt x="981" y="1365" on="1"/>
        <pt x="807" y="1240" on="0"/>
        <pt x="529" y="1025" on="0"/>
        <pt x="334" y="800" on="0"/>
        <pt x="231" y="525" on="0"/>
        <pt x="231" y="340" on="1"/>
        <pt x="231" y="248" on="0"/>
        <pt x="273" y="40" on="0"/>
        <pt x="377" y="-144" on="0"/>
        <pt x="562" y="-260" on="0"/>
        <pt x="704" y="-260" on="1"/>
        <pt x="828" y="-260" on="0"/>
        <pt x="1039" y="-163" on="0"/>
        <pt x="1211" y="-1" on="0"/>
        <pt x="1344" y="198" on="0"/>
        <pt x="1439" y="403" on="0"/>
        <pt x="1467" y="494" on="1"/>
        <pt x="1471" y="507" on="0"/>
        <pt x="1483" y="507" on="1"/>
        <pt x="1492" y="507" on="0"/>
        <pt x="1515" y="478" on="0"/>
        <pt x="1509" y="455" on="1"/>
        <pt x="1471" y="309" on="0"/>
        <pt x="1360" y="10" on="0"/>
        <pt x="1212" y="-262" on="0"/>
        <pt x="1021" y="-476" on="0"/>
        <pt x="785" y="-600" on="0"/>
      </contour>
    </TTGlyph>
    <TTGlyph name="absAinFin" xMin="103" yMin="-600" xMax="1515" yMax="1518">
      <contour>
        <pt x="591" y="1052" on="1"/>
        <pt x="485" y="949" on="0"/>
        <pt x="323" y="747" on="0"/>
        <pt x="231" y="505" on="0"/>
        <pt x="231" y="340" on="1"/>
        <pt x="231" y="248" on="0"/>
        <pt x="273" y="40" on="0"/>
        <pt x="377" y="-144" on="0"/>
        <pt x="562" y="-260" on="0"/>
        <pt x="704" y="-260" on="1"/>
        <pt x="828" y="-260" on="0"/>
        <pt x="1039" y="-163" on="0"/>
        <pt x="1211" y="-1" on="0"/>
        <pt x="1344" y="198" on="0"/>
        <pt x="1439" y="403" on="0"/>
        <pt x="1467" y="494" on="1"/>
        <pt x="1471" y="507" on="0"/>
        <pt x="1483" y="507" on="1"/>
        <pt x="1492" y="507" on="0"/>
        <pt x="1515" y="478" on="0"/>
        <pt x="1509" y="455" on="1"/>
        <pt x="1471" y="309" on="0"/>
        <pt x="1360" y="10" on="0"/>
        <pt x="1212" y="-262" on="0"/>
        <pt x="1021" y="-476" on="0"/>
        <pt x="785" y="-600" on="0"/>
        <pt x="642" y="-600" on="1"/>
        <pt x="484" y="-600" on="0"/>
        <pt x="240" y="-420" on="0"/>
        <pt x="103" y="-92" on="0"/>
        <pt x="103" y="129" on="1"/>
        <pt x="103" y="357" on="0"/>
        <pt x="222" y="708" on="0"/>
        <pt x="425" y="988" on="0"/>
        <pt x="551" y="1109" on="1"/>
        <pt x="517" y="1144" on="0"/>
        <pt x="457" y="1230" on="0"/>
        <pt x="390" y="1300" on="0"/>
        <pt x="298" y="1320" on="0"/>
        <pt x="232" y="1288" on="1"/>
        <pt x="227" y="1286" on="0"/>
        <pt x="216" y="1301" on="0"/>
        <pt x="216" y="1311" on="1"/>
        <pt x="216" y="1326" on="0"/>
        <pt x="293" y="1393" on="0"/>
        <pt x="417" y="1466" on="0"/>
        <pt x="557" y="1518" on="0"/>
        <pt x="620" y="1518" on="1"/>
        <pt x="678" y="1518" on="0"/>
        <pt x="749" y="1459" on="0"/>
        <pt x="783" y="1372" on="0"/>
        <pt x="783" y="1329" on="1"/>
        <pt x="783" y="1263" on="0"/>
        <pt x="668" y="1128" on="0"/>
      </contour>
    </TTGlyph>
    <TTGlyph name="absAinIni" xMin="-98" yMin="70" xMax="892" yMax="934">
      <contour>
        <pt x="234" y="70" on="1"/>
        <pt x="141" y="70" on="0"/>
        <pt x="21" y="162" on="0"/>
        <pt x="-48" y="324" on="0"/>
        <pt x="-84" y="537" on="0"/>
        <pt x="-95" y="659" on="1"/>
        <pt x="-98" y="693" on="0"/>
        <pt x="-71" y="773" on="0"/>
        <pt x="-32" y="835" on="0"/>
        <pt x="-1" y="851" on="0"/>
        <pt x="0" y="820" on="1"/>
        <pt x="5" y="678" on="0"/>
        <pt x="87" y="488" on="0"/>
        <pt x="175" y="445" on="1"/>
        <pt x="185" y="476" on="0"/>
        <pt x="239" y="565" on="0"/>
        <pt x="294" y="631" on="1"/>
        <pt x="342" y="689" on="0"/>
        <pt x="450" y="831" on="0"/>
        <pt x="574" y="934" on="0"/>
        <pt x="646" y="934" on="1"/>
        <pt x="719" y="934" on="0"/>
        <pt x="796" y="878" on="0"/>
        <pt x="812" y="806" on="0"/>
        <pt x="771" y="750" on="0"/>
        <pt x="725" y="750" on="1"/>
        <pt x="694" y="750" on="0"/>
        <pt x="649" y="774" on="0"/>
        <pt x="595" y="797" on="0"/>
        <pt x="548" y="797" on="1"/>
        <pt x="498" y="797" on="0"/>
        <pt x="428" y="739" on="0"/>
        <pt x="390" y="667" on="0"/>
        <pt x="388" y="646" on="1"/>
        <pt x="386" y="618" on="0"/>
        <pt x="418" y="535" on="0"/>
        <pt x="485" y="466" on="0"/>
        <pt x="587" y="444" on="0"/>
        <pt x="656" y="476" on="1"/>
        <pt x="656" y="476" on="1"/>
        <pt x="716" y="504" on="0"/>
        <pt x="810" y="586" on="0"/>
        <pt x="831" y="639" on="1"/>
        <pt x="836" y="652" on="0"/>
        <pt x="867" y="650" on="0"/>
        <pt x="892" y="630" on="0"/>
        <pt x="887" y="614" on="1"/>
        <pt x="855" y="514" on="0"/>
        <pt x="722" y="320" on="0"/>
        <pt x="543" y="163" on="0"/>
        <pt x="338" y="70" on="0"/>
      </contour>
    </TTGlyph>
    <TTGlyph name="absAinIni.ai" xMin="-11" yMin="1028" xMax="1286" yMax="2121">
      <contour>
        <pt x="1202" y="1775" on="1"/>
        <pt x="988" y="1628" on="0"/>
        <pt x="683" y="1380" on="0"/>
        <pt x="470" y="1190" on="0"/>
        <pt x="318" y="1069" on="0"/>
        <pt x="197" y="1028" on="0"/>
        <pt x="76" y="1077" on="0"/>
        <pt x="0" y="1153" on="1"/>
        <pt x="-11" y="1164" on="0"/>
        <pt x="6" y="1229" on="0"/>
        <pt x="36" y="1282" on="0"/>
        <pt x="43" y="1274" on="1"/>
        <pt x="126" y="1191" on="0"/>
        <pt x="255" y="1142" on="0"/>
        <pt x="378" y="1189" on="0"/>
        <pt x="526" y="1315" on="0"/>
        <pt x="627" y="1408" on="1"/>
        <pt x="533" y="1431" on="0"/>
        <pt x="424" y="1561" on="0"/>
        <pt x="428" y="1618" on="1"/>
        <pt x="431" y="1656" on="0"/>
        <pt x="488" y="1755" on="0"/>
        <pt x="572" y="1842" on="1"/>
        <pt x="624" y="1896" on="0"/>
        <pt x="743" y="2029" on="0"/>
        <pt x="875" y="2121" on="0"/>
        <pt x="947" y="2115" on="1"/>
        <pt x="1019" y="2109" on="0"/>
        <pt x="1092" y="2049" on="0"/>
        <pt x="1102" y="1975" on="0"/>
        <pt x="1057" y="1923" on="0"/>
        <pt x="1011" y="1926" on="1"/>
        <pt x="980" y="1928" on="0"/>
        <pt x="937" y="1958" on="0"/>
        <pt x="885" y="1986" on="0"/>
        <pt x="838" y="1986" on="1"/>
        <pt x="795" y="1986" on="0"/>
        <pt x="715" y="1932" on="0"/>
        <pt x="663" y="1852" on="0"/>
        <pt x="663" y="1812" on="1"/>
        <pt x="662" y="1775" on="0"/>
        <pt x="696" y="1694" on="0"/>
        <pt x="763" y="1635" on="0"/>
        <pt x="859" y="1623" on="0"/>
        <pt x="920" y="1656" on="1"/>
        <pt x="993" y="1713" on="0"/>
        <pt x="1163" y="1832" on="0"/>
        <pt x="1263" y="1894" on="1"/>
        <pt x="1285" y="1908" on="0"/>
        <pt x="1286" y="1885" on="0"/>
        <pt x="1259" y="1837" on="0"/>
        <pt x="1220" y="1787" on="0"/>
      </contour>
    </TTGlyph>
    <TTGlyph name="absAinIni.be" xMin="-27" yMin="1343" xMax="984" yMax="2348">
      <contour>
        <pt x="386" y="1555" on="1"/>
        <pt x="324" y="1491" on="0"/>
        <pt x="201" y="1388" on="0"/>
        <pt x="72" y="1343" on="0"/>
        <pt x="0" y="1365" on="1"/>
        <pt x="-13" y="1369" on="0"/>
        <pt x="-27" y="1442" on="0"/>
        <pt x="-27" y="1531" on="0"/>
        <pt x="-14" y="1595" on="0"/>
        <pt x="0" y="1591" on="1"/>
        <pt x="52" y="1576" on="0"/>
        <pt x="108" y="1542" on="0"/>
        <pt x="162" y="1525" on="0"/>
        <pt x="211" y="1533" on="1"/>
        <pt x="247" y="1539" on="0"/>
        <pt x="324" y="1587" on="0"/>
        <pt x="363" y="1624" on="1"/>
        <pt x="261" y="1647" on="0"/>
        <pt x="173" y="1752" on="0"/>
        <pt x="173" y="1812" on="1"/>
        <pt x="173" y="1850" on="0"/>
        <pt x="222" y="1953" on="0"/>
        <pt x="298" y="2046" on="1"/>
        <pt x="347" y="2104" on="0"/>
        <pt x="454" y="2245" on="0"/>
        <pt x="578" y="2348" on="0"/>
        <pt x="650" y="2348" on="1"/>
        <pt x="723" y="2348" on="0"/>
        <pt x="800" y="2292" on="0"/>
        <pt x="816" y="2220" on="0"/>
        <pt x="775" y="2164" on="0"/>
        <pt x="729" y="2164" on="1"/>
        <pt x="698" y="2164" on="0"/>
        <pt x="654" y="2188" on="0"/>
        <pt x="599" y="2211" on="0"/>
        <pt x="552" y="2211" on="1"/>
        <pt x="502" y="2211" on="0"/>
        <pt x="432" y="2153" on="0"/>
        <pt x="394" y="2082" on="0"/>
        <pt x="393" y="2061" on="1"/>
        <pt x="391" y="2033" on="0"/>
        <pt x="421" y="1949" on="0"/>
        <pt x="485" y="1877" on="0"/>
        <pt x="585" y="1855" on="0"/>
        <pt x="654" y="1888" on="1"/>
        <pt x="719" y="1938" on="0"/>
        <pt x="869" y="2039" on="0"/>
        <pt x="962" y="2098" on="1"/>
        <pt x="984" y="2112" on="0"/>
        <pt x="984" y="2088" on="0"/>
        <pt x="958" y="2040" on="0"/>
        <pt x="919" y="1991" on="0"/>
        <pt x="901" y="1979" on="1"/>
        <pt x="754" y="1879" on="0"/>
        <pt x="490" y="1664" on="0"/>
      </contour>
    </TTGlyph>
    <TTGlyph name="absAinIni.beF" xMin="-83" yMin="352" xMax="1228" yMax="1479">
      <contour>
        <pt x="614" y="687" on="1"/>
        <pt x="569" y="643" on="0"/>
        <pt x="474" y="529" on="0"/>
        <pt x="377" y="422" on="0"/>
        <pt x="279" y="352" on="0"/>
        <pt x="230" y="352" on="1"/>
        <pt x="123" y="352" on="0"/>
        <pt x="-44" y="424" on="0"/>
        <pt x="-81" y="461" on="1"/>
        <pt x="-83" y="463" on="0"/>
        <pt x="-81" y="477" on="0"/>
        <pt x="-77" y="477" on="1"/>
        <pt x="90" y="477" on="0"/>
        <pt x="316" y="547" on="0"/>
        <pt x="487" y="672" on="0"/>
        <pt x="573" y="754" on="1"/>
        <pt x="505" y="765" on="0"/>
        <pt x="414" y="841" on="0"/>
        <pt x="371" y="935" on="0"/>
        <pt x="374" y="972" on="1"/>
        <pt x="377" y="1009" on="0"/>
        <pt x="433" y="1108" on="0"/>
        <pt x="516" y="1196" on="1"/>
        <pt x="568" y="1251" on="0"/>
        <pt x="685" y="1385" on="0"/>
        <pt x="816" y="1479" on="0"/>
        <pt x="887" y="1474" on="1"/>
        <pt x="960" y="1469" on="0"/>
        <pt x="1033" y="1407" on="0"/>
        <pt x="1044" y="1334" on="0"/>
        <pt x="999" y="1281" on="0"/>
        <pt x="954" y="1285" on="1"/>
        <pt x="923" y="1288" on="0"/>
        <pt x="880" y="1314" on="0"/>
        <pt x="827" y="1341" on="0"/>
        <pt x="780" y="1344" on="1"/>
        <pt x="737" y="1347" on="0"/>
        <pt x="659" y="1293" on="0"/>
        <pt x="610" y="1212" on="0"/>
        <pt x="610" y="1174" on="1"/>
        <pt x="610" y="1142" on="0"/>
        <pt x="647" y="1062" on="0"/>
        <pt x="716" y="1000" on="0"/>
        <pt x="811" y="984" on="0"/>
        <pt x="869" y="1015" on="1"/>
        <pt x="1011" y="1127" on="0"/>
        <pt x="1205" y="1251" on="1"/>
        <pt x="1227" y="1265" on="0"/>
        <pt x="1228" y="1241" on="0"/>
        <pt x="1201" y="1193" on="0"/>
        <pt x="1162" y="1143" on="0"/>
        <pt x="1144" y="1131" on="1"/>
        <pt x="997" y="1032" on="0"/>
        <pt x="722" y="793" on="0"/>
      </contour>
    </TTGlyph>
    <TTGlyph name="absAinIni.beM1" xMin="-98" yMin="601" xMax="889" yMax="1473">
      <contour>
        <pt x="-64" y="820" on="1"/>
        <pt x="-64" y="986" on="0"/>
        <pt x="-4" y="1308" on="0"/>
        <pt x="71" y="1465" on="1"/>
        <pt x="75" y="1473" on="0"/>
        <pt x="104" y="1467" on="0"/>
        <pt x="101" y="1457" on="1"/>
        <pt x="50" y="1262" on="0"/>
        <pt x="130" y="1031" on="0"/>
        <pt x="219" y="982" on="1"/>
        <pt x="229" y="1014" on="0"/>
        <pt x="283" y="1102" on="0"/>
        <pt x="338" y="1169" on="1"/>
        <pt x="386" y="1227" on="0"/>
        <pt x="494" y="1368" on="0"/>
        <pt x="618" y="1471" on="0"/>
        <pt x="690" y="1471" on="1"/>
        <pt x="763" y="1471" on="0"/>
        <pt x="840" y="1415" on="0"/>
        <pt x="856" y="1343" on="0"/>
        <pt x="815" y="1287" on="0"/>
        <pt x="769" y="1287" on="1"/>
        <pt x="738" y="1287" on="0"/>
        <pt x="693" y="1311" on="0"/>
        <pt x="639" y="1334" on="0"/>
        <pt x="592" y="1334" on="1"/>
        <pt x="542" y="1334" on="0"/>
        <pt x="472" y="1276" on="0"/>
        <pt x="434" y="1205" on="0"/>
        <pt x="432" y="1184" on="1"/>
        <pt x="430" y="1156" on="0"/>
        <pt x="461" y="1077" on="0"/>
        <pt x="529" y="1013" on="0"/>
        <pt x="631" y="1001" on="0"/>
        <pt x="700" y="1038" on="1"/>
        <pt x="700" y="1038" on="1"/>
        <pt x="753" y="1072" on="0"/>
        <pt x="836" y="1160" on="0"/>
        <pt x="860" y="1209" on="1"/>
        <pt x="865" y="1218" on="0"/>
        <pt x="889" y="1204" on="0"/>
        <pt x="885" y="1194" on="1"/>
        <pt x="852" y="1093" on="0"/>
        <pt x="733" y="885" on="0"/>
        <pt x="575" y="709" on="0"/>
        <pt x="391" y="601" on="0"/>
        <pt x="294" y="601" on="1"/>
        <pt x="217" y="601" on="0"/>
        <pt x="59" y="686" on="0"/>
        <pt x="-16" y="782" on="1"/>
        <pt x="-33" y="763" on="0"/>
        <pt x="-66" y="733" on="0"/>
        <pt x="-98" y="719" on="1"/>
        <pt x="-86" y="736" on="0"/>
        <pt x="-64" y="792" on="0"/>
      </contour>
    </TTGlyph>
</ttFont>
